<?xml version="1.0" encoding="UTF-8"?>
<svg id="Layer_1" data-name="Layer 1" xmlns="http://www.w3.org/2000/svg" viewBox="0 0 3470.5 1938">
  <defs>
    <style>
      .cls-1, .cls-2, .cls-3 {
        stroke-width: 0px;
      }

      .cls-2 {
        fill: #fe0000;
      }

      .cls-3 {
        fill: #fff;
        fill-rule: evenodd;
      }
    </style>
  </defs>
  <path class="cls-3" d="M2384.08,724.13c35.6-29.2,66-54.4,67.74-56l2.93-2.8-.67-664.67-76.66,63.07c-42.14,34.67-178,146.4-302,248.27-64.38,52.94-126.27,103.79-173.13,142.3-43.31,35.59-73.79,60.63-81.54,67.03-16.13,13.33-59.87,49.33-97.33,80-37.33,30.8-75.47,62.13-84.67,69.6-9.07,7.6-16.93,13.73-17.33,13.73s-.53-12.13-.27-27.07l.4-27.07,60.53-49.87,60.67-49.87v-162.8l-48.8-39.07c-42.67-34-49.07-38.67-51.07-37.33-1.2.93-28.8,23.6-61.33,50.4-32.53,26.8-62.27,51.2-66.27,54.4l-7.2,5.87v-33.07l-11.6-9.2c-4.51-3.59-16.51-13.21-30.36-24.31-6.21-4.98-12.8-10.26-19.24-15.43-24.8-19.87-38.27-30-39.33-29.2-.17.14-1.13.93-2.77,2.27-6.25,5.11-22.25,18.19-40.43,33.2-28.93,23.73-42.27,34-43.33,33.07-.75-.54-13.25-10.73-29.84-24.26-3.95-3.22-8.12-6.63-12.43-10.14-22.4-18.4-41.33-33.73-42.27-34.27-.93-.67-25.6,18.8-65.33,51.33-35.07,28.67-66.93,55.07-70.93,58.53l-7.2,6.13-38.4,95.87c-21.07,52.8-38.13,96-37.87,96.27.27.27,16.53-12.8,36.27-29.07l35.73-29.47.4,85.33.27,85.33,51.07,41.6c28,22.93,51.6,42.13,52.27,42.67.8.53,16-10.93,35.33-26.8l34-27.87.4,41.87c.13,23.07.67,42,1.2,42s2.8-1.73,5.07-3.73c8.27-7.73,115.33-94.93,115.33-94v49.47c0,31.87.4,48.4,1.33,48,.67-.13,26-20.8,56.27-45.73,30.27-24.93,55.47-45.6,56-45.73.53-.27,1.07,11.47,1.07,26.27v26.67l-10.93,9.2c-9.02,7.49-30.78,25.37-124.45,102.31-12.99,10.67-27.37,22.48-43.29,35.56-28.27,23.2-95.73,78.67-150,123.34l-98.67,81.2-.67,341.2,34.4,28.13c12.69,10.35,54.63,44.78,105.94,86.91,24.68,20.25,51.52,42.29,78.32,64.29,35.14,28.84,66.95,54.96,95.71,78.57,186.3,152.94,244.11,200.4,244.69,200.63.27,0,44-35.6,97.07-79.2l13.55-11.14c52.27-42.94,122.29-100.47,162.31-133.39,16.21-13.34,37.14-30.55,59.68-49.08,38.08-31.3,80.74-66.37,112.99-92.92,51.33-42.14,98-80.54,103.73-85.34l10.27-8.53.13-300.27,54.67-44.66c30-24.54,58.8-48.27,64-52.67l9.33-8v-146c-.13-80.27.4-146.67.93-147.47.54-.8,30-25.33,65.6-54.4Z"/>
  <path class="cls-2" d="M2379.42,124.93c-13.2,10.93-38.4,31.73-56,46.27-17.6,14.4-62.54,51.33-100,82.13-37.34,30.67-77.87,64-90,74-12.14,10-35.74,29.47-52.67,43.33-67.2,55.2-205.6,168.93-262.53,215.73-33.07,27.33-70.4,58-82.93,68.27-30.4,24.93-41.2,33.87-115.2,94.67-34.8,28.67-112.53,92.53-172.67,142-60.13,49.47-131.2,107.87-158,129.87-74.27,61.07-105.87,87.07-139.73,114.8l-30.93,25.33v122.27c0,67.33.53,122.4,1.07,122.4.67,0,6.8-4.67,13.73-10.4,6.93-5.73,51.6-42.4,99.2-81.6,47.73-39.2,113.73-93.47,146.67-120.53,33.07-27.2,78.67-64.67,101.33-83.34,22.8-18.66,51.2-42.13,63.33-52.13,12.13-10,52.67-43.33,90-74,137.07-112.67,189.07-155.33,236.67-194.53,26.8-22,67.33-55.33,90-74,22.8-18.67,51.2-42.13,63.33-52.13,12.14-10,33.74-27.73,48-39.47,26.8-22,88-72.4,243.74-200.4l89.6-73.73v-122.53c0-67.33-.4-122.53-.94-122.4-.66,0-11.86,9.07-25.06,20.13Z"/>
  <path class="cls-1" d="M1174.75,370.67l-60.67,49.87-14.93,36.67c-8.13,20.27-14.53,36.8-14.27,36.8.4,0,5.6-4.13,11.6-9.07,15.47-12.93,71.87-59.07,74.27-60.8,1.6-1.2,1.73-1.07.53.53-5.73,7.87-41.6,56.27-48.8,66l-9.07,12,.13,98.67v98.67l33.73,27.33c18.67,15.07,34.67,27.33,35.73,27.2.93-.13,37.6-29.47,81.2-65.47,43.73-35.87,80.13-65.73,81.07-66.4.93-.53-11.87,15.47-28.4,35.73l-30.13,36.67v30.27c0,16.67.53,30,1.2,29.73.53-.27,14.67-11.47,31.2-25.07l30.27-24.67v-85.87l7.07-6c16.27-14,51.07-42.13,52-42.13.53,0,.8,41.47.67,92-.27,50.67-.13,92,.27,92s38.93-31.47,85.73-70c46.8-38.53,85.33-70,85.73-70,.27,0-12.67,17.6-28.8,38.93l-29.33,39.07v56.93l5.07-4c2.67-2.27,16.53-13.6,30.67-25.2l25.87-21.2-.13-43.6v-43.73l4-3.6c2.27-2,29.73-24.67,60.93-50.4l56.93-46.8.4-70.67.27-70.8-29.6-23.73c-16.27-13.07-30.67-23.73-31.73-23.73-1.2-.13-29.2,22-62.27,49.2l-60.27,49.33-.13,95.33-.13,95.33-24.93,20.4-24.93,20.4-.67-140.8-.67-140.8-31.2-25.2-31.2-25.07-30.8,25.33c-16.93,14-44.4,36.53-61.07,50.27l-30.4,24.8v192.13l-38.67,31.73c-21.33,17.47-39.2,31.47-39.87,31.2-.8-.27-8.53-6.27-17.33-13.6l-16.13-13.07v-138.67c0-90,.4-138.4,1.33-138.13.67.13,12.13,8.93,25.33,19.47,15.2,12.13,24.53,18.8,25.6,18.13,2-1.2,52.4-42.4,56.13-45.87,2.4-2.13,1.47-3.07-20-20.67-12.27-10.13-23.6-19.47-25.07-20.8-2.67-2.27-4.13-1.07-63.33,47.47ZM1380.35,396l29.07,24-.4,46.53-.27,46.53-28.67,23.73c-15.73,13.07-29.07,23.73-29.6,23.73-.67.13-1.07-42.53-1.07-94.67s.4-94.53,1.07-94.27c.53.13,14,11.2,29.87,24.4ZM1614.89,395.07l28.53,22.4.4,47.33.27,47.33-27.87,22.93c-15.47,12.67-28.93,23.33-30.13,23.73-1.73.67-2-9.07-2-92.67.13-51.47.53-93.47,1.2-93.47.53,0,13.87,10.13,29.6,22.4Z"/>
  <path class="cls-1" d="M1354.75,466c0,44.67.53,81.33,1.07,81.33.67,0,2.27-1.33,3.73-3.07,2.4-2.8,2.53-5.6,2.13-79.07l-.27-76.27-3.33-2.13-3.33-2.13v81.33Z"/>
  <path class="cls-1" d="M1589.42,466v84l3.33-2.13,3.33-2.13.27-79.33.4-79.33-3.6-2.67-3.73-2.53v84.13Z"/>
  <path class="cls-1" d="M1259.82,393.07c-17.33,14.13-31.33,26.13-31.2,26.8.13.67,1.2,1.87,2.4,2.53,1.6,1.07,8.67-4.13,33.6-24.4,17.33-14.27,31.47-26.27,31.47-26.93,0-.53-1.07-1.6-2.4-2.27-2-1.07-7.87,3.07-33.87,24.27Z"/>
  <path class="cls-1" d="M1712.09,445.47v70.53l-61.33,50.53-61.33,50.4-.13,44.27v44.13l-32.67,26.53c-28.67,23.33-32.53,26.93-32.53,30.4,0,2,.4,3.73.8,3.73.53,0,64.27-51.87,69.6-56.67,1.33-1.2,1.73-10.93,1.73-44.8-.13-23.73.27-43.87.93-44.67.53-.8,28.13-23.73,61.33-51.07l60.27-49.6-.27-70.13-.4-70.13-2.93-2-3.07-1.87v70.4Z"/>
  <path class="cls-1" d="M1477.42,508.13v131.6l3.33-3.07,3.33-3.2-.27-126.53-.4-126.67-2.93-2-3.07-1.87v131.73Z"/>
  <path class="cls-1" d="M1180.09,514.93l.13,130.4,3.2,2.4,3.33,2.4v-130.4l-.13-130.4-3.2-2.4-3.33-2.4v130.4Z"/>
  <path class="cls-1" d="M2388.75,416.93c-8.8,7.33-47.73,39.6-86.67,71.47-38.8,32-95.6,78.53-126,103.6-140.13,115.2-211.6,174-263.33,216.53-30.8,25.33-69.73,57.47-86.67,71.2-16.8,13.87-38.8,31.87-48.67,40.13-27.87,22.93-102.93,84.66-164,134.8-30.4,24.93-79.33,65.2-108.67,89.33s-66.8,54.93-83.33,68.53c-16.53,13.6-51.87,42.67-78.67,64.67s-80.4,66.13-119.33,98.13c-100.67,82.67-99.33,81.6-99.33,82.54,0,.66,125.2,104.4,142.13,117.73,3.33,2.67-15.73,17.73,176.53-140.4,128.8-105.87,211.07-173.6,281.73-231.6,38.93-32.13,88-72.4,108.93-89.6,20.93-17.2,64.67-53.2,97.33-80,32.67-26.8,74.67-61.33,93.33-76.8,159.34-130.93,254.67-209.33,317.6-261.07l63.6-52.13.14-120.4c0-66.13-.14-120.27-.27-120.13-.27,0-7.6,6.13-16.4,13.47Z"/>
  <path class="cls-1" d="M1107.42,484.93c-18.93,15.6-24.53,21.07-26.4,25.33-1.2,2.93-2.13,5.6-1.87,5.87.27.27,9.07-6.67,19.73-15.33,13.2-10.93,21.33-18.8,26.27-25.47,4-5.2,6.93-9.73,6.67-9.87-.27-.27-11.2,8.53-24.4,19.47Z"/>
  <path class="cls-1" d="M1377.82,604.93l-23.07,18.93v86l-32.8,26.93c-18,14.8-33.07,27.73-33.47,28.67-.27.93-.4,2.93-.13,4.4.27,2.4,6.27-2,36.4-26.67l36-29.47.67-43.47.67-43.6,17.33-14.4c9.6-8,18.4-15.33,19.73-16.27,1.73-1.2,2.27-3.07,2-5.87l-.4-4.13-22.93,18.93Z"/>
  <path class="cls-1" d="M1475.42,710.66c-61.6,50.8-64,52.93-64.4,57.73l-.4,4.93,3.07-2.8c1.73-1.6,27.33-22.8,57.07-47.2,29.6-24.4,55.73-46.8,58-49.87,2.27-3.07,5.87-7.73,7.87-10.53,2.13-2.67,3.6-4.93,3.33-4.93s-29.33,23.73-64.53,52.67Z"/>
  <path class="cls-1" d="M1242.75,716.27c-28.93,23.87-52.67,44.13-52.67,44.8s.93,1.87,2.13,2.67c3.2,2,79.87-61.33,91.87-75.87,9.2-11.2,12.4-15.2,11.73-15.2-.27.13-24.13,19.73-53.07,43.6Z"/>
  <path class="cls-2" d="M2256.48,819.73c-6.4,5.33-25.2,20.93-41.73,34.4-90.67,74.53-263.33,216.4-300.67,247.2-16.13,13.34-70.13,57.74-120,98.67-49.87,41.07-104.13,85.6-120.67,99.2-16.53,13.6-38.4,31.6-48.8,40.13-10.27,8.4-45.73,37.47-78.67,64.67-79.47,65.33-129.2,106.27-191.2,157.2-28.27,23.2-51.47,42.67-51.73,43.33-.27.67,4.4,4.94,10.13,9.6,5.87,4.67,25.2,20.54,42.93,35.2,95.6,78.8,91.2,75.34,93.6,73.6,1.2-.93,27.33-22.26,58-47.6,52.13-42.93,199.47-164.13,302.4-248.66,24.93-20.4,55.2-45.34,67.33-55.34,12.13-10,40.93-33.73,64-52.66,23.07-19.07,55.2-45.47,71.33-58.67,62.93-51.87,211.87-174.13,233.6-191.87l22.93-18.8.14-119.73c0-65.73-.27-119.6-.54-119.6s-5.86,4.4-12.4,9.73Z"/>
  <path class="cls-1" d="M2138.08,1210c-.4.67-40.8,34.13-89.73,74.4-48.93,40.27-109.6,90.13-134.93,110.93-25.33,20.8-57.33,47.2-71.33,58.67-13.87,11.47-62.53,51.47-108,88.8-45.47,37.33-121.2,99.6-168.27,138.4l-85.6,70.4,22.27,18.4c93.07,76.67,125.2,102.93,126.67,103.6.93.4,4.53-1.6,8-4.53,3.47-2.94,18.67-15.47,33.73-27.87,15.07-12.4,38.8-31.87,52.67-43.33,23.6-19.47,171.33-140.8,341.2-280.4,41.07-33.74,75.07-62,75.6-62.8,1.6-2,1.33-246-.13-246-.8,0-1.74.53-2.14,1.33Z"/>
</svg>