<?xml version="1.0" encoding="UTF-8"?>
<svg id="Layer_1" data-name="Layer 1" xmlns="http://www.w3.org/2000/svg" viewBox="0 0 1043 471">
  <defs>
    <style>
      .cls-1 {
        fill: #231f20;
      }

      .cls-1, .cls-2 {
        fill-rule: evenodd;
        stroke-width: 0px;
      }

      .cls-2 {
        fill: #ffda00;
      }
    </style>
  </defs>
  <polygon class="cls-1" points="521.77 182.18 521.77 352.25 360.58 191.06 445.62 105.95 521.77 182.18 521.77 182.18"/>
  <polygon class="cls-2" points="510.69 186.82 445.62 121.75 376.38 191.06 510.69 325.3 510.69 186.82 510.69 186.82"/>
  <polygon class="cls-1" points="353.35 200.42 357.28 204.43 513.83 360.9 355.79 360.9 274.37 279.4 353.35 200.42 353.35 200.42"/>
  <polygon class="cls-2" points="486.96 349.74 353.35 216.21 290.09 279.4 360.42 349.74 486.96 349.74 486.96 349.74"/>
  <polygon class="cls-1" points="445.62 43 437.52 67.99 411.43 67.99 432.57 83.4 424.48 108.31 445.62 92.83 466.76 108.31 458.58 83.4 479.8 67.99 453.63 67.99 445.62 43 445.62 43"/>
  <polygon class="cls-2" points="445.62 53.22 451.28 70.98 469.98 70.98 454.89 81.9 460.63 99.66 445.62 88.66 430.53 99.66 436.35 81.9 421.25 70.98 439.88 70.98 445.62 53.22 445.62 53.22"/>
  <polygon class="cls-1" points="532.38 182.18 532.38 352.25 693.65 191.06 608.54 105.95 532.38 182.18 532.38 182.18"/>
  <polygon class="cls-2" points="543.54 186.82 608.54 121.75 677.85 191.06 543.54 325.3 543.54 186.82 543.54 186.82"/>
  <polygon class="cls-1" points="540.32 360.9 698.44 360.9 779.86 279.4 704.81 204.43 700.88 200.42 696.87 204.43 540.32 360.9 540.32 360.9"/>
  <polygon class="cls-2" points="567.28 349.74 700.88 216.21 764.15 279.4 693.81 349.74 567.28 349.74 567.28 349.74"/>
  <polygon class="cls-1" points="608.61 43 616.63 67.99 642.8 67.99 621.66 83.4 629.75 108.31 608.61 92.83 587.47 108.31 595.57 83.4 574.43 67.99 600.6 67.99 608.61 43 608.61 43"/>
  <polygon class="cls-2" points="608.61 53.22 602.88 70.98 584.25 70.98 599.34 81.9 593.52 99.66 608.61 88.66 623.7 99.66 617.89 81.9 632.98 70.98 614.35 70.98 608.61 53.22 608.61 53.22"/>
  <path class="cls-1" d="M344.16,385.73h5.58c2.36,0,3.93.39,4.79,1.18.79.71,1.26,1.73,1.26,3.14,0,.94-.31,1.73-.79,2.44-.55.71-1.26,1.18-2.12,1.34-1.65.39-2.83.55-3.38.55h-5.34v-8.65h0ZM344.16,419.76v-17.29h1.1c1.18,0,2.2.31,3.14.94.63.55,1.41,1.65,2.28,3.3l6.84,13.05h14.46l-6.21-12.34c-.31-.63-.86-1.49-1.81-2.67-.86-1.18-1.57-1.89-2.04-2.2-.71-.55-1.81-1.1-3.3-1.57,1.89-.47,3.38-1.02,4.48-1.73,1.73-1.02,3.07-2.44,4.01-4.17,1.02-1.73,1.49-3.69,1.49-6.13,0-2.67-.63-4.95-1.89-6.84-1.34-1.89-2.99-3.22-5.11-3.85-2.04-.71-5.11-1.1-9.04-1.1h-21.3v42.6h12.89ZM378.5,419.76h12.81v-42.6h-12.81v42.6h0ZM427.23,408.53c-1.26,1.41-3.14,2.12-5.58,2.12s-4.48-.94-5.89-2.67c-1.34-1.73-2.04-4.95-2.04-9.67,0-3.85.55-6.6,1.73-8.41,1.57-2.44,3.77-3.62,6.68-3.62,1.26,0,2.44.32,3.46.79,1.02.55,1.89,1.34,2.59,2.36.47.63.87,1.57,1.26,2.83l11.32-2.59c-1.49-4.48-3.69-7.78-6.68-9.98-2.99-2.12-7.07-3.22-12.26-3.22-6.68,0-11.79,1.89-15.48,5.66-3.61,3.77-5.42,9.19-5.42,16.27,0,5.27,1.02,9.59,3.07,12.97,2.12,3.38,4.56,5.74,7.39,7.07,2.83,1.42,6.52,2.04,11,2.04,3.69,0,6.76-.55,9.19-1.65,2.36-1.1,4.4-2.75,6.05-4.87,1.57-2.2,2.75-4.87,3.54-8.09l-11.24-3.54c-.55,2.75-1.49,4.79-2.67,6.21h0ZM449.78,419.76h12.81v-42.6h-12.81v42.6h0ZM500.55,403.18c0,2.36-.63,4.16-1.89,5.42-1.26,1.34-2.99,1.96-5.19,1.96s-3.93-.71-5.19-1.96c-1.26-1.34-1.89-3.14-1.89-5.42v-26.01h-12.73v25.38c0,2.12.39,4.48,1.18,7.15.47,1.73,1.42,3.38,2.75,4.95,1.33,1.57,2.75,2.83,4.4,3.69,1.57.87,3.54,1.41,5.97,1.73,2.36.24,4.56.39,6.52.39,3.54,0,6.52-.47,8.96-1.41,1.81-.71,3.54-1.89,5.11-3.54,1.65-1.65,2.83-3.61,3.54-5.82.79-2.28,1.1-4.64,1.1-7.15v-25.38h-12.65v26.01h0ZM523.5,419.76h10.45v-32.46l8.09,32.46h9.43l8.1-32.46v32.46h10.45v-42.6h-16.82l-6.44,25.94-6.44-25.94h-16.82v42.6h0ZM593.76,403.5l4.48-15.33,4.64,15.33h-9.12ZM607.51,419.76h13.44l-15.56-42.6h-13.99l-15.48,42.6h13.05l1.97-7.07h14.62l1.96,7.07h0ZM648.07,419.76h34.9v-9.67h-22.08v-8.41h19.88v-8.65h-19.88v-6.76h21.45v-9.12h-34.27v42.6h0ZM691.29,419.76h11.79v-11.87h-11.79v11.87h0ZM737.74,408.53c-1.26,1.41-3.07,2.12-5.5,2.12s-4.48-.94-5.89-2.67c-1.42-1.73-2.12-4.95-2.12-9.67,0-3.85.63-6.6,1.81-8.41,1.49-2.44,3.77-3.62,6.6-3.62,1.34,0,2.44.32,3.54.79,1.02.55,1.89,1.34,2.59,2.36.39.63.86,1.57,1.26,2.83l11.24-2.59c-1.41-4.48-3.62-7.78-6.6-9.98-2.99-2.12-7.07-3.22-12.34-3.22-6.6,0-11.79,1.89-15.4,5.66-3.62,3.77-5.5,9.19-5.5,16.27,0,5.27,1.1,9.59,3.14,12.97,2.05,3.38,4.56,5.74,7.39,7.07,2.83,1.42,6.53,2.04,11,2.04,3.69,0,6.76-.55,9.11-1.65,2.44-1.1,4.4-2.75,6.05-4.87,1.65-2.2,2.83-4.87,3.54-8.09l-11.16-3.54c-.55,2.75-1.49,4.79-2.75,6.21h0ZM760.06,419.76h11.79v-11.87h-11.79v11.87h0ZM489,374.81h4.56l9.74-8.8h-9.98l-4.32,8.8h0ZM309.03,408.53c-1.18,1.41-3.06,2.12-5.5,2.12s-4.48-.94-5.89-2.67c-1.34-1.73-2.04-4.95-2.04-9.67,0-3.85.55-6.6,1.73-8.41,1.57-2.44,3.77-3.62,6.68-3.62,1.26,0,2.43.32,3.46.79,1.02.55,1.89,1.34,2.59,2.36.47.63.86,1.57,1.26,2.83l11.32-2.59c-1.49-4.48-3.69-7.78-6.68-9.98-2.99-2.12-7.07-3.22-12.26-3.22-6.68,0-11.79,1.89-15.48,5.66-3.62,3.77-5.42,9.19-5.42,16.27,0,5.27,1.02,9.59,3.06,12.97,2.12,3.38,4.56,5.74,7.39,7.07,2.83,1.42,6.52,2.04,11,2.04,3.69,0,6.76-.55,9.2-1.65,2.36-1.1,4.4-2.75,5.97-4.87,1.65-2.2,2.83-4.87,3.62-8.09l-11.24-3.54c-.55,2.75-1.49,4.79-2.75,6.21h0Z"/>
  <polygon class="cls-1" points="526.54 43.46 534.56 68.45 560.73 68.45 539.59 83.86 547.68 108.77 526.54 93.29 505.4 108.77 513.5 83.86 492.36 68.45 518.53 68.45 526.54 43.46 526.54 43.46"/>
  <polygon class="cls-2" points="526.74 53.41 521.01 71.17 502.38 71.17 517.47 82.1 511.65 99.86 526.74 88.86 541.83 99.86 536.02 82.1 551.11 71.17 532.48 71.17 526.74 53.41 526.74 53.41"/>
</svg>