<?xml version="1.0" encoding="UTF-8"?>
<svg id="Layer_1" data-name="Layer 1" xmlns="http://www.w3.org/2000/svg" viewBox="0 0 6969.13 3996.48">
  <defs>
    <style>
      .cls-1 {
        fill: #f2d303;
      }

      .cls-1, .cls-2, .cls-3, .cls-4, .cls-5, .cls-6, .cls-7, .cls-8, .cls-9, .cls-10, .cls-11, .cls-12, .cls-13, .cls-14, .cls-15, .cls-16, .cls-17, .cls-18, .cls-19, .cls-20, .cls-21, .cls-22, .cls-23, .cls-24, .cls-25, .cls-26, .cls-27, .cls-28, .cls-29, .cls-30, .cls-31, .cls-32, .cls-33 {
        fill-rule: evenodd;
        stroke-width: 0px;
      }

      .cls-2 {
        fill: #fcfdfd;
      }

      .cls-3 {
        fill: #f8d601;
      }

      .cls-4 {
        fill: #026535;
      }

      .cls-5 {
        fill: #bcba0e;
      }

      .cls-6 {
        fill: #f4d402;
      }

      .cls-7 {
        fill: #438d6a;
      }

      .cls-8 {
        fill: #578c25;
      }

      .cls-9 {
        fill: #f6d502;
      }

      .cls-10 {
        fill: #f5d502;
      }

      .cls-11 {
        fill: #056638;
      }

      .cls-12, .cls-18 {
        fill: #006536;
      }

      .cls-13 {
        fill: #096739;
      }

      .cls-14 {
        fill: #fbd700;
      }

      .cls-15 {
        fill: #fbfcfb;
      }

      .cls-16 {
        fill: #77ac93;
      }

      .cls-17 {
        fill: #0b6735;
      }

      .cls-18 {
        isolation: isolate;
        opacity: 1;
      }

      .cls-19 {
        fill: #f5f9f7;
      }

      .cls-20 {
        fill: #fafcfb;
      }

      .cls-21 {
        fill: #006535;
      }

      .cls-22 {
        fill: #004f27;
      }

      .cls-23 {
        fill: #036637;
      }

      .cls-24 {
        fill: #fdfefe;
      }

      .cls-25 {
        fill: #028844;
      }

      .cls-26 {
        fill: #0b683a;
      }

      .cls-27 {
        fill: #acb313;
      }

      .cls-28 {
        fill: #f5d402;
      }

      .cls-29 {
        fill: #81b39c;
      }

      .cls-30 {
        fill: #fefefe;
      }

      .cls-31 {
        fill: #bed8cc;
      }

      .cls-32 {
        fill: #76ac93;
      }

      .cls-33 {
        fill: #066635;
      }
    </style>
  </defs>
  <path class="cls-18" d="M3482.46,99.79c186.2,134.6,383.7,252.4,592.4,353.1,294.5,141.3,596,265.7,904.4,373.2,1.9.8,3.7,1.8,5.3,3.2-3.5,246-9.8,492-19,737.9-6.7,189.6-29.2,377.2-67.5,562.9-92.8,423.8-284.6,794.2-575.5,1111-193.6,207.1-409,386.6-646.2,538.7-63.2,40.3-127.1,79.3-191.8,117-276.1-156.9-528-346.6-755.8-569.2-418.1-421.1-654.2-929.2-708.4-1524.4-7.5-77.9-13.1-155.9-16.9-234-9.2-246.6-15.5-493.3-19-740,245.7-87.6,487.8-184.2,726.3-289.9,228.3-100.8,446.1-218.8,653.5-354.2,40.7-26.9,80.1-55.3,118.2-85.3h0Z"/>
  <path class="cls-14" d="M3750.16,1718.89c-87.4-413.3-175.2-826.5-263.5-1239.6.3-1.8-.4-3.3-2.1-4.2-89.9,414.3-178.4,829-265.6,1243.9h-963.5c-.7-262.1,0-524.2,2.1-786.4,262.1-95,517.9-205,767.4-329.9,126.1-65.5,247.7-137.9,364.7-217.1,30.8-21.7,61-44.2,90.7-67.5,2.8-1.4,5.6-1.4,8.4,0,139.1,105.4,286.7,198.2,442.7,278.3,253.9,128.4,514.6,240.5,782.2,336.3v786.4c-321.2-.2-642.3-.2-963.5-.2h0Z"/>
  <path class="cls-25" d="M3486.66,479.29c-2.1,412.9-2.8,826.1-2.1,1239.6h-265.6c87.2-414.9,175.7-829.5,265.6-1243.9,1.7,1,2.4,2.4,2.1,4.3h0Z"/>
  <path class="cls-22" d="M3486.66,479.29c88.3,413.1,176.1,826.3,263.5,1239.6h-265.6c-.7-413.5,0-826.8,2.1-1239.6Z"/>
  <path class="cls-2" d="M4355.26,1961.39c-17.2.7-34.1,0-50.6-2.1,19.4-32.1,39.1-64.1,59-95.9,18.3-1.4,36.5-1.4,54.8,0-20.8,32.9-41.9,65.6-63.2,98Z"/>
  <path class="cls-29" d="M4304.66,1959.29c16.5,2.1,33.4,2.8,50.6,2.1-17.2,2.8-34.8,2.8-52.7,0,.2-1.3,1-2,2.1-2.1h0Z"/>
  <path class="cls-24" d="M2778.26,2110.99h-84.3c.7-7.5,0-14.5-2.1-21.1-1.2-14.6-8.9-23.4-23.2-26.4-40.8-1.4-81.5-1.4-122.3,0-9.5,3.9-16.2,10.5-20,20-1.4,39.4-1.4,78.7,0,118.1,1.2,10.3,6.4,17.7,15.8,22.1,44.3,1.4,88.5,1.4,132.8,0,7.5-4,12.8-10,15.8-17.9,1.1-9.8,1.4-19.6,1.1-29.5h86.4c.3,19.7,0,39.4-1.1,59-4.8,28.7-20.6,48.7-47.4,60.1-77.2,3.5-154.5,4.2-231.9,2.1-26.4-6-44.3-21.8-53.8-47.4-2.4-36.4-3.5-73-3.2-109.6-.3-36,.7-71.8,3.2-107.5,9.5-25.3,27.4-41.1,53.8-47.4,73.8-1.4,147.6-1.4,221.4,0,30.5,8.1,49.9,27.4,58,58,1,22.5,1.4,44.9,1,67.4h0Z"/>
  <path class="cls-30" d="M2839.46,1984.59h86.4c-.4,82.2,0,164.4,1.1,246.7,4,10.3,11.4,17,22.1,20,41.5,1.4,82.9,1.4,124.4,0,9.2-2.1,15.8-7.4,20-15.8,3.1-83.5,4.2-167.2,3.2-250.9h84.3c.4,86.4,0,172.9-1.1,259.3-8.1,27.8-26.1,45.7-53.8,53.8-77.3,1.4-154.6,1.4-231.9,0-30.9-10.6-48.9-32-53.8-64.3-.9-83-1.3-165.9-.9-248.8h0ZM3244.26,1984.59h84.3v314.1h-84.3v-314.1h0Z"/>
  <path class="cls-24" d="M3448.76,1984.59c73.1-.4,146.2,0,219.3,1.1,31.7,7.1,51.7,26.4,60.1,58,1.1,85,1.4,170.1,1.1,255.1h-86.4v-132.8h-166.5v132.8h-84.3c-.4-85,0-170.1,1.1-255.1,7.9-29.8,26.6-49.5,55.6-59.1h0Z"/>
  <path class="cls-31" d="M4070.66,1986.69h-278.3v312c-2.1-104.4-2.8-209.1-2.1-314.1,93.8-.7,187.3,0,280.4,2.1h0Z"/>
  <path class="cls-30" d="M4070.66,1986.69c31.7,7.4,51,27.1,58,59,1.4,22.5,1.4,45,0,67.5-3.8,11.2-9.8,21-17.9,29.5,9.8,10.8,15.8,23.4,17.9,37.9,1.4,17.6,1.4,35.1,0,52.7-5.1,33.2-23.8,54.7-55.9,64.3-93.5,1.1-186.9,1.4-280.4,1.1v-312h278.3Z"/>
  <path class="cls-24" d="M4249.86,1984.59c73.8-.4,147.6,0,221.4,1.1,28.9,7.1,47.6,25.1,55.9,53.8,1.1,86.4,1.4,172.9,1.1,259.3h-84.3v-132.8h-166.5v132.8h-86.4c-.4-85,0-170.1,1.1-255.1,8.2-30.8,27.6-50.5,57.7-59.1Z"/>
  <path class="cls-12" d="M3642.66,2110.99h-164.4v-42.2c1.6-9.1,6.5-15.8,14.8-20,44.3-1.4,88.5-1.4,132.8,0,6.7,3.9,12,9.1,15.8,15.8,1,15.5,1.4,31,1,46.4h0Z"/>
  <path class="cls-13" d="M3893.56,2047.79c45.8-1,91.5.1,137,3.2,5.5,4.1,9.4,9.4,11.6,15.8,1.1,15.5,1.4,30.9,1.1,46.4h-166.5c-.4-15.5,0-30.9,1.1-46.4,3.3-8,8.6-14.4,15.7-19h0Z"/>
  <path class="cls-12" d="M4441.66,2068.89v42.2h-164.4c-.4-15.5,0-30.9,1.1-46.4,3.9-6.7,9.1-12,15.8-15.8,43.6-1.4,87.1-1.4,130.7,0,9.8,3.2,15.4,9.9,16.8,20h0Z"/>
  <path class="cls-31" d="M2691.86,2089.99c2.1,6.6,2.8,13.6,2.1,21.1h84.3c-28.4,2.1-57.3,2.8-86.4,2.1v-23.2h0Z"/>
  <path class="cls-16" d="M3478.26,2068.89v42.2h164.4c-55.2,2.1-110.7,2.8-166.5,2.1-.7-15.2,0-30,2.1-44.3h0Z"/>
  <path class="cls-32" d="M4441.66,2068.89c2.1,14.4,2.8,29.1,2.1,44.3-55.9.7-111.4,0-166.5-2.1h164.4v-42.2h0Z"/>
  <path class="cls-23" d="M3876.66,2172.19h166.5c.4,14.8,0,29.5-1.1,44.3-3.8,9.4-10.5,16.1-20,20-41.5,1.4-82.9,1.4-124.4,0-9.5-3.9-16.2-10.5-20-20-1-14.8-1.3-29.5-1-44.3Z"/>
  <path class="cls-10" d="M2478.96,2441.99c35.5,2.1,71.3,2.8,107.5,2.1v27.4h-107.5c-.6,7.6.1,15,2.1,22.1,35.8,1.1,71.7,1.4,107.5,1.1v29.5c-38,.4-75.9,0-113.8-1.1-8.7-3.8-15.3-9.7-20-17.9-2.4-15.7-3.4-31.5-3.2-47.4-.2-16.6.8-33.2,3.2-49.5,4-7.5,10-12.8,17.9-15.8,38.6-1.1,77.3-1.4,116-1.1v29.5h-109.6c-.1,7.1-.1,14.1-.1,21.1h0Z"/>
  <path class="cls-6" d="M2643.36,2391.39h116v29.5h-109.6c-.6,6.9.1,13.6,2.1,20l86.4,2.1c21.7,10.4,29.8,27.6,24.2,51.7-2.3,15.5-11.1,25-26.4,28.5-36.5,1.1-73.1,1.4-109.6,1.1v-29.5c36.4.7,72.5,0,108.6-2.1,1.7-6.9,1.3-13.6-1.1-20-30.2-.7-60.4-1.4-90.7-2.1-19.5-12.8-26.2-30.7-20-53.8,3.3-11.5,10-19.9,20.1-25.4h0Z"/>
  <path class="cls-3" d="M2824.66,2471.49c-2.1,16.5-2.8,33.4-2.1,50.6h-25.3v-130.7c39.4-.4,78.7,0,118.1,1.1,9.4,3.8,16.1,10.5,20,20,2.4,15.9,1,31.4-4.2,46.4-4.4,6.3-10.4,10.1-17.9,11.6-29.5,1-59,1.4-88.6,1h0Z"/>
  <path class="cls-9" d="M2993.36,2391.39c32.3-.4,64.7,0,97,1.1,9.5,3.9,16.2,10.5,20,20,1.4,29.5,1.4,59,0,88.5-3.8,10.8-11.2,18.2-22.1,22.1-30.2,1.4-60.4,1.4-90.7,0-13.2-4-21.2-12.8-24.2-26.4-1.4-27.4-1.4-54.8,0-82.2,3.4-10.7,10.1-18.4,20-23.1h0Z"/>
  <path class="cls-28" d="M3147.26,2391.39c39.4-.4,78.7,0,118.1,1.1,16.3,7.4,23.4,20,21.1,37.9.4,9.1-1,17.9-4.2,26.4,2.7,6.1,4.4,12.4,5.3,19,1.4,15.5,1.4,30.9,0,46.4-8.6,2-17.4,2.7-26.4,2.1.7-17.4,0-34.6-2.1-51.7-28.1-1.1-56.2-1.4-84.3-1.1.4,16.9,0,33.8-1.1,50.6-8.6,2-17.4,2.7-26.4,2.1v-132.8Z"/>
  <path class="cls-10" d="M3404.46,2522.09h-25.3v-103.3h-56.9v-27.4h139.1v29.5h-54.8c.7,34.2,0,67.9-2.1,101.2ZM3524.66,2441.99c35.5,2.1,71.3,2.8,107.5,2.1v27.4h-107.5c-.6,7.6.1,15,2.1,22.1,35.8,1.1,71.7,1.4,107.5,1.1v29.5c-37.9.4-75.9,0-113.8-1.1-10.2-4.6-17.6-12-22.1-22.1-1.4-28.8-1.4-57.6,0-86.4,3-10.7,9.6-18.1,20-22.1,38.6-1.1,77.3-1.4,116-1.1v29.5h-109.6c-.1,7.1-.1,14.1-.1,21.1Z"/>
  <path class="cls-1" d="M3729.16,2391.39h116v29.5h-109.6c-.7,24.4,0,48.7,2.1,72.7,35.8,1.1,71.7,1.4,107.5,1.1v29.5c-37.9.4-75.9,0-113.8-1.1-12-5-19.4-13.8-22.1-26.4-1.4-27.4-1.4-54.8,0-82.2,3.3-10.7,9.9-18.4,19.9-23.1ZM3878.76,2391.39h27.4c-.4,33.7,0,67.5,1.1,101.2,33.9,2.1,68,2.8,102.2,2.1v29.5c-35.1.4-70.3,0-105.4-1.1-14.2-4.3-22.2-13.8-24.2-28.5-1.1-34.3-1.4-68.7-1.1-103.2Z"/>
  <path class="cls-6" d="M4047.46,2391.39h27.4c-.4,33.7,0,67.5,1.1,101.2,13.9,1.4,28,2.1,42.2,2.1s28.3-.7,42.2-2.1c1.1-33.7,1.4-67.5,1.1-101.2h27.4c.4,35.1,0,70.3-1.1,105.4-3,13.5-11,22.3-24.2,26.4-30.2,1.4-60.4,1.4-90.7,0-13.1-4.1-21.2-12.9-24.2-26.4-1.2-35.1-1.6-70.2-1.2-105.4Z"/>
  <path class="cls-28" d="M4222.46,2391.39c39.4-.4,78.7,0,118.1,1.1,17.8,7.8,25.5,21.5,23.2,41.1,1.1,9.1-1,17.2-6.3,24.2,6,12.3,7.8,25.3,5.3,39-3.2,14.4-12,23.2-26.4,26.4-37.9,1.1-75.9,1.4-113.8,1.1-.1-44.3-.1-88.6-.1-132.9h0Z"/>
  <path class="cls-6" d="M4418.46,2391.39h116v29.5h-109.6v21.1h109.6v29.5h-109.6c-.6,7.6.1,15,2.1,22.1,35.8,1.1,71.7,1.4,107.5,1.1v29.5c-37.3.4-74.5,0-111.7-1.1-12.2-3.8-20.3-11.9-24.2-24.2-1.4-27.4-1.4-54.8,0-82.2,3.9-10.6,10.6-19,19.9-25.3h0Z"/>
  <path class="cls-21" d="M2824.66,2420.99c28.1-.4,56.2,0,84.3,1.1,2.8,6.3,2.8,12.6,0,19-28.1,1.1-56.2,1.4-84.3,1.1v-21.2h0Z"/>
  <path class="cls-33" d="M2999.66,2420.99c28.1-.4,56.2,0,84.3,1.1,2.4,23.4,2.8,46.9,1.1,70.6-27.6,2.4-55.4,2.8-83.3,1.1-2.1-24.2-2.8-48.4-2.1-72.8h0Z"/>
  <path class="cls-4" d="M3174.66,2420.99c28.1-.4,56.2,0,84.3,1.1,2.8,6.3,2.8,12.6,0,19-28.1,1.1-56.2,1.4-84.3,1.1v-21.2h0Z"/>
  <path class="cls-8" d="M3322.26,2418.79h56.9v103.3h25.3c-8.7,2.1-17.9,2.8-27.4,2.1v-103.3c-18.7.7-36.9,0-54.8-2.1Z"/>
  <path class="cls-21" d="M4249.86,2420.99h86.4v21.1h-86.4v-21.1Z"/>
  <path class="cls-5" d="M2478.96,2441.99h109.6c.7,10.2,0,20.1-2.1,29.5v-27.4c-36.2.7-72.1,0-107.5-2.1h0ZM3524.66,2441.99h109.6c.7,10.2,0,20.1-2.1,29.5v-27.4c-36.2.7-72.1,0-107.5-2.1Z"/>
  <path class="cls-27" d="M2824.66,2471.49v52.7c-9.6.7-18.7,0-27.4-2.1h25.3c-.7-17.2,0-34.1,2.1-50.6h0Z"/>
  <path class="cls-17" d="M4249.86,2471.49c28.1-.4,56.2,0,84.3,1.1,2.8,7,2.8,14.1,0,21.1-28.1,1.1-56.2,1.4-84.3,1.1v-23.3h0Z"/>
  <path class="cls-15" d="M3301.16,3226.29c-1.1.1-1.8.8-2.1,2.1,20.3,2.1,40.7,2.8,61.1,2.1v27.4h-107.5v-6.3c2-14.5,8-27.2,17.9-37.9,20.5-19.1,39.5-39.5,56.9-61.1,4.8-27.6-6.1-37.1-32.7-28.5-5.1,5.7-7.9,12.4-8.4,20-10.6.3-21.2-.4-31.6-2.1,1.3-24.9,14-40.7,37.9-47.4,28.8-6.8,50.9,2,66.4,26.4,5,16,3.6,31.5-4.2,46.4-4.8,8.3-10.4,16-16.9,23.2-13.3,10.8-25.6,22.7-36.8,35.7h0Z"/>
  <path class="cls-20" d="M3421.36,3093.49c40.4-3.9,62.5,14.4,66.4,54.8,1.4,19.7,1.4,39.4,0,59-8.8,48.5-35.8,63.6-81.2,45.3-13.8-11.9-21.2-27-22.1-45.3-2.4-27-1-53.7,4.2-80.1,5.7-16.6,16.6-27.8,32.7-33.7ZM3547.76,3093.49c30.2-5.5,50.9,5.8,62.2,33.7,11.6,38.8,9.5,76.8-6.3,113.8-24.7,26.1-50.7,27.5-78,4.2-8.8-14.1-13.7-29.6-14.8-46.4-4.6-30.3-.4-59.1,12.6-86.4,6.8-8.4,14.8-14.7,24.3-18.9h0Z"/>
  <path class="cls-19" d="M3691.16,3093.49h27.4v164.4h-33.7c.4-38.7,0-77.3-1.1-116-11.4,10.1-24.3,17.1-39,21.1v-29.5c22-5.8,37.5-19.2,46.4-40h0Z"/>
  <path class="cls-11" d="M3427.66,3120.89c15.5-3.2,24.3,3.2,26.4,19,1.4,22.5,1.4,45,0,67.5-1.1,6.4-2.6,12.7-4.2,19-9.3,11-18.4,11-27.4,0-1.7-4.8-3.1-9.7-4.2-14.8-1.4-24.6-1.4-49.2,0-73.8,1.4-6.7,4.6-12.3,9.4-16.9h0Z"/>
  <path class="cls-26" d="M3554.16,3120.89c19.2-1.6,28.7,7.6,28.5,27.4,1.4,19,1.4,37.9,0,56.9-1.5,8.9-4.3,17.3-8.4,25.3-8.3,5.9-16,5.2-23.2-2.1-3-6-5.1-12.4-6.3-19-1.4-21.1-1.4-42.2,0-63.2,1.1-9.3,4.3-17.7,9.4-25.3h0Z"/>
  <path class="cls-31" d="M3301.16,3226.29c20,2.1,40.4,2.8,61.1,2.1v29.5h-2.1v-27.4c-20.4.7-40.8,0-61.1-2.1.2-1.3.9-2,2.1-2.1Z"/>
  <path class="cls-7" d="M3252.66,3251.59v6.3h109.6c-36.9,2.1-74.1,2.8-111.7,2.1-.6-3.3.1-6.2,2.1-8.4h0Z"/>
</svg>