<?xml version="1.0" encoding="UTF-8"?>
<svg id="Layer_1" data-name="Layer 1" xmlns="http://www.w3.org/2000/svg" viewBox="0 0 148.2 75.44">
  <defs>
    <style>
      .cls-1 {
        fill: #00613c;
      }

      .cls-1, .cls-2, .cls-3, .cls-4 {
        stroke-width: 0px;
      }

      .cls-2 {
        fill: #8e0927;
        fill-rule: evenodd;
      }

      .cls-3 {
        fill: #870a28;
      }

      .cls-4 {
        fill: #fff;
      }
    </style>
  </defs>
  <g id="escudo_fluminense" data-name="escudo fluminense">
    <g id="fluminense">
      <g id="g10">
        <g id="g12">
          <g id="g3081">
            <path id="path14" class="cls-4" d="M73.64,6.72c-6.96,8.63-15.96,12-26.91,9.88-.25,28.25,12.78,41.6,26.92,52.35,13.99-10.61,27.26-24.18,26.89-52.33-11.38,2.11-19.87-1.16-26.9-9.9Z"/>
            <path id="path16_Stroke_" data-name="path16 (Stroke)" class="cls-2" d="M73.65,69.25l.15-.11c7-5.31,13.84-11.38,18.89-19.65,5.05-8.28,8.28-18.75,8.1-32.87v-.29s-.28.05-.28.05c-5.66,1.05-10.58.76-14.95-.87-4.37-1.63-8.22-4.6-11.71-8.94l-.19-.23-.19.23c-3.46,4.29-7.41,7.26-11.86,8.9-4.44,1.64-9.38,1.95-14.82.89l-.28-.06v.29c-.13,14.17,3.08,24.61,8.1,32.87,5.02,8.25,11.84,14.3,18.91,19.67l.15.11ZM73.65,68.64c-7.01-5.34-13.71-11.31-18.65-19.43-4.93-8.11-8.11-18.38-8.03-32.32,5.4,1.01,10.34.68,14.8-.97,4.45-1.64,8.41-4.6,11.88-8.82,3.49,4.27,7.34,7.22,11.73,8.86,4.4,1.64,9.32,1.95,14.93.94.14,13.89-3.07,24.19-8.03,32.33-4.96,8.14-11.69,14.14-18.62,19.41Z"/>
            <path id="path18" class="cls-1" d="M94.55,38.41c-3.08,8.45-9.17,17.24-20.92,26.79-11.6-9.5-17.69-18.36-20.8-26.79h41.72Z"/>
            <path id="path20" class="cls-3" d="M49.76,20.06c14.27.15,18.38-2.73,23.88-8.84,5.94,5.93,9.88,9.02,23.88,8.84-.06,5.61-.6,11.23-2.51,17h-42.66c-1.95-5.83-2.53-11.47-2.59-17Z"/>
            <path id="path22" class="cls-4" d="M66.93,21.3c.47.15,1.43-.17,1.95.83.26.5.72,1.06.87,2.12l2.95-.46c-.32-1.16-.09-1.19-.38-2.1,1.83-.17,3.6-.57,5.25-1.44.81.68,1.53,1.25,2.49,1.64-3.67,2.05-3.29,3.71-3.02,4.79l1.44,1.71c-.06-3.59,2.25-5.87,5.12-6.57-1.96-1.06-3.86-2.26-5.65-3.68-3.27,1.15-7.3,2.45-9,1.18l-2.04,1.98Z"/>
            <path id="path24" class="cls-4" d="M63.98,29.65c0,.11,2.47-1.25,3.08-.96l-.23-1.41c2.9-1.3,5.86-1.85,9.88-1.18.03-.63,0-1.11.29-1.74-1.34-.24-2.67-.29-4.03-.4-.95.09-2.35.24-3.38.56-1.03.32-2.14.76-3.08.86-.95.09-1.4-.21-2.26-.42-.71.82-1.13,1.18-2.2,2.13.87-.2,2.17.11,1.98,2.1l-.05.45Z"/>
            <path id="path26" class="cls-4" d="M79.58,24.81c2.82,1.05,2.9.06,4.11-.04l.72,1.4c-3.73,1.11-5.48,5.55-2.74,8.08-2.67.52-4.25-2.8-2.12-6.85.12-.24-.01-.61.13-.85l-.79-.21c.14-.61.42-.96.69-1.54Z"/>
            <path id="path28" class="cls-4" d="M81.23,28.89c-.31.48-.58,1.13-.62,1.85,1.45.5,2.28,1.32,2.85,3.25.01.06.04.11.06.17.73,1.89,4.37,1.94,5,1.3.16-.73-.06-1.19-.72-1.37-.76,0-.68.77-1.37.58-.86-.3-1.33-.68-1.53-1.39-.31-1.07.3-2.23,1.94-2.62l-.82-1.13c-1.62.1-3.26.1-4.79-.64Z"/>
            <path id="path30" class="cls-4" d="M79,28.24l-.37-.1-.07.34-.17.07-.48-.58c-1.62-.19-3.24-.21-4.87-.04l-.1,1.88c1.92-.15,3.78-.07,5.51.24.14-.65.26-1.25.55-1.82Z"/>
            <path id="path32" class="cls-4" d="M69.63,26.66l-.13,9.45,2.75-.14.13-1.51,2.03-.13.33.33c-1.44,3.97-.61,6.38,2.49,7.22l.06-.4c-2.06-1.44-2.36-5.1.33-7.02l-.86-1.7c-1.6-.42-3.13.73-4.4-.13l.46-6.5c-1,.09-2.08.04-3.21.52Z"/>
            <path id="path34" class="cls-4" d="M66.15,44.51l-.33,2.49c3.73.81,7.82.99,12.6-.65,2.43-.83,4.79-1.72,7.28-1.32-.47-.72,1.86-5.12,3.87-2.56l1.11.06c-.5-1.01-.48-1.55,1.05-2.43-1.68-.19-2.91-.06-4.07-.98-5.1,4.77-12.93,7.18-21.52,5.38Z"/>
            <path id="path36" class="cls-4" d="M76.45,36.24c-.42.74-.63,1.19-.52,1.93,1.07.1,2.01.63,2.43,1.41l.04-3.48-1.94.14Z"/>
            <path id="path38" class="cls-4" d="M69.57,38.32l-.3,6.45c1.01.15,1.8.19,2.72.17l.19-6.63h-2.62Z"/>
            <path id="path40" class="cls-4" d="M69.2,47.69c1.15.14,2.14.09,3.02.13.24,3.92,1.72,5.51,5,6.55.66.21,1.47.43,1.95.73-7.83.73-7.81-4.31-11.31-.46l-.96-1.34c1.18-1.11,1.87-3.27,2.3-5.61Z"/>
            <path id="path42" class="cls-4" d="M69.25,28.49c-4.74.46-9.07,3.15-12.78,9.07-.29.42-.87,1.06-.98,1.19.48.09.84.46,1.06.67,1.92,3.48,4.03,5.49,6.2,6.63.31-.81.37-1.62.49-2.44-1.35-.6-4.28-3.25-4-6.15,1.4-3.69,5.87-6.89,10-6.83v-2.15Z"/>
            <path id="path44" class="cls-4" d="M64.14,32.62c.83-.73,1.73-1.24,2.77-1.34l.1,5.41c2.24-.54,4.72-.58,6.96-.44l-.19,1.75c-2.29.05-4.83.05-7.17.83-.36,3.51-.67,6.88-1.7,10.24,1.71.57,2.57,1.32,2.98,2.15l-.78,1.47c-1.09-1.5-2.16-2.3-4.2-1.95l-.98-.88c2.14-4.12,1.9-12.1,2.2-17.24Z"/>
            <path id="path46" class="cls-4" d="M68.08,54.63c.22-.07.88,1.17,2,1.49.06.05.78-.03.42-.17s-1.05-1.07-1.47-2.17c0,0-1.16.93-.95.86Z"/>
          </g>
        </g>
      </g>
    </g>
  </g>
</svg>