<?xml version="1.0" encoding="UTF-8"?>
<svg id="Layer_1" data-name="Layer 1" xmlns="http://www.w3.org/2000/svg" xmlns:xlink="http://www.w3.org/1999/xlink" viewBox="0 0 146.6 72.7">
  <defs>
    <style>
      .cls-1, .cls-2, .cls-3, .cls-4, .cls-5 {
        stroke-width: 0px;
      }

      .cls-1, .cls-5 {
        fill: #1e3d8e;
      }

      .cls-2 {
        fill: none;
      }

      .cls-3, .cls-4 {
        fill: #fff;
      }

      .cls-4, .cls-5 {
        fill-rule: evenodd;
      }

      .cls-6 {
        clip-path: url(#clippath);
      }
    </style>
    <clipPath id="clippath">
      <rect class="cls-2" x="41.3" y="4.4" width="64" height="64"/>
    </clipPath>
  </defs>
  <g id="escudo_cruzeiro" data-name="escudo cruzeiro">
    <g class="cls-6">
      <g id="cruzeiro">
        <path id="Vector" class="cls-3" d="M105,36.4c0,17.5-14.2,31.7-31.7,31.7s-31.7-14.2-31.7-31.7,14.2-31.8,31.7-31.8,31.7,14.2,31.7,31.8Z"/>
        <path id="Vector_2" data-name="Vector 2" class="cls-5" d="M95.2,14.6c-2.9-2.9-6.3-5.2-10-6.7s-7.8-2.4-11.8-2.4c-8.2,0-16.1,3.2-21.9,9-5.8,5.8-9.1,13.6-9.1,21.8s3.3,16,9.1,21.8,13.7,9,21.9,9,16.1-3.3,21.9-9c5.8-5.8,9.1-13.6,9.1-21.8,0-4.1-.8-8.1-2.4-11.8-1.6-3.7-3.9-7.1-6.8-9.9ZM103.4,36.4c0,8-3.2,15.6-8.8,21.2s-13.3,8.8-21.2,8.8-15.6-3.2-21.2-8.8c-5.6-5.6-8.8-13.2-8.8-21.2s3.2-15.6,8.8-21.2,13.3-8.8,21.2-8.8,15.6,3.2,21.2,8.8c5.6,5.6,8.7,13.2,8.8,21.2Z"/>
        <path id="Vector_3" data-name="Vector 3" class="cls-5" d="M73.3,14.7c-11.9,0-21.6,9.7-21.6,21.7s9.7,21.6,21.6,21.6,21.6-9.7,21.6-21.7-9.7-21.6-21.6-21.6Z"/>
        <path id="Vector_4" data-name="Vector 4" class="cls-4" d="M73.8,47.2l.8,2.6h2.7l-2.2,1.6.8,2.6-2.2-1.6-2.1,1.6.8-2.6-2.2-1.6h2.8l.8-2.6Z"/>
        <path id="Vector_5" data-name="Vector 5" class="cls-4" d="M85.5,29.1l.8,2.6h2.7l-2.2,1.6.8,2.6-2.2-1.6-2.2,1.6.8-2.6-2.2-1.6h2.7l1-2.6Z"/>
        <path id="Vector_6" data-name="Vector 6" class="cls-4" d="M76.8,34.3l.6,1.9h2l-1.6,1.2.6,1.9-1.6-1.2-1.6,1.2.6-1.9-1.6-1.2h2l.6-1.9Z"/>
        <path id="Vector_7" data-name="Vector 7" class="cls-4" d="M73.3,18.3l.8,2.6h2.7l-2.2,1.6.8,2.6-2.2-1.6-2.2,1.6.8-2.6-2.2-1.6h2.7l1-2.6Z"/>
        <path id="Vector_8" data-name="Vector 8" class="cls-4" d="M61.5,28.9l.8,2.6h2.7l-2.2,1.6.8,2.6-2.2-1.6-2.2,1.6.8-2.6-2.2-1.6h2.7l1-2.6Z"/>
        <path id="Vector_9" data-name="Vector 9" class="cls-1" d="M51.9,20.7c-.2-.1-.8-.3-1.3.3-.5.7.1,1.4.7,1.9.7.5,1.5.7,2,0,.3-.5.1-1-.3-1.4l1-1.5c1,.7,1.5,2.2.5,3.6-1.1,1.6-2.8,1.8-4.3.8-1.6-1.1-1.9-2.7-.9-4.3.9-1.4,2.1-1.6,3.5-.9l-.9,1.5Z"/>
        <path id="Vector_10" data-name="Vector 10" class="cls-1" d="M53.3,15.5l2.7-2.2c.8-.7,1.9-.8,2.6.1.4.5.6,1.2.2,1.7.5-.2,1.1.1,1.6.6.2.2.7.8,1,.9l-1.4,1.2c-.3-.2-.5-.4-.7-.6-.4-.4-.8-.8-1.4-.4l-.8.6,1.3,1.6-1.4,1.2-3.7-4.7ZM56.4,16.4l.8-.6c.3-.2.6-.6.3-1-.2-.3-.5-.3-1.1.1l-.7.5.7,1Z"/>
        <path id="Vector_11" data-name="Vector 11" class="cls-1" d="M66.8,11.9c.6,1.5.1,2.6-1.6,3.3-1.7.7-2.8.3-3.4-1.3l-1.3-3.4,1.7-.7,1.2,3c.2.6.5,1.3,1.3,1,.8-.3.5-1,.3-1.6l-1.2-3,1.7-.7,1.3,3.4Z"/>
        <path id="Vector_12" data-name="Vector 12" class="cls-1" d="M68.9,12.4l2.6-3.2-2.6.2-.1-1.5,5-.4.1,1.3-2.6,3.3,2.9-.2.1,1.5-5.3.4-.1-1.4Z"/>
        <path id="Vector_13" data-name="Vector 13" class="cls-1" d="M77,7.7l4.8,1.1-.3,1.5-3-.7-.2.7,2.8.6-.3,1.4-2.8-.6-.2.7,3.1.7-.3,1.5-4.9-1.1,1.3-5.8Z"/>
        <path id="Vector_14" data-name="Vector 14" class="cls-1" d="M84.6,9.9l1.7.8-2.5,5.4-1.8-.8,2.6-5.4Z"/>
        <path id="Vector_15" data-name="Vector 15" class="cls-1" d="M88.9,12.1l2.8,2.2c.8.6,1.2,1.7.5,2.5-.4.5-1,.8-1.6.6.3.5.2,1.1-.2,1.7-.2.2-.6.8-.6,1.1l-1.4-1.1c.1-.3.3-.6.4-.8.3-.5.6-1,.1-1.4l-.8-.6-1.3,1.6-1.4-1.1,3.5-4.7ZM88.7,15.2l.8.6c.3.2.7.5,1,0,.2-.3.2-.6-.3-1l-.7-.5-.8.9Z"/>
        <path id="Vector_16" data-name="Vector 16" class="cls-1" d="M97.1,20.1c1,1.5.6,3.2-.9,4.3-1.5,1-3.3.8-4.3-.7s-.6-3.2.9-4.3c1.6-1.1,3.3-.8,4.3.7ZM93.2,22.8c.3.4.9.8,2,.1,1.1-.7,1-1.5.7-1.9s-.9-.8-2-.1c-1.1.7-1,1.5-.7,1.9h0Z"/>
        <path id="Vector_17" data-name="Vector 17" class="cls-1" d="M96.2,37.1l-.4-4.9,1.5-.1.2,3.1.7-.1-.2-2.8,1.4-.1.2,2.8.7-.1-.2-3.2,1.5-.1.4,5-5.8.5Z"/>
        <path id="Vector_18" data-name="Vector 18" class="cls-1" d="M95,43.8l.7-3.2c.3-1.5,1.3-1.7,1.9-1.6.6.1.8.5,1,1,.3-.5.8-.9,1.7-.7,1.2.3,1.6,1.4,1.3,2.4l-.7,3.3-5.9-1.2ZM97.7,42.4l.2-.9c.1-.4,0-.6-.4-.7-.3-.1-.5.2-.5.5l-.2.9.9.2ZM99.9,42.9l.2-1.1c.1-.4,0-.7-.4-.8-.3-.1-.6.1-.7.5l-.2,1.1,1.1.3Z"/>
        <path id="Vector_19" data-name="Vector 19" class="cls-1" d="M97.7,47c1.4.8,1.7,2,.8,3.6-.9,1.6-2,2-3.5,1.2l-3.2-1.8.9-1.6,2.8,1.6c.5.3,1.2.7,1.6-.1s-.2-1.1-.8-1.4l-2.8-1.6.9-1.6,3.3,1.7Z"/>
        <path id="Vector_20" data-name="Vector 20" class="cls-1" d="M87.8,54.1l1.3-1.3,3.1,3.1,1.9-1.9,1.1,1.1-3.2,3.3-4.2-4.3Z"/>
        <path id="Vector_21" data-name="Vector 21" class="cls-1" d="M86.3,57.9c-.1-.2-.6-.7-1.3-.3-.8.4-.6,1.3-.2,2s1,1.3,1.8.9c.5-.3.5-.8.4-1.3l1.6-.9c.6,1.1.3,2.6-1.2,3.5-1.7.9-3.3.3-4.2-1.3-.9-1.6-.5-3.3,1.1-4.2,1.4-.8,2.6-.5,3.5.8l-1.5.8Z"/>
        <path id="Vector_22" data-name="Vector 22" class="cls-1" d="M72.2,59.4l4.9-.3.1,1.5-3.1.2v.7l2.8-.2.1,1.4-2.7.3v.7l3.2-.2.1,1.5-5,.3-.4-5.9Z"/>
        <path id="Vector_23" data-name="Vector 23" class="cls-1" d="M67.2,60l-1.6-.4.3-1.5,5.1,1.1-.3,1.5-1.7-.3-1,4.3-1.8-.4,1-4.3Z"/>
        <path id="Vector_24" data-name="Vector 24" class="cls-1" d="M60.1,55.2l3.1,1.7c.9.5,1.4,1.4.9,2.4-.3.5-.9,1-1.5.9.3.4.4,1,.1,1.7-.1.3-.5.9-.4,1.2l-1.6-.9c.1-.3.2-.6.3-.9.2-.5.5-1.1-.2-1.4l-.9-.5-1,1.8-1.6-.9,2.8-5.1ZM60.5,58.4l.8.5c.3.2.7.3,1-.1.2-.3.1-.6-.5-1l-.8-.4-.5,1Z"/>
        <path id="Vector_25" data-name="Vector 25" class="cls-1" d="M57,52.2c1.3,1.3,1.2,3.1-.2,4.4-1.3,1.3-3.1,1.3-4.4,0-1.3-1.3-1.2-3.1.2-4.4,1.4-1.3,3.1-1.4,4.4,0ZM53.6,55.5c.3.3,1,.6,2-.3s.7-1.7.4-2-1-.6-2,.3c-1,.9-.8,1.6-.4,2Z"/>
        <path id="Vector_26" data-name="Vector 26" class="cls-1" d="M51.8,44.5l1.4,2.7c.7,1.4-.1,2.5-.8,2.9-1.3.7-2.3.1-3-1.1l-.4-1-1.6.8-.8-1.6,5.2-2.7ZM50.2,47.4l.3.6c.2.4.5.9,1,.6.5-.2.3-.6.1-1l-.4-.7-1,.5Z"/>
        <path id="Vector_27" data-name="Vector 27" class="cls-1" d="M46.9,40.7c-.1,0-.3.1-.4.1-.3.2-.3.6-.3.9.1.3.2.7.7.6.3-.1.3-.3.4-1.4.1-1,.1-2.1,1.3-2.3,1.4-.3,2.2.8,2.4,2,.2,1.3,0,2.5-1.4,2.8l-.3-1.7c.1,0,.2,0,.3-.1l.2-.2c.1-.2.1-.4,0-.6,0-.2-.2-.6-.5-.6-.4.1-.3,1-.4,1.8-.1.9-.3,1.8-1.4,2-1.5.3-2.3-1-2.5-2.3-.1-.7-.3-2.6,1.6-3l.3,2Z"/>
        <path id="Vector_28" data-name="Vector 28" class="cls-1" d="M50.8,32l-.4,5-1.5-.1.3-3.1-.7-.1-.2,2.8-1.4-.1.2-2.8-.7-.1-.3,3.2-1.5-.1.4-5,5.8.4Z"/>
      </g>
    </g>
  </g>
</svg>