<?xml version="1.0" encoding="UTF-8"?>
<svg id="Layer_1" data-name="Layer 1" xmlns="http://www.w3.org/2000/svg" xmlns:xlink="http://www.w3.org/1999/xlink" viewBox="0 0 164.64 81.67">
  <defs>
    <style>
      .cls-1, .cls-2, .cls-3, .cls-4, .cls-5 {
        stroke-width: 0px;
      }

      .cls-2 {
        fill: none;
      }

      .cls-3 {
        fill: #e2231a;
      }

      .cls-4 {
        fill: #fff;
      }

      .cls-6 {
        clip-path: url(#clippath);
      }

      .cls-5 {
        fill: #ffa400;
      }
    </style>
    <clipPath id="clippath">
      <rect class="cls-2" x="57.32" y="8.83" width="50.65" height="64"/>
    </clipPath>
  </defs>
  <g id="escudo_vasco" data-name="escudo vasco">
    <g class="cls-6">
      <g id="vasco">
        <g id="Layer_2" data-name="Layer 2">
          <g id="Camada_1" data-name="Camada 1">
            <path id="Vector" class="cls-1" d="M107.97,35.71v-12.69l-.78.22c-.07.02-7.02,1.98-9.94-1.08-3.36-3.51-.63-10.17-.61-10.24l.23-.56-.57-.23c-2.02-.75-4.1-1.3-6.22-1.64-2.46-.4-4.94-.61-7.42-.63-2.49.02-4.98.23-7.44.63-2.12.34-4.21.89-6.22,1.64l-.57.23.24.57c.03.07,2.76,6.73-.61,10.24-2.93,3.06-9.88,1.1-9.94,1.08l-.79-.22v12.69c0,.53-.12,13.03,6.44,22.21,8.59,12.03,18.32,14.77,18.72,14.88l.16.04.16-.04c.41-.11,10.13-2.85,18.72-14.88,6.56-9.19,6.45-21.69,6.44-22.2"/>
            <path id="Vector_2" data-name="Vector 2" class="cls-4" d="M106.75,24.61c-2.05.46-7.56,1.35-10.39-1.61-1.64-1.72-2.29-4.27-1.91-7.4.16-1.22.44-2.41.83-3.57-1.76-.6-3.57-1.06-5.4-1.37-2.39-.38-4.8-.59-7.22-.61-2.42.03-4.84.23-7.23.61-1.84.31-3.65.77-5.42,1.37.4,1.16.68,2.36.84,3.57.39,3.12-.27,5.68-1.91,7.39-2.83,2.95-8.35,2.07-10.39,1.62v11.11c0,.13-.11,12.64,6.21,21.5,4.36,6.1,9.06,9.7,12.24,11.64,2.91,1.79,5.08,2.53,5.67,2.71.59-.19,2.79-.94,5.71-2.74,3.16-1.95,7.83-5.54,12.18-11.62,6.33-8.86,6.21-21.36,6.21-21.49v-11.1ZM60.13,35.74v-9.24c2.88.39,7.26.39,9.94-2.41,3.18-3.32,2.59-8.19,1.89-11.02,1.23-.35,2.47-.63,3.73-.84,2.3-.37,4.63-.56,6.96-.59,2.33.03,4.65.22,6.96.59,1.25.21,2.5.5,3.72.85-.43,1.73-.82,4.22-.32,6.66l-30.26,30.26c-2.67-7.1-2.61-14.17-2.61-14.26ZM99.25,56.28c-6.8,9.52-14.48,12.84-16.61,13.62-1.69-.6-6.86-2.79-12.34-8.48l34.87-34.88v9.2c0,.12.09,12.13-5.92,20.55"/>
            <path id="Vector_3" data-name="Vector 3" class="cls-4" d="M92.66,39.82v-.08h-.01v.08Z"/>
            <path id="Vector_4" data-name="Vector 4" class="cls-4" d="M72.14,47.86l.03-.02h-.02"/>
            <path id="Vector_5" data-name="Vector 5" class="cls-4" d="M80.19,64.36c-.65-.49-.99-1.14-.99-1.81,0-.36.1-.72.29-1.03l-.51-1.2c-.58.6-.9,1.39-.91,2.22,0,1.03.51,1.99,1.43,2.7.58.44,1.24.74,1.95.9l-.59-1.39c-.24-.11-.46-.25-.67-.4Z"/>
            <path id="Vector_6" data-name="Vector 6" class="cls-4" d="M85.58,58.01l-.28.66c.36.1.72.22,1.07.37l.46-1.1c.12-.3.34-.55.63-.7h-2.04c.1.09.17.21.2.34.03.13.02.27-.04.4,0,0,0,.02,0,.03Z"/>
            <path id="Vector_7" data-name="Vector 7" class="cls-4" d="M84.34,63.85h-1.22l-.46,1.09-2.94-6.94v-.02c-.05-.13-.07-.26-.04-.4.03-.13.1-.25.2-.34h-2.05c.29.15.51.4.63.7l4.18,9.89,1.69-3.99Z"/>
            <path id="Vector_8" data-name="Vector 8" class="cls-4" d="M86.19,59.46c-.35-.15-.7-.27-1.07-.37-.14-.04-.29-.07-.44-.11-.63-.13-1.27-.19-1.91-.19h-.05c-.69,0-1.38.13-2.02.38l.43,1.04c.52-.2,1.08-.29,1.64-.29h.03c.48,0,.96.04,1.43.13.15.03.3.06.45.09.37.09.73.2,1.08.35.06.03.19.08.19.09.08.04.15.09.22.15.13.13.21.29.23.47v.02l.19-.28.65-.93c-.2-.14-.41-.26-.62-.37-.14-.07-.28-.13-.42-.19Z"/>
            <path id="Vector_9" data-name="Vector 9" class="cls-4" d="M85.07,60.72c-.18-.06-.37-.11-.57-.16l-.53,1.26h1.22l.39-.91c-.16-.07-.33-.13-.51-.19Z"/>
            <path id="Vector_10" data-name="Vector 10" class="cls-4" d="M82.55,63.4h3.5v1.06c-.55.27-1.13.46-1.73.57l-.51,1.21c1.19-.11,2.34-.49,3.36-1.13h.01v-2.84h-5.11l.48,1.13Z"/>
            <path id="Vector_11" data-name="Vector 11" class="cls-4" d="M71.21,36.38c-.39.26-.82.48-1.26.65l-.59-.96c.18-.06.55-.22.58-.24h.01c.07-.04.13-.08.18-.14.13-.13.21-.3.23-.49,0,0,0-.02,0-.03l.84,1.21Z"/>
            <path id="Vector_12" data-name="Vector 12" class="cls-4" d="M66.78,36.48h-.02c-.3,0-.6-.03-.9-.08-.15-.03-.3-.07-.45-.11-.4-.12-.78-.3-1.13-.54l-.11-.08c-.12-.09-.24-.2-.34-.31-.2-.19-.37-.43-.48-.68-.11-.26-.17-.54-.17-.82s.06-.56.17-.82c.11-.26.27-.49.48-.68v-1.44c-.12.08-.23.16-.34.24-.92.71-1.43,1.67-1.43,2.7s.51,1.99,1.43,2.7c.11.08.22.16.34.24.15.09.3.18.45.25.36.18.74.31,1.13.4.15.03.3.06.45.09.29.04.59.07.88.07h.02c.37,0,.75-.02,1.12-.06l-.65-1.08c-.15.01-.3.02-.46.02Z"/>
            <path id="Vector_13" data-name="Vector 13" class="cls-4" d="M64.29,37.55v.47c0,.22-.05.44-.16.64-.11.2-.27.36-.46.47h2.34c-.19-.12-.34-.28-.44-.47-.1-.19-.16-.41-.15-.63v-.12c-.39-.08-.76-.21-1.13-.36Z"/>
            <path id="Vector_14" data-name="Vector 14" class="cls-4" d="M70.03,38.06s-1.61-2.7-1.69-2.83c-.17-.32-.41-.6-.7-.82.46-.2.86-.51,1.16-.91.31-.4.51-.86.58-1.36-.35-.14-.72-.24-1.09-.31-.11.93-.8,1.65-1.65,1.65h-1.23v-3.81h.85c.14,0,.29-.02.43-.02h.07c.74,0,1.48.08,2.21.25-.24-.41-.58-.75-.98-.98-.41-.24-.87-.37-1.34-.37h-2.98c.19.11.36.28.46.47.11.2.16.42.16.64v5.49c.05.05.11.1.17.14.29.22.61.39.96.5v-1.2h.55c.19,0,.38.04.55.11.2.11.38.28.5.48l2.35,3.94h1.91c-.52-.2-.96-.58-1.24-1.06Z"/>
            <path id="Vector_15" data-name="Vector 15" class="cls-4" d="M71.21,31.33l-.84,1.21c-.02-.19-.1-.36-.23-.49-.06-.06-.13-.11-.2-.15l-.07-.03c-.14-.07-.29-.13-.43-.18-.37-.13-.75-.24-1.13-.31-.15-.03-.31-.05-.46-.07-.35-.04-.69-.07-1.04-.07h-.03c-.3,0-.6.03-.9.08v-1.14c.14-.02.27-.04.41-.05s.29-.02.43-.02h.05c.33,0,.66.02.99.05.5.05,1,.14,1.48.28.18.05.35.11.53.17.51.18,1,.43,1.45.73Z"/>
            <path id="Vector_16" data-name="Vector 16" class="cls-1" d="M90.17,49.06c.35-.57.65-1.16.9-1.78,2.06-1.34,3.93-3.7,4.87-6.7.9-3.01.85-6.22-.14-9.2h-2.77c.32-.54.58-1.12.77-1.73.05-.17.1-.34.14-.52.41-1.73.23-3.42-.81-4.71-.98-1.22-2.52-1.84-4.11-2.02.08-.62-.03-1.25-.31-1.8-.34-.74-.93-1.35-1.67-1.71l-.1-.05c-.94-.44-1.97-.69-3.02-.71v-3.8c0-.21-.08-.4-.23-.55-.15-.15-.34-.23-.55-.23s-.4.08-.55.23c-.15.15-.23.34-.23.55,0,.03,0,.07,0,.1-.47.08-.93.2-1.37.37-.59.22-1.16.53-1.67.9v.6c-.2.11-.39.22-.57.35-.39.27-1.95,1.37-2.56,2.94.55-.3,1.13-.54,1.72-.74,1.37-.48,2.81-.68,3.42-.56-1.38.23-2.73.63-4.01,1.2,0,0-1.18.56-1.25.6.06.04.12.08.18.13.08.06.15.13.22.19.31.32.55.71.69,1.13.14.42.19.87.13,1.32-.07.68-.3,1.34-.67,1.92-.14.22-.29.43-.46.63h-2.07c.35.3.64.65.88,1.04,0,.02.02.04.04.06.25.44.44.91.54,1.4.11.51.15,1.02.12,1.54h-4.59c.15.17.29.34.41.53.44.7.76,1.47.96,2.27.13.49.24.99.32,1.49.23,1.54.29,3.1.16,4.66-.26,3.52-1.3,6.53-2.63,8.07,1.35-.77,2.74-1.46,4.18-2.05-.57,1.27-1.36,2.43-2.33,3.44,1.23-.64,2.49-1.21,3.77-1.72.13,2.28,1.16,4.22,2.61,5.21-.14-.03-.29-.07-.42-.11-.14-.04-.28-.09-.42-.15-.11-.04-.21-.09-.32-.14-.21.39-.52.71-.91.94-.38.23-.81.35-1.26.35-.55,0-1.08-.19-1.51-.53-.13.16-.27.3-.43.43l-.05.05c-.11.1-.24.18-.37.26-.15.09-.32.17-.48.24-.55.21-1.14.25-1.72.13.41.28.89.43,1.38.43.22,0,.44-.03.65-.08.09-.03.19-.06.28-.09.25-.1.49-.24.7-.42.28.24.6.41.94.53.35.11.71.15,1.07.12.36-.03.71-.13,1.04-.3s.61-.4.84-.67c-.19.56-.55,1.04-1.02,1.39s-1.05.54-1.64.54c-.6,0-1.19-.2-1.67-.57.59,1.08,1.88,1.83,3.38,1.83.76,0,1.51-.2,2.16-.59.59.45,1.32.69,2.06.69.85.02,1.68-.31,2.3-.89.51.45,1.17.7,1.85.7.46,0,.92-.12,1.32-.34.41-.22.76-.53,1.02-.91.8.56,1.75.85,2.72.84,1.68,0,3.14-.84,3.84-2.07-.39.14-.8.21-1.22.22-1.21,0-2.27-.57-2.81-1.41-.59.33-1.25.49-1.93.46-.25-.01-.5-.05-.74-.12,1.06-.58,2.11-1.63,2.97-3.02Z"/>
            <path id="Vector_17" data-name="Vector 17" class="cls-4" d="M78.48,27.21c.26-.42.5-.85.7-1.3h-4.06c.78,1.07,1.18,2.36,1.17,3.67v.05c.87-.68,1.61-1.5,2.2-2.43Z"/>
            <path id="Vector_18" data-name="Vector 18" class="cls-4" d="M77.85,18.46c.17-.06.34-.13.51-.18,1.07-.35,2.18-.54,3.3-.55-.49-.22-1.01-.36-1.54-.39.77-.27,1.59-.37,2.41-.29-.13-.09-.24-.2-.32-.34-.08-.14-.12-.29-.13-.45-.03-.33.03-.67.18-.97.05-.11.11-.21.18-.31-.65.09-1.28.29-1.87.58-.24.12-.48.26-.7.41v.69l-.07.03c-.3.12-.59.27-.86.43-.19.11-.38.24-.56.37-.01,0-.03.02-.04.03-.48.36-.91.78-1.27,1.26.12-.05.24-.11.36-.16.12-.05.29-.12.44-.18Z"/>
            <path id="Vector_19" data-name="Vector 19" class="cls-4" d="M83.43,14.37s0-.07-.01-.11-.03-.07-.05-.09c-.02-.03-.05-.05-.09-.06-.03-.01-.07-.02-.11-.02s-.07,0-.11.02c-.03.01-.06.04-.09.06-.02.03-.04.06-.05.09s-.02.07-.01.11v3.73c.18.03.35.05.52.09v-3.82Z"/>
            <path id="Vector_20" data-name="Vector 20" class="cls-4" d="M95.98,35.52c-.05-1.16-.23-2.31-.55-3.43-.01-.05-.03-.1-.04-.14h-3.32c.86-1.32,1.38-2.63,1.51-3.84.14-.97-.04-1.95-.51-2.81-.82-1.42-2.47-2.23-4.57-2.41.14-.64.09-1.31-.16-1.92-1.09-2.61-5.7-3.17-10.29-1.24-.4.17-.79.35-1.17.55.19.16.36.35.5.55.42.63.6,1.39.51,2.14-.02.15-.04.3-.07.45-.13.58-.37,1.14-.7,1.63.45-.37.93-.72,1.42-1.04.12-.08.24-.15.36-.22.25-.16.51-.3.77-.45,3.6-1.96,7.07-2.16,7.87-.48-1.16,0-2.32.14-3.46.4-1.39.32-2.74.77-4.04,1.35-.11.07-.22.14-.32.22.46.73.75,1.56.86,2.42.11.86.03,1.73-.24,2.55-.12.38-.28.74-.47,1.08-.25.4-.53.78-.83,1.14.11-.65.18-1.31.22-1.98h-7.03c.16.29.33.65.47.96.38.92.66,1.88.82,2.86.28,1.71.31,3.44.09,5.16-.1.76-.24,1.51-.43,2.25-.35,1.41-.9,2.77-1.62,4.04,1.08-.64,2.2-1.21,3.36-1.71l.04-.09s0-.02,0-.02c.16-.46.67-2.19.67-5.69,0-4.02-.76-5.76-.81-5.86.6.5,1.08,1.13,1.41,1.84.09.18.17.37.25.57.71,1.85.81,4.28.16,6.78-.02.09-.05.18-.07.26-.02.09-.06.23-.1.34-.13.42-.27.82-.43,1.21-.04.09-.07.17-.11.26-.55,1.29-1.33,2.47-2.29,3.49,1.26-.63,2.56-1.18,3.89-1.65l.36-.13c3.78-1.3,7.37-1.86,9.94-1.68v-.4l5.03-3.79h.7v.85l-3.48,3.56-.04.2c1.13.26,1.95.88,2.06,1.72.03.22,0,.45-.06.67,2.57-2.46,4.14-6.26,3.95-10.48ZM79.92,31.94c.35-.18.72-.36,1.08-.53,4.76-2.13,9.37-2.01,10.29.25.04.09.07.18.09.27h-11.46Z"/>
            <path id="Vector_21" data-name="Vector 21" class="cls-4" d="M85.18,54.24c-.56,0-1.11-.12-1.61-.37.16.27.39.5.66.67.27.17.58.26.89.29.29,0,.58-.07.85-.2.26-.13.5-.32.68-.55.06-.07.12-.15.18-.23-.12.06-.25.12-.38.16-.41.15-.84.23-1.28.22Z"/>
            <path id="Vector_22" data-name="Vector 22" class="cls-4" d="M90.11,54.27c-.44-.04-.86-.2-1.22-.45-.21.1-.44.19-.66.25.39.3.86.49,1.34.54.35.03.71,0,1.04-.11.34-.1.65-.27.92-.5-.44.23-.94.33-1.43.28Z"/>
            <path id="Vector_23" data-name="Vector 23" class="cls-4" d="M88.88,52.91c.18.21.4.39.65.52.34.17.71.27,1.09.29.38.02.76-.03,1.12-.16-.62.02-1.22-.16-1.73-.51-.22-.16-.41-.35-.56-.57.14-.12.27-.26.39-.39-.15.09-.31.18-.48.26-.23.1-.47.19-.72.25-.16.04-.32.07-.49.09-.07,0-.14.02-.22.02-.19.02-.39.02-.58,0l-.14-.02c-.64-.09-1.23-.38-1.69-.83-.19-.19-.35-.4-.48-.63-.06-.1-.11-.21-.15-.32-.02-.05-.04-.1-.06-.16-.1.14-.21.26-.32.39-.34.35-.75.65-1.19.86-.12.06-.24.12-.37.17-.13.05-.28.11-.43.15-.16.05-.32.09-.49.13-.15.03-.3.06-.45.08-.67.09-1.35.05-2-.12-.09-.03-.19-.05-.27-.08.09.09.18.18.28.26.34.29.74.51,1.18.65.43.13.89.17,1.34.12.18-.02.35-.06.52-.11.02,0,.04-.01.07-.02.15-.05.29-.11.43-.18l.08-.04c.56-.31,1.03-.77,1.34-1.33.09.53.36,1.02.77,1.37l.05.04c.46.36,1.04.54,1.63.5.12,0,.23-.02.35-.03.09-.01.19-.04.28-.06.22-.05.44-.12.65-.22.21-.1.42-.21.61-.34Z"/>
            <path id="Vector_24" data-name="Vector 24" class="cls-4" d="M79.21,53.86c-.17-.09-.32-.2-.46-.33-.19.33-.46.6-.78.78-.32.19-.69.29-1.07.3-.08,0-.16,0-.23-.01.36.15.76.2,1.14.14s.75-.23,1.04-.48c.22.23.48.41.77.54.29.12.61.18.92.18.43.01.85-.1,1.21-.32.36-.22.65-.55.83-.94-.54.36-1.17.54-1.81.53-.55,0-1.09-.13-1.57-.38Z"/>
            <path id="Vector_25" data-name="Vector 25" class="cls-5" d="M79,47.42c.13.02.27.01.4-.02.13-.04.25-.1.35-.19-.02,0-.03,0-.05,0-.46-.1-.75-.67-.77-1.41l-.75.27c.04.71.34,1.25.8,1.35Z"/>
            <path id="Vector_26" data-name="Vector 26" class="cls-5" d="M86.77,51.91c1.05-1.89,2.03-4.61,2.65-7.7.05-.24.1-.48.14-.72l-.81-.14,4.09-3.46v-.37l-4.52,3.53c0,.2,0,.4-.02.59-.12,3.35-.78,6.32-1.71,8.18l.17.07Z"/>
            <path id="Vector_27" data-name="Vector 27" class="cls-5" d="M87.11,51.74c.59-.4,1.11-.88,1.56-1.43-.08-.11-.18-.22-.27-.33-.09-.12-.16-.18-.24-.26-.3.7-.66,1.38-1.06,2.02Z"/>
            <path id="Vector_28" data-name="Vector 28" class="cls-5" d="M89.01,49.9c.16-.2.31-.42.45-.65-.12-.2-.27-.43-.43-.66-.09-.13-.18-.25-.27-.36-.12.33-.24.65-.37.96.13.13.27.29.41.45.08.08.14.16.21.26Z"/>
            <path id="Vector_29" data-name="Vector 29" class="cls-5" d="M89.77,48.75c.13-.22.25-.43.36-.65-.12-.25-.28-.59-.46-.91-.12-.22-.25-.42-.37-.59-.11.35-.22.7-.33,1.04.14.18.33.41.49.65.11.15.21.31.31.46Z"/>
            <path id="Vector_30" data-name="Vector 30" class="cls-5" d="M90.63,47.02l.05-.13c-.19-.74-.49-1.44-.91-2.09-.09.39-.19.78-.29,1.16.11.16.39.56.63.98.11.19.22.39.3.57.07-.16.14-.32.21-.48Z"/>
            <path id="Vector_31" data-name="Vector 31" class="cls-5" d="M81.15,51.46c.33-.04.66-.1.98-.18.15-.04.29-.08.43-.13,1.1-.35,1.99-.91,2.5-1.56.07.57.31,1.11.69,1.55.05.06.1.12.16.17.05.05.11.1.16.15.06.05.08.07.13.1.34-.76.62-1.55.83-2.35-1.18.12-2.35.37-3.48.73-1.32.43-2.61.96-3.87,1.56h.22s.29.01.29.01c.32,0,.64-.02.96-.06Z"/>
            <path id="Vector_32" data-name="Vector 32" class="cls-5" d="M78.37,50.61c.22.21.46.4.71.58,1.39-.69,2.82-1.28,4.29-1.76,1.23-.41,2.5-.67,3.78-.77.1-.43.19-.86.27-1.34-1.22.09-2.43.34-3.58.75-1.9.67-3.74,1.52-5.48,2.54Z"/>
            <path id="Vector_33" data-name="Vector 33" class="cls-5" d="M77.99,50.2c1.81-1.07,3.72-1.96,5.7-2.65,1.99-.67,3.34-.77,3.84-.78.06-.43.12-.88.16-1.34-1.21.06-2.4.32-3.52.75-2.43.89-3.65,1.74-3.66,1.75-.01,0,.97-1.35,3.47-2.26,1.87-.68,3.19-.78,3.76-.79.03-.37.05-.75.07-1.13-2.28.3-4.48,1.04-6.48,2.16l-.33.19s-.03.09-.04.13c-.36,1.16-1.28,1.92-2.06,1.71-.62-.17-.96-.91-.9-1.79l-1.51.55c.07.79.3,1.57.67,2.27.23.45.51.87.84,1.24Z"/>
            <path id="Vector_34" data-name="Vector 34" class="cls-3" d="M86.68,36.46c.1-.65.34-1.28.71-1.83.37-.55.85-1.02,1.41-1.36h-5.62c.56.35,1.04.81,1.41,1.36.37.55.61,1.17.71,1.83-.65-.1-1.28-.34-1.83-.71-.55-.37-1.01-.85-1.36-1.41v5.62c.35-.56.81-1.04,1.36-1.41s1.17-.61,1.83-.71c-.1.65-.34,1.28-.71,1.83-.37.55-.85,1.02-1.41,1.36h5.62c-.56-.35-1.04-.81-1.41-1.36-.37-.55-.61-1.17-.71-1.83.65.1,1.28.34,1.83.7.55.36,1.02.84,1.36,1.41v-5.62c-.35.56-.81,1.04-1.36,1.41-.55.37-1.17.61-1.83.71"/>
          </g>
        </g>
      </g>
    </g>
  </g>
</svg>