<svg width="64" height="64" viewBox="0 0 64 64" fill="none" xmlns="http://www.w3.org/2000/svg">
<g id="escudo_vitoria">
<g id="vitoria" clip-path="url(#clip0_3_2909)">
<path id="Vector" fill-rule="evenodd" clip-rule="evenodd" d="M29.6465 3.12594C23.5036 9.79079 16.4029 13.7355 8.54167 14.8504L5.42515 15.2921L5.20397 18.4319C4.84375 23.5408 5.49638 28.9732 7.09138 34.1425L7.11733 34.2305C10.9601 46.6784 19.5734 57.1546 30.7474 62.9711L32.5756 63.9205L34.4004 62.9731C45.5791 57.1538 54.1925 46.6776 58.0349 34.2278L58.0682 34.1198L58.0714 34.0964C59.5766 28.9966 60.18 23.5797 59.816 18.4313L59.5939 15.2921L56.4783 14.8504C48.6423 13.739 41.7307 9.89496 35.3487 3.09924L32.4832 0.0482788L29.6465 3.12594Z" fill="black"/>
<path id="Vector_2" fill-rule="evenodd" clip-rule="evenodd" d="M30.7479 4.14116C24.3647 11.0664 16.9642 15.1684 8.75185 16.3333L6.83412 16.6052L6.69777 18.5374C6.35065 23.4634 6.98145 28.7067 8.52243 33.7004L8.54813 33.7877C12.2741 45.8569 20.6176 56.0096 31.4389 61.6421L32.5756 62.2329L33.7103 61.6435C44.5348 56.0096 52.8786 45.8562 56.6036 33.7864L56.6343 33.6864L56.6347 33.6724C58.0899 28.7425 58.6734 23.5086 58.322 18.5367L58.1854 16.6052L56.2679 16.3333C48.0816 15.1721 40.8815 11.1786 34.2567 4.12463L32.4936 2.24707L30.7479 4.14116Z" fill="white"/>
<path id="Vector_3" fill-rule="evenodd" clip-rule="evenodd" d="M54.2509 32.9943H10.8112L10.8375 33.0796C14.3762 44.5419 22.2885 54.1779 32.5453 59.517L32.5756 59.5323L32.6061 59.517C42.8642 54.1773 50.7765 44.5413 54.3139 33.0796L54.3402 32.9943H54.2509Z" fill="black"/>
<path id="Vector_4" fill-rule="evenodd" clip-rule="evenodd" d="M54.3153 33.0689C55.7385 28.2811 56.2563 23.2991 55.9315 18.7058C47.2627 17.4762 39.4981 13.206 32.5099 5.76517C25.6517 13.206 17.7579 17.4762 9.08846 18.7058C8.76455 23.2991 9.34713 28.2811 10.8347 33.0689H54.3153Z" fill="#FF1100"/>
<path id="Vector_5" fill-rule="evenodd" clip-rule="evenodd" d="M15.5616 20.3231L20.5436 17.7353C20.4786 19.2876 20.6727 21.164 21.3844 22.6523L26.2373 33.1342V39.0228L18.9903 23.9467C18.2787 22.5233 16.7902 21.4877 15.5616 20.3231Z" fill="white"/>
<path id="Vector_6" fill-rule="evenodd" clip-rule="evenodd" d="M49.9827 20.7759L45 18.188C45.065 19.7405 44.8069 21.6167 44.1591 23.105L36.3942 40.6391L39.4361 40.1864L46.5533 24.3994C47.2007 22.9762 48.754 21.9406 49.9827 20.7759Z" fill="white"/>
<path id="Vector_7" fill-rule="evenodd" clip-rule="evenodd" d="M25.7845 50.0203H30.2486V34.6225H34.9069C35.8784 34.6225 36.4592 35.8508 37.172 36.499L37.2366 30.1573C36.4592 30.7399 35.9417 31.8396 34.9719 31.8396H30.3136L30.2486 25.5641L27.2719 26.4697V47.4979C27.2719 48.4687 26.3015 49.1795 25.7845 50.0203Z" fill="white"/>
<path id="Vector_8" fill-rule="evenodd" clip-rule="evenodd" d="M27.3368 21.7466V17.4762C27.3368 16.5057 26.4313 15.794 25.8486 15.0173H39.6959V19.2875C38.5953 18.5759 37.6898 17.2825 36.4592 17.2825H30.3136V21.164L27.3368 21.7466Z" fill="white"/>
<path id="Vector_9" fill-rule="evenodd" clip-rule="evenodd" d="M36.7839 50.0851H41.3772V45.8149C41.1825 46.0096 41.0541 47.7559 37.6897 47.7559L36.7839 50.0851Z" fill="white"/>
<path id="Vector_10" fill-rule="evenodd" clip-rule="evenodd" d="M31.2835 46.0749V50.2798L33.4833 54.6153L37.7545 44.9741L35.1009 45.0394L33.1606 49.9571L31.2835 46.0749Z" fill="white"/>
<path id="Vector_11" fill-rule="evenodd" clip-rule="evenodd" d="M26.2373 40.1864C22.6787 38.6327 19.379 36.0455 17.0492 33.0689C17.7608 31.5806 19.1841 30.0933 20.4137 29.3815L18.9903 26.7936C17.2439 28.0872 15.3669 29.5105 14.5261 31.4517C14.2023 32.1634 13.6204 32.6815 13.0377 33.0689C13.6204 33.393 14.0083 33.3276 14.5909 34.1698C17.438 38.2453 21.7723 41.4167 26.2373 43.0329C26.2373 41.9328 26.2373 41.2866 26.2373 40.1864Z" fill="white"/>
<path id="Vector_12" fill-rule="evenodd" clip-rule="evenodd" d="M23.0666 24.1406L24.361 26.6637C30.3136 24.0107 36.1364 23.9467 41.5072 25.952L42.5428 23.6878C36.7193 21.164 29.602 21.3578 23.0666 24.1406Z" fill="white"/>
<path id="Vector_13" fill-rule="evenodd" clip-rule="evenodd" d="M46.8764 25.8869L45.9072 28.1521L47.7185 29.0577C48.2363 29.2516 48.4292 29.9634 48.754 30.4162L50.3707 26.8576C49.7879 26.8576 49.1421 27.1165 48.6244 26.8576L46.8764 25.8869Z" fill="white"/>
<path id="Vector_14" fill-rule="evenodd" clip-rule="evenodd" d="M31.2193 41.1566V43.6158C37.7545 45.0394 43.9011 43.0977 49.5949 39.7337L47.9115 37.2097C43.9011 40.6391 37.042 42.3221 31.2193 41.1566Z" fill="white"/>
</g>
</g>
<defs>
<clipPath id="clip0_3_2909">
<rect width="54.9301" height="64" fill="white" transform="translate(5)"/>
</clipPath>
</defs>
</svg>
