<?xml version="1.0" encoding="UTF-8"?>
<svg id="Layer_1" data-name="Layer 1" xmlns="http://www.w3.org/2000/svg" xmlns:xlink="http://www.w3.org/1999/xlink" viewBox="0 0 137.96 71.41">
  <defs>
    <style>
      .cls-1 {
        fill: none;
      }

      .cls-1, .cls-2, .cls-3, .cls-4 {
        stroke-width: 0px;
      }

      .cls-2 {
        fill: #fff;
      }

      .cls-3 {
        fill: #231f20;
      }

      .cls-5 {
        clip-path: url(#clippath);
      }

      .cls-4 {
        fill: #0e93d2;
      }
    </style>
    <clipPath id="clippath">
      <rect class="cls-1" x="36.98" y="3.71" width="64" height="64"/>
    </clipPath>
  </defs>
  <g id="escudo_gremio" data-name="escudo gremio">
    <g class="cls-5">
      <g id="gremio">
        <g id="Group">
          <path id="Vector" class="cls-3" d="M100.98,35.71c0,17.67-14.33,32-32,32s-32-14.33-32-32S51.31,3.71,68.98,3.71s32,14.33,32,32Z"/>
          <path id="Vector_2" data-name="Vector 2" class="cls-2" d="M99.51,35.71c0,16.86-13.67,30.53-30.53,30.53s-30.53-13.67-30.53-30.53,13.67-30.53,30.53-30.53,30.53,13.67,30.53,30.53Z"/>
          <path id="Vector_3" data-name="Vector 3" class="cls-4" d="M60.3,63.18c2.74.87,5.66,1.33,8.68,1.33s5.94-.47,8.68-1.33c-2.45-1.89-5.45-3.01-8.68-3.01s-6.23,1.12-8.68,3.01Z"/>
          <path id="Vector_4" data-name="Vector 4" class="cls-4" d="M77.66,8.24c-2.74-.87-5.66-1.34-8.68-1.34s-5.94.47-8.68,1.34c2.45,1.89,5.45,3.01,8.68,3.01s6.23-1.12,8.68-3.01Z"/>
          <path id="Vector_5" data-name="Vector 5" class="cls-4" d="M80.03,24.41c4.22-1.55,8.03-3.96,11.19-7.01-3.17-3.84-7.31-6.84-12.05-8.64-1.59,1.37-3.43,2.43-5.42,3.08,3.23,2.34,5.62,6.98,6.28,12.56Z"/>
          <path id="Vector_6" data-name="Vector 6" class="cls-4" d="M64.21,11.85c-2-.66-3.83-1.71-5.42-3.08-4.74,1.79-8.88,4.79-12.05,8.64,3.16,3.05,6.97,5.46,11.19,7.01.67-5.58,3.06-10.22,6.28-12.56Z"/>
          <path id="Vector_7" data-name="Vector 7" class="cls-4" d="M57.93,47.01c-4.22,1.55-8.03,3.96-11.19,7.01,3.17,3.84,7.31,6.84,12.05,8.64,1.59-1.37,3.43-2.43,5.42-3.08-3.23-2.34-5.62-6.98-6.28-12.56Z"/>
          <path id="Vector_8" data-name="Vector 8" class="cls-4" d="M80.03,47.01c-.67,5.58-3.06,10.22-6.28,12.56,2,.66,3.83,1.71,5.42,3.08,4.74-1.79,8.88-4.79,12.05-8.64-3.16-3.05-6.97-5.46-11.19-7.01Z"/>
          <path id="Vector_9" data-name="Vector 9" class="cls-3" d="M92.07,52.94c3.59-4.81,5.72-10.77,5.72-17.23s-2.13-12.43-5.72-17.23c-5.97,5.72-14.12,9.26-23.08,9.26s-17.11-3.54-23.08-9.26c-3.59,4.81-5.72,10.77-5.72,17.23s2.13,12.43,5.72,17.23c5.97-5.72,14.11-9.26,23.08-9.26s17.11,3.54,23.08,9.26Z"/>
          <path id="Vector_10" data-name="Vector 10" class="cls-3" d="M74.18,20.89c.32-.1.6-.43.6-.95,0-.32-.09-.57-.29-.77-.2-.2-.46-.29-.83-.29-.74,0-1.01.43-1.23.72l.51.34c.23-.29.46-.37.6-.37.26,0,.49.21.49.49,0,.2-.07.34-.2.46-.1.1-.26.17-.49.17h-.2v.6h.29c.23,0,.41.05.52.2.09.12.17.26.17.55,0,.54-.32.63-.55.63-.15,0-.26-.02-.35-.09-.11-.09-.2-.23-.26-.37l-.66.26c.09.29.23.52.46.66.2.14.49.23.83.23.37,0,.69-.12.92-.34.23-.26.34-.57.34-1.01,0-.32-.1-.94-.69-1.12Z"/>
          <path id="Vector_11" data-name="Vector 11" class="cls-3" d="M68.58,20.77c0,.83-.14,1.49-.4,1.92-.2.35-.49.57-.86.66-.09.02-.22.03-.32.03-.24,0-.43-.06-.69-.23l.26-.57c.14.07.31.12.46.12.18,0,.34-.09.49-.26.15-.17.23-.46.29-.83-.16.13-.26.26-.63.26-.32,0-.57-.12-.78-.37-.2-.26-.29-.6-.29-1.03,0-.52.12-.89.32-1.15.2-.26.52-.4.89-.43h.03c.43,0,.75.17.95.49.2.31.29.77.29,1.41ZM67.32,21.2c.18,0,.28-.1.35-.23.06-.14.09-.34.09-.6s-.02-.48-.09-.6c-.08-.15-.2-.2-.35-.2-.12,0-.26.07-.32.2-.08.17-.12.4-.12.6,0,.41.12.83.43.83Z"/>
          <path id="Vector_12" data-name="Vector 12" class="cls-3" d="M63.15,19.31v.57l.77-.23v2.93h-.83v.66h2.35v-.66h-.77v-3.62l-1.52.34Z"/>
          <path id="Vector_13" data-name="Vector 13" class="cls-3" d="M73.89,48.98h-.89l-1.06,4.31h.72l.26-1.06h1.01l.23,1.06h.81l-1.06-4.31ZM73.06,51.53l.26-1.26.09-.49h.01l.09.46.27,1.29h-.72Z"/>
          <path id="Vector_14" data-name="Vector 14" class="cls-3" d="M63.01,49.03v4.25h.81v-1.84h1.09v-.69h-1.09v-1.03h1.58v-.69h-2.39Z"/>
          <path id="Vector_15" data-name="Vector 15" class="cls-2" d="M65.34,27.92s1.54.03,1.61.03c.03.06,1.26,2.37,1.35,2.53h-.91l-1.23-1.59-1.31,1.61s-.71-.02-.87-.02c.08-.15,1.36-2.56,1.36-2.56Z"/>
          <path id="Vector_16" data-name="Vector 16" class="cls-2" d="M87.07,40.78c-.94-.99-1.39-2.31-1.39-4.01s.47-3.06,1.39-4.04c.9-.98,2.15-1.48,3.72-1.48s2.82.5,3.72,1.48c.94.99,1.39,2.31,1.39,4.04s-.46,3.02-1.39,4.01h0c-.88.97-2.14,1.48-3.72,1.5-1.55,0-2.81-.51-3.72-1.5ZM88.57,34c-.53.68-.79,1.58-.79,2.76s.26,2.06.79,2.73c.53.67,1.26,1,2.23,1s1.7-.33,2.23-1c.53-.68.79-1.57.79-2.73s-.26-2.09-.79-2.76h0c-.53-.65-1.26-.97-2.23-.97-.93,0-1.66.32-2.22.97Z"/>
          <path id="Vector_17" data-name="Vector 17" class="cls-2" d="M84.82,31.54h-2.07v10.42h2.07v-10.42Z"/>
          <path id="Vector_18" data-name="Vector 18" class="cls-2" d="M81.4,31.54v10.42h-1.92v-8.44h-.11s-2.12,8.36-2.14,8.44h-2.12c-.02-.09-2.17-8.46-2.17-8.46h-.11v8.46h-1.93v-10.42h3.12c.02.09,2.14,8.18,2.14,8.18,0,0,2.12-8.1,2.14-8.18h3.11Z"/>
          <path id="Vector_19" data-name="Vector 19" class="cls-2" d="M69.89,31.54v1.69h-5.51v2.38h5.06v1.7h-5.06v2.81h5.8v1.84h-7.81v-10.42h7.53Z"/>
          <path id="Vector_20" data-name="Vector 20" class="cls-2" d="M57.97,31.54c1.15,0,2,.24,2.52.7.53.48.81,1.25.81,2.23,0,.6-.14,1.15-.39,1.58-.24.4-.63.69-1.15.87l-.17.06.17.05c.44.14.78.39.97.72.18.29.28.76.31,1.52l.06,1.29c.03.65.16,1.01.4,1.17v.23h-2.29c-.08-.17-.12-.3-.15-.43-.04-.17-.08-.38-.09-.83l-.03-1.12c-.03-.69-.15-1.12-.39-1.36-.21-.24-.62-.36-1.22-.36h-2.39v4.11h-2.07v-10.42h5.08ZM55.01,33.24h-.06v2.9h2.61c.57,0,1.01-.12,1.27-.36.26-.21.4-.58.4-1.11,0-.46-.13-.81-.39-1.07-.27-.24-.66-.36-1.16-.36h-2.67Z"/>
          <path id="Vector_21" data-name="Vector 21" class="cls-2" d="M43.42,40.75c-.9-.99-1.36-2.34-1.36-4.01s.45-2.98,1.36-3.98c.88-1,2.1-1.5,3.6-1.5,1.33,0,2.38.31,3.21.94.82.65,1.31,1.5,1.46,2.51h-2.1c-.14-.48-.43-.92-.84-1.22-.41-.31-.97-.47-1.64-.47-.91,0-1.62.33-2.14,1h0c-.5.68-.76,1.59-.76,2.71s.26,2.06.79,2.73c.56.68,1.31,1.03,2.23,1.03.72,0,1.3-.21,1.76-.65.46-.38.76-.95.88-1.7v-.07s-2.38,0-2.38,0v-1.69h4.25v5.6h-1.36c-.02-.08-.27-1.32-.27-1.32l-.08.1c-.37.51-.82.9-1.33,1.16-.46.24-1.04.37-1.73.37-1.45,0-2.64-.52-3.55-1.53Z"/>
          <path id="Vector_22" data-name="Vector 22" class="cls-3" d="M67.69,51.02c.26.09.46.2.6.4.14.2.2.43.2.72,0,.37-.11.66-.37.86-.24.18-.57.29-.9.29h-1.22v-4.25h1.26c.62,0,1.09.37,1.09,1.03,0,.23-.06.43-.17.6-.11.17-.29.28-.49.35ZM67.06,49.67h-.26v1.09h.26c.33,0,.52-.25.52-.57,0-.41-.18-.52-.52-.52ZM67.69,52.05c0-.27-.08-.43-.19-.53-.11-.1-.33-.13-.47-.13h-.23v1.26h.42c.21,0,.47-.13.47-.6Z"/>
          <path id="Vector_23" data-name="Vector 23" class="cls-3" d="M69.27,49.03v4.25h.8v-1.61h.37c.35-.03.63-.14.86-.35.26-.26.37-.57.37-1.01s-.12-.75-.35-.98c-.2-.2-.52-.32-.89-.32h-1.18ZM70.84,50.33c0,.49-.23.75-.57.75h-.2v-1.41h.2c.3,0,.57.13.57.66Z"/>
          <path id="Vector_24" data-name="Vector 24" class="cls-3" d="M69.56,19.48c-.23.37-.35.95-.35,1.66s.12,1.26.35,1.64c.23.37.54.57.98.57s.75-.2.98-.57c.23-.37.35-.92.35-1.64s-.12-1.29-.35-1.66c-.23-.4-.54-.6-.98-.6s-.75.2-.98.6ZM71.05,21.15c0,.54-.03.96-.12,1.19-.08.22-.2.33-.4.33s-.32-.11-.4-.33c-.09-.23-.11-.65-.11-1.19s.03-1,.11-1.24c.08-.23.2-.34.4-.34s.32.11.4.34c.09.24.12.68.12,1.24Z"/>
        </g>
      </g>
    </g>
  </g>
</svg>