<?xml version="1.0" encoding="UTF-8"?>
<svg id="Layer_1" data-name="Layer 1" xmlns="http://www.w3.org/2000/svg" viewBox="0 0 141.03 71.41">
  <defs>
    <style>
      .cls-1, .cls-2, .cls-3, .cls-4 {
        stroke-width: 0px;
      }

      .cls-1, .cls-4 {
        fill: #fefefe;
      }

      .cls-2 {
        fill: #2861a6;
      }

      .cls-2, .cls-3, .cls-4 {
        fill-rule: evenodd;
      }

      .cls-3 {
        fill: #e1251b;
      }
    </style>
  </defs>
  <g id="escudo_fortaleza" data-name="escudo fortaleza">
    <g id="fortaleza">
      <path id="Vector" class="cls-4" d="M42.73,20.77h55.57V6.72h-55.57v14.05ZM46.51,12.82h2.39v1.31h-2.39v3.78h-1.78v-8.41h4.32v1.31h-2.55v2.01ZM81.7,12.82h2.55v1.31h-2.55v2.39h2.86v1.39h-4.63v-8.41h4.55v1.31h-2.78v2.01ZM62.49,9.5h5.63v1.39h-1.93v7.02h-1.85v-7.02h-1.85v-1.39ZM85.1,9.5h5.02v1.39c0,.66-3.11,4.72-3.32,5.63h3.47v.93c.17-.26,1.02-3.42,1.17-4,.18-.7.37-1.32.57-2.05.1-.36.37-1.9.72-1.9h2.06s2.26,8.41,2.26,8.41h-1.62c-.32,0-.59-1.52-.62-1.85h-2.39l-.47,1.85h-7.02v-1.46c0-.17,3.05-4.89,3.4-5.56h-3.24v-1.39ZM60.78,13.82c.93.08,1.05.68,1.15,1.55.04.35,0,.93,0,1.31,0,.53.16.73.16,1.23h-1.61c-.77,0,.4-3.47-1.15-3.47h-.85v3.47h-1.78v-8.41h2.08c1.95,0,3.09.16,3.09,2.16v.23c0,1.58-.65,1.35-1.09,1.93ZM49.9,13.98v-1.08c0-2.1.67-3.47,2.78-3.47h.08c1.77,0,2.78,1.13,2.78,2.86v2.39c0,1.68-.63,3.32-2.24,3.32h-1.08c-1.9,0-2.32-2.05-2.32-4.01ZM69.05,17.91h-1.58s2.35-8.41,2.35-8.41h2.08c.32,0,.62,1.59.73,1.98.19.65.46,1.53.58,2.12.2,1.04,1.14,3.45,1.16,4.32h-1.83l-.41-1.85h-2.47c-.03.35-.3,1.85-.62,1.85ZM74.99,9.5h1.85v6.87h2.55v1.54h-4.4v-8.41Z"/>
      <path id="Vector_2" data-name="Vector 2" class="cls-2" d="M69.42,59.06V23.55s-23.7.01-23.7.01l23.7,35.5Z"/>
      <path id="Vector_3" data-name="Vector 3" class="cls-3" d="M71.52,59.05l23.69-35.5h-23.69v35.5Z"/>
      <path id="Vector_4" data-name="Vector 4" class="cls-2" d="M41.11,22.54l29.25,43.76h.15l29.4-43.84V5.1h-58.81v17.44ZM42.73,6.72h55.57v14.05h-55.57V6.72ZM70.41,63.47l-27.71-41.52,55.52-.02-27.81,41.54Z"/>
      <path id="Vector_5" data-name="Vector 5" class="cls-1" d="M70.58,66.42h-.28l-.04-.05-29.27-43.79V4.98h59.05v17.52l-.02.03-29.44,43.89ZM70.42,66.18h.03l29.35-43.75V5.22h-58.57v17.28l29.19,43.68ZM70.41,63.68l-27.93-41.85h.22l55.75-.02-.13.19-27.91,41.69ZM42.92,22.07l27.48,41.18,27.59-41.2-55.07.02ZM98.42,20.89h-55.81V6.6h55.81v14.29ZM42.85,20.65h55.33V6.84h-55.33v13.81Z"/>
      <path id="Vector_6" data-name="Vector 6" class="cls-4" d="M70.41,63.47l27.81-41.54-55.52.02,27.71,41.52ZM45.72,23.56l23.71-.02v35.51s-23.71-35.5-23.71-35.5ZM71.52,23.54h23.69l-23.69,35.5V23.54Z"/>
      <path id="Vector_7" data-name="Vector 7" class="cls-2" d="M92.74,9.5c-.35,0-.63,1.54-.72,1.9-.2.73-.4,1.35-.57,2.05-.14.58-1.01,3.73-1.17,4v-.93h-3.47c.21-.92,3.32-4.98,3.32-5.63v-1.39h-5.01v1.39h3.24c-.35.67-3.4,5.38-3.4,5.56v1.46h7.02l.47-1.85h2.39c.03.34.3,1.85.62,1.85h1.62l-2.27-8.4h-2.06ZM93.61,11.28l.9,3.47h-1.75l.85-3.47Z"/>
      <path id="Vector_8" data-name="Vector 8" class="cls-2" d="M60.78,13.82c.43-.58,1.08-.34,1.08-1.93v-.23c0-2-1.13-2.16-3.09-2.16h-2.08v8.41h1.78v-3.47h.85c1.56,0,.4,3.47,1.15,3.47h1.62c0-.5-.15-.7-.15-1.23,0-.38.04-.96,0-1.31-.1-.87-.22-1.47-1.15-1.55M58.55,10.89h.85c.52,0,.77.39.77.93v.08c0,.88-.36,1.24-1.24,1.24h-.38v-2.24Z"/>
      <path id="Vector_9" data-name="Vector 9" class="cls-2" d="M49.9,13.98c0,1.97.41,4.01,2.32,4.01h1.08c1.61,0,2.24-1.64,2.24-3.32v-2.39c0-1.73-1.01-2.86-2.78-2.86h-.08c-2.1,0-2.78,1.37-2.78,3.47v1.08ZM51.68,12.97c0-.95.09-2.24,1-2.24h.15c.85,0,.93,1.2.93,2.08v2.16c0,.74-.21,1.7-.93,1.7h-.23c-.93,0-.93-1.7-.93-2.7v-1Z"/>
      <path id="Vector_10" data-name="Vector 10" class="cls-2" d="M69.05,17.91c.32,0,.59-1.49.62-1.85h2.47l.41,1.85h1.83c-.02-.87-.96-3.27-1.16-4.32-.12-.59-.4-1.47-.58-2.12-.11-.38-.41-1.98-.73-1.98h-2.08l-2.35,8.4h1.58ZM70.93,11.25l.87,3.49h-1.79s.93-3.49.93-3.49Z"/>
      <path id="Vector_11" data-name="Vector 11" class="cls-2" d="M81.71,10.81h2.78v-1.31h-4.55v8.41h4.63v-1.39h-2.85v-2.39h2.55v-1.31h-2.55v-2.01Z"/>
      <path id="Vector_12" data-name="Vector 12" class="cls-2" d="M46.51,10.81h2.55v-1.31h-4.32v8.41h1.78v-3.78h2.39v-1.31h-2.39v-2.01Z"/>
      <path id="Vector_13" data-name="Vector 13" class="cls-2" d="M62.49,10.89h1.85v7.02h1.85v-7.02h1.93v-1.39h-5.63v1.39Z"/>
      <path id="Vector_14" data-name="Vector 14" class="cls-2" d="M74.99,17.91h4.4v-1.54h-2.55v-6.87h-1.85v8.41Z"/>
      <path id="Vector_15" data-name="Vector 15" class="cls-4" d="M51.68,12.97v1c0,1,0,2.7.93,2.7h.23c.71,0,.93-.96.93-1.7v-2.16c0-.88-.08-2.08-.93-2.08h-.15c-.92,0-1,1.29-1,2.24Z"/>
      <path id="Vector_16" data-name="Vector 16" class="cls-4" d="M58.55,13.13h.38c.88,0,1.24-.36,1.24-1.24v-.08c0-.53-.25-.93-.77-.93h-.85v2.24Z"/>
      <path id="Vector_17" data-name="Vector 17" class="cls-4" d="M70,14.74h1.78s-.86-3.47-.86-3.47l-.92,3.47Z"/>
      <path id="Vector_18" data-name="Vector 18" class="cls-4" d="M92.76,14.75h1.75s-.9-3.47-.9-3.47l-.85,3.47Z"/>
    </g>
  </g>
</svg>