<?xml version="1.0" encoding="UTF-8"?>
<svg id="Layer_1" data-name="Layer 1" xmlns="http://www.w3.org/2000/svg" xmlns:xlink="http://www.w3.org/1999/xlink" viewBox="0 0 143.27 71.61">
  <defs>
    <style>
      .cls-1, .cls-2, .cls-3, .cls-4 {
        stroke-width: 0px;
      }

      .cls-1, .cls-3 {
        fill: #006437;
      }

      .cls-1, .cls-4 {
        fill-rule: evenodd;
      }

      .cls-2 {
        fill: none;
      }

      .cls-4 {
        fill: #fff;
      }

      .cls-5 {
        clip-path: url(#clippath);
      }
    </style>
    <clipPath id="clippath">
      <rect class="cls-2" x="39.64" y="3.81" width="64" height="64"/>
    </clipPath>
  </defs>
  <g id="escudo_palmeiras" data-name="escudo palmeiras">
    <g class="cls-5">
      <g id="palmeiras">
        <g id="Layer_2" data-name="Layer 2">
          <g id="Layer_1-2" data-name="Layer 1">
            <path id="Vector" class="cls-4" d="M71.64,3.81c17.67,0,32,14.33,32,32s-14.33,32-32,32-32-14.33-32-32S53.96,3.81,71.64,3.81Z"/>
            <path id="Vector_2" data-name="Vector 2" class="cls-1" d="M71.64,4.72c17.17,0,31.09,13.92,31.09,31.09s-13.92,31.09-31.09,31.09-31.09-13.92-31.09-31.09,13.92-31.09,31.09-31.09ZM71.64,5.52c16.73,0,30.29,13.56,30.29,30.29s-13.56,30.29-30.29,30.29-30.29-13.56-30.29-30.29,13.56-30.29,30.29-30.29Z"/>
            <path id="Vector_3" data-name="Vector 3" class="cls-1" d="M71.64,6.39c16.25,0,29.42,13.17,29.42,29.42s-13.17,29.42-29.42,29.42-29.42-13.17-29.42-29.42,13.17-29.42,29.42-29.42ZM71.64,9.13c3.18,0,6.29.94,8.94,2.71,2.65,1.77,4.71,4.28,5.93,7.22,1.22,2.94,1.54,6.18.92,9.3-.62,3.12-2.15,5.99-4.4,8.24-2.25,2.25-5.12,3.78-8.24,4.4-3.12.62-6.36.3-9.3-.92-2.94-1.22-5.45-3.28-7.22-5.93-1.77-2.65-2.71-5.76-2.71-8.94,0-4.27,1.7-8.36,4.71-11.38,3.02-3.02,7.11-4.71,11.38-4.71ZM55.21,32.08c.35.82.76,1.62,1.21,2.39.7,1.08.24,2.3-1.07,2.97l-2.68,1.37c-1.28.64-3.7.35-4.16-1.36-.18-.55-.33-1.11-.44-1.68l-3.83,1.07c-.09-1.39-.1-1.63-.02-2.81l10.99-1.96ZM54.04,34.15l-3.69,1c.04.3.11.6.2.89.27.89.68.87,1.72.49l1.35-.51c.54-.24,1.08-.48.8-1.1-.18-.33-.37-.8-.37-.78h0ZM58.72,37.5c.42.44.94.93,1.46,1.37l-10.29,13.71c-.68-.9-1.31-1.84-1.89-2.82l2.88-3.11c-.64-.96-1.2-1.77-1.72-2.99l-3.33,1.47c-.35-.91-.63-1.83-.84-2.78l13.72-4.86h0ZM56.45,40.59l-5.21,2.17c.37.72.8,1.41,1.29,2.06l3.92-4.23h0ZM50.26,53.05l11.65-12.87s1.05.67,1.58.93l-9,11.94c.94.93,1.3,1.23,2.45,2.09l-1.63,2.77c-1.71-1.23-3.96-3.42-5.05-4.87h0ZM56.01,58.42l9.03-16.6c.55.22,1.1.41,1.67.57l-.99,8.55c.27-.62,3.35-8.01,3.35-8.04.47.08,1.37.16,1.76.17l-1.22,20.17c-1.03-.03-2.63-.27-3.76-.54l1.72-10.18-4.33,6.96-.11-8.45c-.36,1.07-3.94,9.27-3.94,9.3-1.11-.56-2.17-1.2-3.19-1.92h0ZM75.06,42.77c-1.16.23-2.35.33-3.54.32l-.41,20.23c3.08.08,6.15-.38,9.08-1.33l-.9-3.42c-1.46.47-2.88.81-4.29.94l-.8-6.91c1.46-.16,2.26-.33,3.31-.67l-.69-2.57c-.96.27-1.93.45-2.92.55l-.56-4.88c.76-.03,1.52-.14,2.26-.33l-.52-1.91h0ZM75.66,42.65c.61-.14,1.01-.25,1.59-.44l7.84,17.65c-1.18.66-2.41,1.23-3.68,1.71l-5.75-18.92ZM86.27,59.14l-8.39-17.16c1.01-.37,1.98-.83,2.9-1.38,1.15-.74,2.11,0,3.09.91l2.45,2.28c2.33,2.16,1.9,3.78,1.39,4.3l6.11,4.01c-.62.87-1.31,1.7-2.05,2.48l-5.96-4.81-.69.47,4.44,6.5c-1.03.89-2.13,1.7-3.29,2.42h0ZM83.82,48.17c1.15-.75,1.85-1.34.43-3.01l-1.59-2.01c-.97-1.33-1.54-.61-2.26-.27l3.43,5.29ZM84.86,37.26c-.41.43-.83.88-1.32,1.3l10.51,13.19c.66-.92,1.27-1.88,1.82-2.86l-2.87-2.87c.62-1,.89-1.58,1.39-2.75l3.27,1.43c.35-.89.64-1.8.85-2.73l-13.64-4.71h0ZM87.46,40.36l4.84,1.98c-.31.66-.67,1.3-1.08,1.91l-3.76-3.89ZM90.5,34.32c.24-.52.45-1.06.66-1.62l-1.45-.26c-1.06-.17-1.76.18-2.1.64-.34.47-.61.99-.8,1.54-.25.64-.23,1.8,1.56,2.59,1.56.72,2.73,1.44,5.2-.67,1.45-1.17,2-.77,2.53-.66.76.25.84.56.69,1.36-.2.98-1.31.46-1.84.25-.2.76-.46,1.5-.76,2.22.32.14.73.32,1.09.47,1.65.66,3.51.3,3.94-1.69.26-1.34.18-1.99.18-2.22-.02-1.24-.94-2.34-2.51-2.62-1.54-.31-2.57-.39-4.72,1.22-1.1.82-1.29,1.13-2.29.73-.53-.2-1.04-.38-.75-1.01.23-.48.47-.56,1.41-.28h-.01ZM56.38,13.79l-.36.83.61.67-.9-.09-.44.79-.2-.89-.89-.18.78-.46-.1-.9.68.6.82-.38h0ZM53.73,16.76l-.25,1.09.89.67-1.11.1-.36,1.06-.44-1.03h-1.11s.84-.75.84-.75l-.33-1.07.96.58.91-.65h0ZM51.47,20.55l-.02,1.45,1.31.6-1.37.43-.16,1.44-.83-1.18-1.41.29.86-1.16-.71-1.25,1.36.46.97-1.07h0ZM49.85,25.41l.44,1.79,1.81.32-1.56.98.25,1.83-1.41-1.2-1.65.81.69-1.71-1.27-1.33,1.83.14.86-1.63h0ZM93.42,25.41l-.44,1.79-1.81.32,1.56.97-.25,1.83,1.4-1.19,1.65.81-.69-1.71,1.27-1.33-1.83.14-.87-1.63h0ZM91.8,20.55l.02,1.45-1.31.6,1.37.43.16,1.44.83-1.18,1.41.29-.86-1.16.71-1.25-1.36.46-.97-1.07h0ZM89.53,16.76l.25,1.09-.89.67,1.11.1.36,1.06.44-1.03h1.11s-.84-.75-.84-.75l.33-1.07-.96.58-.91-.65h0ZM86.89,13.79l.36.83-.61.67.9-.09.44.79.2-.89.89-.18-.78-.46.11-.9-.68.6-.82-.38h0Z"/>
            <path id="Vector_4" data-name="Vector 4" class="cls-1" d="M71.63,9.95c3.02,0,5.97.9,8.48,2.57,2.51,1.68,4.47,4.06,5.62,6.85,1.16,2.79,1.46,5.86.87,8.82-.59,2.96-2.04,5.68-4.18,7.82-2.14,2.14-4.86,3.59-7.82,4.18-2.96.59-6.03.29-8.82-.87-2.79-1.16-5.17-3.11-6.85-5.62-1.68-2.51-2.57-5.46-2.57-8.48,0-4.05,1.61-7.93,4.47-10.8,2.86-2.86,6.75-4.47,10.8-4.47ZM83.84,16.69c.22,8.96-4.21,18.13-11.95,23.47,2.71-.05,5.35-.83,7.64-2.27s4.16-3.47,5.38-5.88c1.23-2.41,1.78-5.11,1.59-7.81-.19-2.7-1.11-5.3-2.67-7.51ZM71.38,40.16c-7.57-5.26-12.16-14.58-11.95-23.49-1.56,2.22-2.48,4.81-2.68,7.52-.19,2.7.35,5.41,1.58,7.82,1.23,2.42,3.09,4.45,5.39,5.89,2.3,1.44,4.94,2.22,7.65,2.27h0ZM59.63,16.41c4.37-1.05,8.42-3.13,11.82-6.07-2.31.03-4.57.59-6.63,1.64-2.05,1.05-3.83,2.57-5.2,4.42ZM71.81,10.34c3.82,3.43,8.19,5.2,11.83,6.06-1.37-1.86-3.15-3.37-5.2-4.42-2.05-1.05-4.32-1.61-6.63-1.64ZM83.55,16.68c-6.98-1.64-11.24-5.42-11.91-6.09-.65.67-5.05,4.5-11.89,6.09-.14,14.94,10.92,22.62,11.89,23.28.97-.65,12.01-8.06,11.91-23.28Z"/>
            <path id="Vector_5" data-name="Vector 5" class="cls-3" d="M82.59,17.23c.27,8.24-3.96,16.83-10.95,21.66-6.82-4.76-11.21-13.48-10.95-21.66,3.17-.74,7.36-2.36,10.95-5.6,3.45,3.25,7.68,4.83,10.95,5.6ZM70.67,12.85h1.9c-.33-.25-.64-.53-.94-.82-.3.29-.62.57-.96.82ZM72.73,12.97h-2.21c-.34.26-.75.56-1.23.86h4.65c-.47-.31-.87-.61-1.2-.86h0ZM74.12,13.96h-5.02c-.43.28-.92.57-1.45.87h3.14c-.08.04-.16.08-.24.12h-3.13c-.53.29-1.11.58-1.73.86h3.63s-.09.08-.13.12h-3.77c-.69.31-1.44.6-2.22.87h2.88s-.08.08-.11.12h-3.14c-.6.19-1.22.37-1.86.52v.34h6.13s.06.08.09.12h-6.22c0,.29.01.58.03.87h6.3v.12h-6.3c.02.29.04.58.06.86h6.24v.12h-6.23c.03.29.06.58.09.87h6.13v.12h-6.12c.04.29.08.58.13.86h5.99v.12h-5.97c.05.29.1.58.16.87h5.9l-.12.12h-5.75c.06.29.12.57.19.85h5.24l.13.12h-5.34c.07.3.15.59.24.88h5.32v.12h-5.29c.09.29.18.58.27.86h5.02v.12h-4.98c.1.29.2.58.31.87h4.66v.12h-4.61c.11.3.23.58.35.86h4.26v.12h-4.21c.13.3.26.59.4.87h3.81v.12h-3.75c.14.3.29.58.44.86h3.31v.12h-3.25c.16.29.32.57.48.85h2.77v.12h-2.7c.18.3.36.58.54.86h1.86s-.07.08-.11.12h-1.67c.2.3.39.59.6.87h.74s.09.08.14.12h-.79c.22.3.43.59.65.86h1.87s.04.08.05.12h-1.83c.24.3.48.59.72.87h1.74s.09.08.14.12h-1.78c.27.31.53.59.79.86h6.76c.26-.27.52-.56.8-.86h-4.35c-.05-.04-.1-.08-.15-.12h4.61c.24-.28.48-.56.72-.87h-6.03s-.04-.08-.06-.12h6.19c.22-.28.44-.56.65-.86h-7.15s-.02-.08-.03-.12h7.27c.2-.28.4-.57.6-.86h-7.99s0-.08,0-.12h8.08c.18-.28.36-.57.54-.86h-8.64v-.12h8.71c.16-.28.32-.56.48-.85h-9.19v-.12h9.25c.15-.28.29-.57.44-.86h-9.69v-.12h9.75c.14-.28.27-.57.4-.87h-10.15v-.12h10.2c.12-.28.24-.57.35-.86h-5.86l.2-.07s.09-.04.13-.05h5.57c.11-.28.21-.57.31-.87h-4.51s.09-.08.13-.12h4.42c.09-.28.18-.57.27-.86h-3.98l.08-.12h3.93c.08-.29.16-.58.23-.88h-3.71s.03-.08.05-.12h3.69c.07-.28.13-.56.19-.85h-3.6s.02-.08.03-.12h3.59c.06-.29.11-.58.16-.87h-3.59s.01-.08.01-.12h3.6c.05-.28.09-.57.12-.86h-3.67v-.12h3.69c.03-.29.06-.58.09-.87h-3.85s-.01-.08-.02-.12h3.87c.02-.28.04-.57.06-.86h-4.1s-.02-.08-.03-.12h4.14c.01-.29.02-.58.02-.87h-4.46s-.04-.08-.05-.12h4.52v-.34c-.66-.15-1.29-.33-1.9-.52h-3.09s-.05-.08-.08-.12h2.8c-.8-.27-1.56-.56-2.25-.87h-1.28s-.09-.08-.13-.12h1.14c-.62-.28-1.2-.57-1.73-.86h-.73c-.09-.04-.19-.08-.28-.12h.8c-.53-.3-1.01-.59-1.44-.87h0ZM70.8,14.83h.33c-.09.04-.17.08-.26.12h-.32c.08-.04.16-.08.24-.12h0ZM69.33,15.81h.34s-.09.08-.13.12h-.35l.13-.12h0ZM66.09,16.8h.2s-.07.08-.11.12h-.21s.07-.08.11-.12h0ZM67.11,17.79h.26s.02.08.02.12h-.2s-.06-.08-.09-.12ZM67.31,18.78h.09v.12h-.09v-.12ZM67.31,19.76h.09v.12h-.09v-.12h0ZM67.31,20.76h.08v.12h-.08v-.12h0ZM67.31,21.74h.08v.12h-.08v-.12ZM66.96,23.7h.18l.11.12h-.16l-.13-.12h0ZM67.31,24.7h.08v.13h-.08v-.12h0ZM67.31,25.69h.08v.12h-.08v-.12ZM67.31,26.68h.08v.12h-.08v-.12ZM67.31,27.67h.08v.12h-.08v-.12ZM67.31,28.66h.08v.12h-.08v-.12ZM67.31,29.64h.08v.12h-.08v-.12ZM67.31,30.61h.07v.12h-.08v-.12h0ZM67,31.6h.36s-.01.06-.02.09l-.02.03h-.43s.08-.08.11-.12h0ZM66.57,32.59h.27c.06.04.13.08.19.12h-.32s-.09-.08-.14-.12ZM68.44,33.57h.27s.04.08.06.12h-.27s-.04-.08-.05-.12ZM69.12,34.56h.26s.09.08.13.12h-.26s-.09-.08-.14-.12ZM71.47,34.69h-.33s-.09-.08-.13-.12h.3s.1.08.15.12ZM70.62,33.69h-.21s-.04-.08-.06-.12h.21s.04.08.06.12h0ZM70.26,32.71h-.21s-.02-.08-.03-.12h.22s.02.08.03.12h0ZM70.11,31.72h-.25v-.12h.24s0,.08,0,.12h0ZM70.07,30.73h-.21v-.12h.21v.12h0ZM70.07,29.77h-.21v-.12h.21v.12ZM70.07,28.78h-.21v-.12h.21v.12ZM70.07,27.79h-.21v-.12h.21v.12h0ZM74.76,26.81h-.99c.25-.02.5-.06.75-.12h.57s-.09.04-.13.05c-.07.03-.14.05-.2.07ZM76.47,25.81h-.18s.1-.08.14-.12h.17s-.09.08-.13.12ZM77.31,24.83h-.12l.08-.12h.12l-.08.12ZM77.85,23.83h-.1s.04-.08.05-.12h.1s-.03.08-.05.12ZM78.18,22.86h-.09s.02-.08.03-.12h.09s-.02.08-.03.12ZM78.37,21.87h-.08s.01-.08.02-.12h.08s0,.08-.01.12ZM78.43,20.88h-.07v-.12h.07v.12h0ZM78.37,19.89h-.06s-.01-.08-.02-.12h.06l.02.12ZM78.18,18.9h-.05s-.02-.08-.03-.12h.05s.02.08.03.12h0ZM77.85,17.91h-.04s-.04-.08-.05-.12h.04s.04.08.05.12ZM77.32,16.93h-.04s-.05-.08-.08-.12h.04s.06.08.08.12ZM76.5,15.94h-.06s-.09-.08-.14-.12h.06s.09.08.13.12ZM75.05,14.95h-.2c-.11-.04-.23-.09-.35-.12h.26c.1.04.19.08.29.12ZM69.88,24.71h.2v.12h-.2v-.12h0ZM70.08,24.71h.46s.01.08.02.12h-.48v-.12ZM70.54,24.71h.17s.02.08.03.12h-.18s-.01-.08-.02-.12ZM69.88,25.7h.2v.12h-.2v-.12ZM70.08,25.7h.8s.05.08.07.12h-.87v-.12ZM70.88,25.7h.3s.06.08.1.12h-.32s-.05-.08-.07-.12ZM69.88,26.69h.2v.12h-.2v-.12ZM70.08,26.69h1.77c.08.04.16.09.24.12h-2v-.12h0ZM71.85,26.69h.76c.22.07.45.11.68.12h-1.21c-.08-.04-.16-.08-.24-.12h0ZM70.78,16.81h.2s-.08.08-.11.12h-.2s.07-.08.11-.12h0ZM70.98,16.81h3.52s.08.08.12.12h-3.76s.07-.08.11-.12h0ZM74.5,16.81h.28s.07.08.1.12h-.26s-.08-.08-.12-.12ZM70.14,17.79h.2s-.03.08-.05.12h-.21l.05-.12h0ZM70.34,17.79h4.86s.04.08.05.12h-4.96s.03-.08.05-.12ZM75.2,17.79h.19s.03.08.05.12h-.18s-.04-.08-.05-.12ZM69.89,18.78h.2s0,.08,0,.12h-.2v-.12h0ZM70.1,18.78h5.39s0,.08.01.12h-5.41s0-.08.01-.12ZM75.48,18.78h.17s0,.08.01.12h-.17s0-.08-.01-.12ZM69.89,19.77h.19v.12h-.19v-.12h0ZM70.08,19.77h5.34s-.02.08-.04.12h-5.31v-.12h0ZM75.42,19.77h.19s-.02.08-.03.12h-.2s.02-.08.04-.12ZM69.89,20.76h.19v.12h-.19v-.12ZM70.08,20.76h4.78l-.02.03s.04.06.05.1h-4.82v-.12h.01ZM74.87,20.76h.25l-.03.04s.03.06.04.08h-.22s-.03-.06-.05-.1l.02-.02h0ZM69.89,21.74h.2v.12h-.2v-.12ZM70.08,21.74h5.2l.04.12h-5.25v-.12h0ZM75.28,21.74h.18s.02.08.04.12h-.18l-.04-.12ZM69.88,22.73h.2v.12h-.2v-.12ZM70.08,22.73h1.1s-.09.08-.13.12h-.97v-.12ZM71.18,22.73h.44c-.09.03-.18.07-.26.12h-.32s.09-.09.13-.12h0ZM72.69,22.73h.46s.08.08.12.12h-.38c-.06-.05-.13-.09-.2-.12h.01ZM73.15,22.73h2.33s0,.08,0,.12h-2.23s-.08-.09-.12-.12h0ZM75.48,22.73h.17s0,.08,0,.12h-.17s0-.08,0-.12ZM69.88,23.71h.2v.13h-.2v-.12h0ZM70.08,23.71h.51s-.02.08-.03.12h-.48v-.12h0ZM70.59,23.71h.13s-.02.08-.03.12h-.14s.02-.08.03-.12h.01ZM73.43,23.71h.16v.12h-.15s-.01-.08-.02-.12h0ZM73.6,23.71h1.81s-.02.08-.03.12h-1.78v-.12h0ZM75.4,23.71h.21s-.01.08-.02.12h-.22s.02-.08.03-.12h0ZM73.19,24.71h.13s-.07.08-.11.12h-.23c.08-.03.15-.07.21-.12ZM73.32,24.71h1.58s-.07.08-.1.12h-1.6s.08-.08.11-.12h0ZM74.92,24.71h.35s-.05.08-.07.12h-.38s.07-.08.1-.12ZM74.92,35.67h-6.54c.3.31.58.59.85.85h4.81c.27-.26.56-.54.86-.85h0ZM73.93,36.64h-4.55c.35.33.68.62.98.86h2.59c.29-.24.63-.53.98-.86ZM72.79,37.63h-2.29c.37.31.75.6,1.15.86.15-.1.56-.39,1.14-.86h0ZM66.21,17.11c.57-.02,1.4.39,1.4,1.23v4.19l-.73.71.73.67v6.77c0,.47-.11,1.22-.95,1.54.61.74,1.19.61,1.85.24.14,2.04,1.77,2.71,2.84,2.48-1.41-1.03-1.56-2.67-1.57-4.09v-11.81c0-1.16.8-3.23,3.01-3.23,2.47,0,3.84,3.25,2.39,4.97,2.53,4.67-3.5,7.02-3.69,3.49,1.96,1.68,2.42-1.46.8-1.59-2.64-.22-1.84,5.55,2.68,3.74,4.67-1.91,4.46-11.56-2.44-11.74-1.59-.04-3.04,1.22-3.99,2.45-.73-.73-1.5-.91-2.34-.02h0ZM67.31,22.41v-4.08c0-.8-.92-1.01-1.67-.96.73-1.17,1.82-1.56,2.87-.68.7-.98,2.42-2.34,4.02-2.29,7.22.11,7.53,10.47,2.43,12.33-4.94,1.8-5.71-4.55-2.62-4.33,2.01.17,1.38,3.54-.43,2.48.71,2.06,5.23-.05,2.92-4.1,1.53-1.56.2-4.67-2.05-4.7-1.91-.03-2.71,1.76-2.71,2.97v11.47c-.02,2.03.26,3.62,1.94,4.5-1.69.79-3.46-.36-3.77-2.1-.73.31-1.5.09-2.11-.89.63-.08,1.18-.5,1.17-1.47v-6.55l-.84-.79.84-.82h0Z"/>
          </g>
        </g>
      </g>
    </g>
  </g>
</svg>