<?xml version="1.0" encoding="UTF-8"?>
<svg id="Camada_1" data-name="Camada 1" xmlns="http://www.w3.org/2000/svg" xmlns:xlink="http://www.w3.org/1999/xlink" viewBox="0 0 144 76.2">
  <defs>
    <style>
      .cls-1 {
        clip-path: url(#clippath-2);
      }

      .cls-2 {
        clip-path: url(#clippath-6);
      }

      .cls-3 {
        fill: none;
      }

      .cls-3, .cls-4, .cls-5 {
        stroke-width: 0px;
      }

      .cls-6 {
        clip-path: url(#clippath-7);
      }

      .cls-7 {
        clip-path: url(#clippath-1);
      }

      .cls-8 {
        clip-path: url(#clippath-4);
      }

      .cls-4 {
        fill: #1f1a17;
      }

      .cls-5 {
        fill: #fff;
      }

      .cls-9 {
        clip-path: url(#clippath);
      }

      .cls-10 {
        clip-path: url(#clippath-3);
      }

      .cls-11 {
        clip-path: url(#clippath-8);
      }

      .cls-12 {
        clip-path: url(#clippath-5);
      }
    </style>
    <clipPath id="clippath">
      <rect class="cls-3" x="45.7" y="5.8" width="52.8" height="64"/>
    </clipPath>
    <clipPath id="clippath-1">
      <rect class="cls-3" x="45.7" y="5.8" width="52.8" height="64"/>
    </clipPath>
    <clipPath id="clippath-2">
      <rect class="cls-3" x="45.7" y="5.8" width="52.8" height="64"/>
    </clipPath>
    <clipPath id="clippath-3">
      <rect class="cls-3" x="45.7" y="5.8" width="52.8" height="64"/>
    </clipPath>
    <clipPath id="clippath-4">
      <rect class="cls-3" x="45.7" y="5.8" width="52.8" height="64"/>
    </clipPath>
    <clipPath id="clippath-5">
      <rect class="cls-3" x="45.7" y="5.8" width="52.8" height="64"/>
    </clipPath>
    <clipPath id="clippath-6">
      <rect class="cls-3" x="45.7" y="5.8" width="52.8" height="64"/>
    </clipPath>
    <clipPath id="clippath-7">
      <rect class="cls-3" x="45.7" y="5.8" width="52.8" height="64"/>
    </clipPath>
    <clipPath id="clippath-8">
      <rect class="cls-3" x="45.7" y="5.8" width="52.8" height="64"/>
    </clipPath>
  </defs>
  <g class="cls-9">
    <g id="Group">
      <path id="Vector" class="cls-5" d="M98.5,21.2v1.5c-.1.6-.1,1.2-.1,1.8-.4,8.2-2.7,16.2-6.5,23.4-.6,1.1-1.2,2.1-1.8,3.2-.5.8-1.1,1.7-1.6,2.5-.7,1-1.5,2-2.3,3-.6.7-1.2,1.5-1.8,2.2-.7.8-1.3,1.6-2.1,2.3-.6.6-1.2,1.2-1.8,1.8s-1.3,1.2-1.9,1.8c-.8.7-1.6,1.4-2.4,2.1-1.3,1.1-2.7,2.1-4,3.1h-.1v-.1c-1.3-1-2.7-2-4-3.1-.8-.7-1.7-1.4-2.5-2.1-.8-.8-1.7-1.5-2.5-2.4-.7-.7-1.5-1.4-2.1-2.2-.5-.6-1.1-1.2-1.6-1.8-.9-1.1-1.9-2.2-2.7-3.4-.9-1.1-1.6-2.4-2.4-3.6-.6-1.1-1.3-2.2-1.9-3.3-4-7.4-6.2-15.6-6.5-24v-2.8c.1-.4,0-.9.1-1.3.1-1.9.3-3.9.7-5.8,1.1.4,2.3.9,3.7,1.1,2.6.5,5.4.6,8,0,3.5-.7,6.7-2.3,9.4-4.6,1.7-1.4,3.2-3,4.4-4.8.7,1.4,1.7,2.5,2.8,3.6,2.5,2.4,5.4,4.3,8.7,5.3,2.8.9,5.8,1.1,8.7.7,1.9-.2,3.6-.7,5.4-1.3.5,2.1.6,4.3.7,6.5,0,.2,0,.4,0,.7Z"/>
    </g>
  </g>
  <g class="cls-7">
    <g id="Group_2" data-name="Group 2">
      <path id="Vector_2" data-name="Vector 2" class="cls-4" d="M70.4,8.7c.6-.7,1.2-1.4,1.7-2.1,1.1,1.6,2.5,3,4,4.3,2.3,1.9,4.9,3.3,7.8,4.2s6,1.1,9.1.6c1.5-.2,3-.6,4.5-1.1.4,1.9.5,3.8.6,5.7.2,6.8-.9,13.5-3.2,19.9-1.6,4.5-3.8,8.8-6.6,12.7-4.4,6.4-10,11.8-16.2,16.3-3.5-2.5-6.8-5.3-9.7-8.4-3.7-3.9-7-8.2-9.6-13-4.5-8.4-6.9-17.9-6.6-27.4.1-1.9.2-3.9.6-5.8,2.7.9,5.6,1.5,8.5,1.4,3.1-.1,6.1-.9,8.8-2.4,2.3-1.3,4.5-3,6.3-4.9ZM72.1,9.9c-1.5,1.8-3.3,3.2-5.3,4.5-2.6,1.6-5.5,2.7-8.5,3.2-3.3.6-6.7.4-9.9-.3-.1.7-.2,1.4-.3,2.1-.3,4.4,0,8.9.9,13.2.7,3.2,1.6,6.4,2.9,9.4,2.2,5.3,5.3,10.2,9,14.6,3.3,3.8,7,7.3,11.1,10.3,3.6-2.6,6.9-5.6,9.9-8.9,3.2-3.5,5.9-7.3,8.1-11.5,3.1-5.8,5-12.1,5.7-18.6.4-3.5.4-7-.1-10.5-3.7.8-7.6.9-11.2.1-3.1-.7-6-2-8.6-3.9-1.3-1.2-2.6-2.3-3.7-3.7Z"/>
    </g>
  </g>
  <g class="cls-1">
    <g id="Group_3" data-name="Group 3">
      <path id="Vector_3" data-name="Vector 3" class="cls-4" d="M67.6,15.4c1.7-1.1,3.2-2.3,4.5-3.8,1,1.2,2.3,2.3,3.6,3.2,2.6,1.9,5.6,3.2,8.8,3.9,3.4.7,6.9.7,10.3,0,.2,1.7.3,3.3.3,5,0,2.3-.2,4.6-.6,6.9h-44.5c-.3-2.1-.6-4.3-.6-6.4,0-1.8,0-3.6.3-5.5,3.1.6,6.3.7,9.5.2,2.9-.6,5.8-1.8,8.4-3.5ZM57.1,20.8c-.8.3-1.5.9-2,1.6-.7,1.1-.8,2.4-.4,3.6.3,1,.9,1.8,1.8,2.4,1,.6,2.3.7,3.5.4.8-.2,1.6-.8,2.1-1.6-.6-.4-1.2-.7-1.8-1.1-.2.5-.7.9-1.3,1s-1.2,0-1.6-.4c-.5-.5-.7-1.2-.7-1.9s.2-1.5.7-2c.4-.4,1-.5,1.5-.4s1.1.3,1.4.8c.6-.3,1.1-.7,1.7-1.1-.3-.4-.7-.7-1.1-1-1.2-.5-2.6-.7-3.8-.3ZM70.2,20.8c-1,2.7-2,5.4-3,8.1h2.1c.2-.5.3-1,.5-1.5h2.8c.2.5.3,1,.5,1.5h2.2c-1-2.7-2-5.4-3-8.1h-2.1ZM80.6,20.8v8.1h2v-6.1c.6,2,1.1,4,1.7,6.1h1.6c.5-2,1.1-4,1.7-6v6h2v-8.1h-3.1c-.5,1.8-.9,3.6-1.4,5.4-.5-1.8-.9-3.6-1.4-5.4h-3.1Z"/>
    </g>
  </g>
  <g class="cls-10">
    <path id="Vector_4" data-name="Vector 4" class="cls-4" d="M70.4,25.8c.3-.9.6-1.9.9-2.8.3.9.6,1.9.9,2.8h-1.8Z"/>
  </g>
  <g class="cls-8">
    <path id="Vector_5" data-name="Vector 5" class="cls-4" d="M50.2,32.2h7.9v18.6c-3.9-5.6-6.6-12-7.9-18.6Z"/>
  </g>
  <g class="cls-12">
    <path id="Vector_6" data-name="Vector 6" class="cls-4" d="M59.9,32.2h6.9v28.7c-1.9-1.7-3.7-3.6-5.3-5.5-.5-.7-1.1-1.3-1.6-2,0-7.1,0-14.2,0-21.2Z"/>
  </g>
  <g class="cls-2">
    <path id="Vector_7" data-name="Vector 7" class="cls-4" d="M68.7,32.2h6.9v30.3c-1.1.9-2.3,1.9-3.5,2.8-1.2-.9-2.3-1.8-3.4-2.8v-30.3Z"/>
  </g>
  <g class="cls-6">
    <path id="Vector_8" data-name="Vector 8" class="cls-4" d="M77.4,32.2h6.9v21.1c-2.1,2.7-4.4,5.2-6.9,7.5v-28.6Z"/>
  </g>
  <g class="cls-11">
    <path id="Vector_9" data-name="Vector 9" class="cls-4" d="M86.2,32.2h7.9c-1.2,6-3.5,11.8-6.8,17-.3.5-.7,1.1-1,1.6-.1-6.3-.1-12.5-.1-18.6Z"/>
  </g>
</svg>