<?xml version="1.0" encoding="UTF-8"?>
<svg id="Layer_1" data-name="Layer 1" xmlns="http://www.w3.org/2000/svg" xmlns:xlink="http://www.w3.org/1999/xlink" viewBox="0 0 161.22 72.31">
  <defs>
    <style>
      .cls-1 {
        fill-rule: evenodd;
      }

      .cls-1, .cls-2, .cls-3, .cls-4 {
        stroke-width: 0px;
      }

      .cls-1, .cls-4 {
        fill: #e5050f;
      }

      .cls-2 {
        fill: none;
      }

      .cls-3 {
        fill: #fff;
      }

      .cls-5 {
        clip-path: url(#clippath);
      }
    </style>
    <clipPath id="clippath">
      <rect class="cls-2" x="48.61" y="4.15" width="64" height="64"/>
    </clipPath>
  </defs>
  <g id="escudo_internacional" data-name="escudo internacional">
    <g class="cls-5">
      <g id="internacional">
        <g id="layer1">
          <g id="g3460">
            <g id="g3313">
              <path id="path3294" class="cls-3" d="M112.24,36.15c0,17.39-14.1,31.49-31.49,31.49s-31.49-14.1-31.49-31.49,14.1-31.49,31.49-31.49,31.49,14.1,31.49,31.49Z"/>
              <path id="path3294_Stroke_" data-name="path3294 (Stroke)" class="cls-1" d="M80.75,4.91c-17.25,0-31.23,13.98-31.23,31.23s13.98,31.23,31.23,31.23,31.23-13.98,31.23-31.23-13.98-31.23-31.23-31.23ZM49,36.15c0-17.53,14.21-31.75,31.75-31.75s31.75,14.21,31.75,31.75-14.21,31.75-31.75,31.75-31.75-14.21-31.75-31.75Z"/>
              <g id="g3296">
                <path id="path3278" class="cls-3" d="M106.02,36.11c0,13.87-11.24,25.11-25.11,25.11s-25.11-11.24-25.11-25.11,11.24-25.11,25.11-25.11,25.11,11.24,25.11,25.11Z"/>
                <path id="path3278_Stroke_" data-name="path3278 (Stroke)" class="cls-1" d="M80.91,11.25c-13.73,0-24.86,11.13-24.86,24.86s11.13,24.86,24.86,24.86,24.86-11.13,24.86-24.86-11.13-24.86-24.86-24.86ZM55.54,36.11c0-14.01,11.36-25.37,25.37-25.37s25.37,11.36,25.37,25.37-11.36,25.37-25.37,25.37-25.37-11.36-25.37-25.37Z"/>
                <path id="path2416" class="cls-4" d="M104.99,36.1c0,13.31-10.79,24.11-24.1,24.11-13.31,0-24.11-10.79-24.11-24.1h0c0-13.32,10.79-24.11,24.1-24.11,13.31,0,24.11,10.79,24.11,24.1h0Z"/>
                <g id="g3246">
                  <path id="path3188" class="cls-3" d="M90.62,29.97c.14-1.11.61-2.11,1.16-3.08l1.59.72,1.44-1.95,1.44.44c.02,2.57-.05,5.22.9,6.99l-.72.9c-1.63-1.54-3.37-3.01-5.81-4.01Z"/>
                  <path id="path3190" class="cls-3" d="M87.95,32.63c-3.18-.01-.88-3.74-.41-5.16.42-1.28-.21-3.86-2.66-4.77v-3.27c4.81,1.39,5.34,4.6,8.11,3.13v1.62c-4.31,4.42-2.42,8.44-5.04,8.46Z"/>
                  <path id="path3192" class="cls-3" d="M75.12,25.49c4.72-1.19,8.27-.82,11.59-.15.48,1.39.06,2.34-.38,3.27-3.25-.53-6.72-.67-10.91.44-.71-1.07-.77-2.27-.29-3.57Z"/>
                  <path id="path3194" class="cls-3" d="M77.91,22.69c-5.67.96-4.39,7.67,0,9.48v5.85c-12.45-3.59-10.2-17.13,0-18.5v3.16Z"/>
                  <path id="path3196" class="cls-3" d="M84.04,43.72c-1.69.23-3.44.19-5.23,0v-14.63c1.74-.18,3.49-.24,5.23,0v14.63Z"/>
                  <path id="path3202" class="cls-3" d="M60.47,36.42c3.03-1.47,3.7-4.68,8.12-7.92.13,1.5.3,2.97.94,4.06-1.87,2.7-1.75,5.27,1.05,8.39-.65,1.49-1.44,2.56-2.3,3.43-3.94-2.34-4.84-5.39-7.8-7.96Z"/>
                  <path id="path3204" class="cls-3" d="M74.56,47.23c1.12-1.24,1.43-2.16,1.91-3.14,2.98.63,6.45.88,11.66-.18.54,1.09.34,2.11.15,3.14-3.09,1.11-8.84,1.37-13.73.18Z"/>
                  <path id="path3206" class="cls-3" d="M65.96,46.75l.38,1.66,2.3.15c2.65,1.88,5.48,3.64,9.34,4.77v-3.24c-2.09-.36-3.44-1.41-4.44-2.78,2.97-3.2,3.58-7.21,1.69-8.03-2.5-1.09-3.62,1.47-5.05,3.78-.93,1.51-2.28,3.01-4.23,3.69Z"/>
                  <path id="path3208" class="cls-3" d="M84.06,19.33c.01-2.48,1.91-2.18,2.81-1.29-.13-3.11-2.65-3.48-3.86-2.36-.36-.59-.82-1.04-1.56-1.4-.66.31-1.19.77-1.59,1.37-1.14-1.04-3.74-.78-3.86,2.34.96-.83,2.77-1.12,2.77,1.35v4.74c1.71-.13,3.47-.14,5.29-.01v-4.74Z"/>
                  <path id="path3216" class="cls-3" d="M84.06,53.44c.01,2.48,1.91,2.18,2.81,1.29-.13,3.11-2.65,3.48-3.86,2.36-.36.59-.82,1.04-1.56,1.4-.66-.31-1.19-.77-1.59-1.37-1.14,1.04-3.74.78-3.86-2.34.96.83,2.77,1.12,2.77-1.34v-4.74c1.71.13,3.47.14,5.29.01v4.74Z"/>
                  <path id="path3218" class="cls-3" d="M84.83,34.53v5.61c6.41,2.13,5.4,10.12.08,9.93v3.23c6.87-.68,9.53-4.94,9.58-9.1.05-4.76-3.72-8.13-9.66-9.66Z"/>
                  <path id="path3222" class="cls-3" d="M95.19,43.99c0-.73.07-1.38-.41-2.82l1.48-.98,1.67,1.37c-.65.98-1.65,1.74-2.74,2.43Z"/>
                </g>
              </g>
            </g>
            <path id="_1" data-name="1" class="cls-4" d="M73.99,62.34l-.88,3.38-.93-.24.58-2.22c-.18.08-.35.13-.51.16-.16.03-.35.06-.58.07l.2-.76c.34-.02.62-.08.83-.17.21-.1.39-.24.55-.42l.76.2Z"/>
            <path id="_9" data-name="9" class="cls-4" d="M76.65,65.66h.96c0,.15.04.25.09.31.05.06.12.1.2.11.15.02.28-.04.39-.18.08-.1.16-.34.24-.7-.13.1-.26.17-.38.21-.13.04-.27.05-.42.02-.3-.04-.55-.19-.73-.43-.18-.25-.24-.53-.2-.87.03-.23.11-.42.25-.59.13-.17.3-.29.5-.36.2-.07.44-.08.73-.04.34.05.61.14.79.29.19.14.33.35.41.63.09.27.1.62.04,1.03-.09.61-.28,1.05-.58,1.3-.3.25-.68.34-1.13.28-.27-.04-.48-.1-.63-.18-.15-.09-.26-.2-.35-.33-.09-.14-.15-.3-.18-.49ZM78.6,64.38c.03-.18,0-.33-.08-.45-.08-.12-.18-.19-.32-.21-.13-.02-.24.01-.33.1-.1.08-.16.22-.18.41-.03.19,0,.34.07.45.07.11.17.18.3.2.13.02.25-.01.35-.1.1-.09.17-.22.19-.4Z"/>
            <path id="_0" data-name="0" class="cls-4" d="M82.19,65.08c-.09-.65-.03-1.12.16-1.41.2-.29.54-.47,1.01-.53.23-.03.42-.03.58,0,.15.04.28.09.39.17.1.08.19.16.26.26.07.09.13.2.18.33.1.25.17.51.2.78.08.62.04,1.08-.13,1.4-.17.31-.51.51-1.02.58-.29.04-.52.02-.71-.04-.19-.07-.35-.18-.49-.34-.1-.11-.19-.28-.26-.49-.07-.21-.13-.45-.17-.71ZM83.12,64.96c.06.43.14.72.23.87.1.15.22.21.37.19.1-.01.17-.06.24-.13.06-.08.1-.19.11-.34.01-.15,0-.38-.04-.69-.06-.45-.14-.75-.24-.89-.1-.15-.22-.21-.38-.19-.16.02-.26.12-.31.29-.05.17-.04.47.01.89Z"/>
            <path id="_9_2" data-name="9_2" class="cls-4" d="M87.76,65.02l.91-.29c.05.13.11.21.17.25.07.04.14.06.23.04.15-.03.25-.12.31-.29.04-.12.04-.37,0-.74-.09.14-.19.24-.3.32s-.24.13-.4.16c-.3.06-.58,0-.83-.18-.25-.18-.4-.43-.46-.76-.04-.22-.03-.44.05-.64.07-.2.19-.37.36-.5.17-.13.39-.22.67-.27.34-.06.62-.05.85.03.23.08.42.23.59.46.17.23.29.55.37.97.11.61.06,1.08-.14,1.41-.21.33-.54.54-.99.62-.27.05-.49.06-.65.02-.17-.03-.31-.1-.44-.2-.12-.1-.23-.24-.32-.41ZM89.22,63.2c-.03-.18-.11-.32-.22-.4-.11-.09-.23-.12-.37-.1-.12.02-.22.09-.29.2-.06.11-.08.26-.05.44.03.19.1.33.21.41.1.08.22.11.35.09.13-.02.23-.09.3-.21s.09-.26.06-.44Z"/>
          </g>
        </g>
        <path id="Vector" class="cls-4" d="M108.46,36.57l-.06-1.7,2.56-.09-.04-1.11-3.27.11.1,2.81.71-.02ZM108.33,29.89l-.26-1.04,1.29.25-1.03.79ZM106.66,28.6l.64.11.41,1.64-.51.38.3,1.18,2.79-2.35-.29-1.17-3.59-.85.27,1.06ZM103.89,22.32l.49.92,1.95-1.03-1.27,2.29.68,1.26,2.89-1.53-.49-.92-1.94,1.02,1.24-2.33-.65-1.22-2.89,1.53ZM101.94,17.11c.52-.44,1.02-.44,1.39-.02.39.45.32.94-.21,1.4-.49.42-.94.41-1.34-.05-.39-.45-.34-.89.17-1.33ZM101.23,18.83c.91,1.04,1.82,1.2,2.64.49.84-.73.84-1.65-.03-2.64-.88-1-1.82-1.15-2.63-.45-.84.72-.84,1.62.01,2.6ZM97.37,15.11l.88.68,2.02-2.56-.88-.68-2.02,2.56ZM95.5,11.27l1.01.56c.32-.68,0-1.31-1-1.86-1.15-.63-2.09-.42-2.63.55-.49.88-.17,1.75.9,2.34,1.09.6,1.83.57,2.32-.15l-1.01-.56c-.24.3-.55.36-.91.16-.49-.27-.59-.73-.28-1.29.32-.58.79-.75,1.28-.47.31.17.42.41.31.71ZM89.13,9.44l-1.04-.28.84-1,.2,1.28ZM87.18,10.27l.41-.5,1.64.44.08.63,1.18.31-.72-3.56-1.18-.31-2.49,2.71,1.06.28ZM80.37,9.58h1.05s0-2.2,0-2.2l1.4,2.2,1.44.11.19-3.33h-1.05s-.17,2.18-.17,2.18l-1.47-2.22h-1.39s0,3.28,0,3.28ZM75.33,7.52l.61-.11c.3-.05.44.01.48.25.04.22-.08.34-.37.39l-.61.11-.11-.64ZM74.71,10.26l1.08-.19-.22-1.25.68-.12c.31-.05.43-.02.5.29l.11.44c.04.16.08.3.16.43l1.12-.2c-.11-.23-.18-.4-.22-.52l-.15-.52c-.12-.41-.35-.51-.87-.45.5-.13.75-.47.67-.88-.05-.28-.21-.5-.42-.6-.27-.12-.63-.05-1.16.04l-1.85.32.57,3.2ZM69.74,11.97l2.79-1.06-.26-.66-1.77.67-.23-.59,1.58-.6-.25-.65-1.58.6-.19-.49,1.7-.65-.25-.65-2.73,1.04,1.17,3.04ZM65.8,14.24l.95-.59-1.36-2.15,1.03-.64-.38-.61-3.02,1.87.38.61,1.03-.64,1.36,2.15ZM60.38,19.14l.73-.75-1.59-1.52,2.59.5,1-1.03-2.36-2.26-.73.75,1.58,1.52-2.61-.45-.96.99,2.36,2.26ZM58.34,22.04l.61-.93-2.75-1.77-.61.93,2.75,1.77ZM57.13,24.23l-.7-.32-.42.89.7.32.42-.89ZM53.97,26.08l.38-1.09c-.73-.2-1.3.23-1.67,1.3-.43,1.23-.05,2.11,1,2.47.96.33,1.76-.13,2.17-1.29.41-1.17.25-1.89-.55-2.25l-.38,1.09c.34.18.45.48.32.86-.18.53-.62.71-1.23.5-.63-.22-.88-.64-.69-1.17.12-.33.33-.48.65-.43ZM54.71,31.61l-.77-.11-.14.97.77.11.14-.97ZM53.26,35.38l-.04,1.07h.05c.78.03,1.11-.47,1.14-1.58.04-1.17-.32-1.8-.97-1.82-.29-.01-.55.1-.71.31-.21.26-.29.6-.4,1.01-.15.59-.19.86-.42.85-.15,0-.24-.18-.22-.49.01-.4.14-.6.37-.59h.01s.04-1.02.04-1.02h-.04c-.66-.02-.99.48-1.02,1.55-.04,1.1.29,1.67.93,1.7.26,0,.48-.07.64-.24.26-.27.36-.7.51-1.28.12-.45.16-.68.37-.67.17,0,.28.21.27.56-.02.45-.14.66-.4.65-.03,0-.06,0-.1-.01Z"/>
      </g>
    </g>
  </g>
</svg>