<?xml version="1.0" encoding="UTF-8"?>
<svg id="Layer_1" data-name="Layer 1" xmlns="http://www.w3.org/2000/svg" xmlns:xlink="http://www.w3.org/1999/xlink" viewBox="0 0 118.92 64">
  <defs>
    <style>
      .cls-1 {
        fill: #fefefe;
      }

      .cls-1, .cls-2, .cls-3, .cls-4, .cls-5, .cls-6, .cls-7, .cls-8, .cls-9, .cls-10 {
        stroke-width: 0px;
      }

      .cls-2 {
        fill: #0f2d5b;
      }

      .cls-3 {
        fill: #091d3c;
      }

      .cls-3, .cls-8, .cls-9 {
        fill-rule: evenodd;
      }

      .cls-4 {
        fill: none;
      }

      .cls-5 {
        fill: #e41349;
      }

      .cls-6, .cls-8 {
        fill: #fff;
      }

      .cls-7 {
        fill: #d3d3d3;
      }

      .cls-11 {
        clip-path: url(#clippath);
      }

      .cls-9 {
        fill: #fdd205;
      }

      .cls-10 {
        fill: #001d46;
      }
    </style>
    <clipPath id="clippath">
      <rect class="cls-4" x="27.46" y="6" width="64" height="51.66"/>
    </clipPath>
  </defs>
  <g id="escudo_bragantino" data-name="escudo bragantino">
    <g class="cls-11">
      <g id="bragantino">
        <g id="Layer_2" data-name="Layer 2">
          <g id="svg6302">
            <path id="path4004" class="cls-8" d="M36.69,6v34.62c0,2.74.35,3.79,1.19,5.25l.05.08.05.08c2.37,3.58,5.59,6.51,9.38,8.54,3.78,2.03,8.01,3.09,12.3,3.09s8.52-1.06,12.3-3.09c3.78-2.03,7-4.96,9.38-8.54l.05-.08.05-.08c.84-1.46,1.19-2.52,1.19-5.25V6h-45.93Z"/>
            <path id="path4008" class="cls-2" d="M37.23,6.54v34.08c0,2.73.37,3.65,1.13,4.99l.03.07.03.07c2.33,3.5,5.48,6.37,9.19,8.36,3.7,1.99,7.84,3.02,12.05,3.02s8.34-1.04,12.04-3.02c3.7-1.99,6.86-4.86,9.19-8.36l.05-.07.03-.07c.77-1.32,1.11-2.25,1.11-4.99V6.54h-44.86ZM37.92,7.22h43.48v33.39c0,2.58-.31,3.4-1.03,4.64l-.03.05-.02.03c-2.26,3.41-5.33,6.2-8.93,8.14-3.6,1.93-7.63,2.95-11.72,2.95s-8.12-1.01-11.72-2.95c-3.6-1.93-6.67-4.73-8.93-8.14l-.03-.03-.03-.05c-.71-1.25-1.03-2.06-1.03-4.64V7.22h0ZM38.22,7.51v33.1c0,2.51.29,3.29.98,4.49l.03.05.02.03c2.23,3.37,5.27,6.13,8.83,8.04,3.56,1.91,7.54,2.91,11.58,2.91s8.02-1,11.58-2.91c3.56-1.91,6.59-4.67,8.83-8.04l.03-.03.02-.05c.69-1.2.99-1.98.99-4.49V7.51h-42.88ZM39.45,8.76h40.41v31.85c0,2.36-.27,2.91-.82,3.87-2.12,3.2-5,5.82-8.38,7.64-3.38,1.82-7.16,2.77-11,2.77s-7.62-.95-11-2.77c-3.38-1.82-6.26-4.44-8.38-7.64-.55-.96-.82-1.51-.82-3.87V8.76h0Z"/>
            <path id="path4024" class="cls-5" d="M57.11,10.09v4.14c-.44-.45-1.05-.7-1.68-.7-1.38,0-2.5,1.23-2.5,2.74s1.12,2.72,2.5,2.72c.32,0,.63-.07.92-.19.29-.12.56-.3.78-.53v.67h1.65v-8.86h-1.67ZM74.05,10.14v8.83h1.66v-8.83h-1.66ZM76.88,10.14v8.83h1.66v-8.83h-1.66ZM40.64,10.56v8.38h1.78v-6.94h1.06c.15,0,.3.02.44.07.14.05.27.13.37.23.11.1.19.23.25.36.06.14.09.28.09.43,0,.15-.04.3-.1.43-.06.14-.15.26-.26.36-.11.1-.24.18-.38.23-.14.05-.29.08-.44.07h-.42v2l1.78,2.74h2.09l-2.47-3.5c.6-.13,1.13-.48,1.49-.98s.51-1.12.44-1.73c-.08-.61-.38-1.17-.84-1.57-.47-.4-1.07-.61-1.68-.59h-3.2ZM61.06,10.61v8.33h3.7c1.41-.02,2.55-1.09,2.55-2.4,0-.96-.33-1.64-1.46-2.16.22-.19.4-.43.53-.69.13-.27.2-.55.21-.85.01-.29-.04-.59-.14-.86-.11-.27-.27-.52-.47-.73-.4-.44-1.1-.63-2.06-.63h-2.86ZM62.85,12.05h1.13c.23.01.45.11.6.27.16.17.25.39.25.62s-.09.45-.25.62c-.16.17-.37.26-.6.27h-.58v1.49h1.06c.29,0,.56.11.76.32.2.2.32.48.32.76s-.11.56-.32.76c-.2.2-.48.32-.76.32h-1.61v-5.43ZM49.43,13.52c-.74,0-1.46.3-1.98.82-.53.53-.82,1.24-.82,1.98s.3,1.46.82,1.98c.53.53,1.24.82,1.98.82,1.17,0,2.08-.53,2.55-1.35l-1.37-.63c-.09.2-.24.36-.43.48-.19.12-.4.18-.62.17-.14,0-.29-.02-.42-.07-.13-.05-.26-.12-.36-.22-.1-.1-.19-.21-.25-.34-.06-.13-.09-.27-.1-.41,0-.04-.02-.03-.02-.07h3.7c.01-.11.02-.23.02-.34.03-1.81-1.18-2.81-2.71-2.81h0ZM67.9,13.81v3.35c0,1.13,1.18,2.04,2.62,2.04s2.6-.9,2.6-2.04v-3.34h-1.64v3.02c0,.25-.1.5-.28.68-.18.18-.42.28-.68.28s-.5-.1-.68-.28c-.18-.18-.28-.42-.28-.68v-3.02h-1.66ZM49.45,14.69c.27,0,.53.11.73.3.19.19.3.45.3.73h-2.06c0-.27.11-.53.3-.72.19-.19.45-.3.72-.3h0ZM55.91,14.96c.68,0,1.22.61,1.22,1.34s-.54,1.35-1.22,1.35c-.17,0-.34-.05-.49-.12-.15-.07-.29-.17-.41-.3-.11-.13-.2-.27-.26-.43-.06-.16-.08-.33-.08-.5,0-.73.55-1.34,1.23-1.34h0Z"/>
            <path id="path4048" class="cls-9" d="M71.6,30.5c0,2.37-.7,4.69-2.02,6.67-1.32,1.97-3.19,3.51-5.39,4.42s-4.61,1.15-6.93.68c-2.33-.46-4.47-1.61-6.14-3.28-1.68-1.68-2.82-3.82-3.28-6.15-.46-2.33-.22-4.74.68-6.93.91-2.19,2.45-4.07,4.42-5.39s4.29-2.02,6.67-2.02c3.18,0,6.23,1.27,8.49,3.52,2.25,2.25,3.51,5.3,3.51,8.49Z"/>
            <path id="path4052" class="cls-6" d="M70.03,34.39c-.12-.23-.54-.75-.48-1.07.31.04.77.04.95.05-.06.1-.41.9-.47,1.02ZM91.43,37.96c-.02-.09-.05-.18-.09-.27l-.03-.07c-.02-.06-.04-.12-.07-.18,0-.03-.02-.06-.02-.08,0-.02,0-.03,0-.05.03-.26-.04-.53-.19-.75-.03-.07-.08-.13-.14-.17-.06-.04-.13-.07-.2-.08-.01.03-.04.06-.07.08-.03.02-.07.03-.1.03h-.04s-.09-.04-.11-.07c-.03-.04-.04-.08-.04-.13v-.07c0-.09-.02-.18-.06-.26-.12-.22-.94-.89-1.25-.89-.14,0-.27.04-.4.11-.12.06-.23.15-.32.26-.02.02-.04.04-.06.05-.02.01-.05.02-.08.02h-.02s-.06-.01-.08-.03c-.02-.02-.05-.04-.06-.06-.03-.05-.05-.11-.07-.16-.05-.15-.09-.3-.12-.45l-.03-.11c-.09-.38-.22-.77-.73-.91-.05-.01-.11-.02-.16-.03-.06,0-.12,0-.18,0h-.05c-.1,0-.21,0-.31-.02-.21-.03-.35-.1-.35-.33,0-.02,0-.04,0-.06l.06-.16c.06-.17.11-.34.15-.51.09-.36.1-.73.02-1.09,0-.03,0-.05,0-.08,0-.03.02-.05.04-.07.02-.02.04-.04.06-.05.02-.01.05-.02.08-.02h.03c.14.02.28.03.43.03,1.1,0,2.83-.71,2.83-2.61,0-1.1-.89-2.14-1.63-2.82-.02-.02-.04-.05-.05-.08,0-.03-.01-.06,0-.1,0-.03.02-.06.05-.08.02-.02.05-.04.08-.05,1.06-.28,1.64-.98,1.64-1.98v-.08c0-.18,0-.35-.03-.52-.05-.27-.15-.52-.3-.75-.01-.02-.03-.03-.04-.04-.02,0-.04-.01-.06-.01-.01,0-.03,0-.04,0-.04.01-.08.03-.12.06-.1.07-.24.19-.36.28-.15.12-.32.21-.5.27-.13.04-.27.08-.42.12l-.24.07c-.62.16-1.19.46-1.67.89-.29.27-.47.65-.49,1.05,0,.38.13.74.37,1.03.26.34.55.65.86.93l.11.11.33.34c.17.17.29.3.4.43.21.22.34.51.37.81,0,.51-.37.86-.92.86-.61,0-1.09-.24-1.74-.67l-.31-.21c-.22-.15-.44-.3-.69-.46-.42-.27-.87-.5-1.32-.71-.24-.11-.48-.19-.74-.26-.19-.05-.37-.09-.54-.12h-.08c-.39-.07-.76-.21-1.09-.42l-.32-.21c-.19-.13-.38-.26-.58-.38-.3-.2-.62-.35-.96-.47-.1-.03-.19-.05-.29-.06l-.15-.02-.12-.02c-.17-.02-.34-.07-.49-.15-.1-.06-.19-.12-.31-.2-.08-.06-.15-.12-.22-.17l-.05-.04c-.23-.18-.47-.34-.73-.48-.44-.23-.92-.4-1.41-.5l-.08-.02c-.16-.04-.31-.07-.43-.11-.06-.02-.11-.04-.16-.07-.02-.01-.04-.02-.06-.04-.01,0-.02-.02-.03-.03-1.05-1.32-2.31-1.43-2.67-1.43-.08,0-.16,0-.23.01-.42.05-.92.42-1.36.77-.16.13-.32.27-.48.41-.33.28-.67.58-1.01.81-1.74,1.24-2.37,1.73-3.2,2.63-1.11,1.22-1.47,2.76-1.77,4.13l-.02.1c-.14.67-.31,1.33-.53,1.97-.22.65-.57,1.24-1.03,1.75-.17.18-.35.35-.54.52-.08.07-.16.13-.25.19l-.04.03c-.08.04-.15.11-.18.2-.04.08-.04.18-.02.27.07.22.35.44.82.45.03,0,.05,0,.08.02.02.01.05.03.06.05.02.02.03.05.03.07,0,.03,0,.05,0,.08-.01.04-.01.08,0,.11,0,.04.03.07.05.1.16.16.38.26.61.27h.08c.4,0,.79-.08,1.16-.23.37-.16.69-.39.96-.68.02-.02.04-.03.06-.04.02,0,.05-.01.07-.01.05,0,.09.02.12.05.25.22.57.34.91.33h.04c.17,0,.34-.02.51-.04.08,0,.16-.02.23-.02h.19c.14.02.27.05.4.1.12.04.25.09.38.14l.12.05c.3.13.61.21.93.24h.05c.23-.01.45-.1.63-.24.18-.15.3-.35.36-.57.01-.04.03-.07.06-.09.03-.02.07-.03.11-.03.04,0,.08.02.11.04.03.02.05.06.06.1.02.07.03.14.05.2.07.29.22.55.44.75.07.06.16.09.26.11.15.02.29.03.44.03.04,0,.08.01.11.04.03.03.07.06.1.09.04.04.09.09.13.12.05.04.1.08.16.1.92.31,2.11.65,2.72.66h.02c.82,0,1.1-.79,1.18-1.12,0-.03.03-.06.05-.09.02-.02.06-.04.09-.05.77-.15,1.18-1.3,1.18-1.49,0-.37-.15-.51-.51-.54h-1.33s-.06,0-.09.01c-.02,0-.03,0-.05,0-.03,0-.06,0-.09-.02s-.05-.04-.06-.06c-.02-.03-.05-.06-.08-.09-.03-.02-.07-.04-.11-.05-.03,0-.06-.02-.09-.05-.02-.02-.04-.05-.05-.09,0-.03,0-.06,0-.09,0-.03.03-.06.05-.08.03-.02.05-.05.08-.07.03-.03.08-.05.12-.05.19,0,.53.02.87.02h.42c.27-.02.49-.04.73-.07.44-.06.88-.09,1.33-.09l1.25.06c.24,0,.49-.03.72-.1.02,0,.04,0,.05,0,.03,0,.07,0,.1.03.02.01.04.03.06.06.01.02.02.05.03.07.06.58.27,1.13.6,1.61.09.12.2.22.32.3.07.05.15.09.22.14l.13.08c.33.2.74.46,1.25.46.14,0,.28-.02.42-.05.15-.04.31-.06.47-.06.08,0,.16,0,.23.01.18.02.35.06.53.1h.04c.24.07.47.17.69.3.17.1.34.21.49.32l.04.03c.3.23.61.46,1.04.46h.05s.05,0,.07-.02l.08-.02.19-.08c.07-.03.15-.06.23-.07h.04s.06,0,.08.02c.03.01.05.03.06.06.02.03.05.07.07.11.04.07.09.14.14.22.17.22.47.5,1.18.52h.19c.23,0,.47-.01.7-.04h.03s.07.01.1.03c.07.05.16.08.24.08.24-.01.48-.06.7-.14.12-.04.23-.1.33-.17.1-.06.17-.15.19-.27.01-.09,0-.18-.02-.26M49.8,33.66c-.12.15-.31.19-.47.5-.34-.13-.4-.58-.46-.77.27-.05.91-.17,1.24-.22-.13.14-.24.31-.31.5M57.83,35.06c-.29-.18-.52-.43-.68-.73-.06-.1-.12-.21-.17-.31l-.06-.12c-.07-.14-.15-.27-.25-.4-.04-.05-.08-.1-.13-.15l-.14-.14s-.08-.09-.12-.13c-.03-.03-.05-.07-.07-.11-.6-1.54-.74-2.4-.96-3.93-.11-.79-.59-1.42-1.37-2.38-.1-.12-.21-.26-.32-.41-.08-.1-.16-.21-.25-.32-.2-.25-.41-.5-.63-.72l-.75-.63c-.32-.27-.58-.5-.83-.7-.4-.33-.81-.65-1.25-.94-.54-.38-1.18-.58-1.84-.59-.46-.01-.91.1-1.3.32-.45.32-.93.59-1.44.81-.34.14-.69.26-1.14.4l-.46.15c-.42.15-.8.39-1.12.7l-.18.17c-.06.06-.12.12-.18.17-.08.08-.17.15-.27.19-.13.03-.25.05-.38.06l-.28.02h-.19c-.5.06-.97.27-1.35.61-.16.13-.3.26-.44.38l-.07.06c-.14.13-.28.25-.44.35-.37.22-.8.34-1.23.35-.23.02-.46.05-.69.09-.29.06-.57.15-.84.28-.35.17-.69.37-1.01.6-.17.12-.33.24-.5.36l-.43.31c-.64.45-1.2.75-1.8.75s-1.01-.35-1.07-.88c-.05-.47.19-.96.68-1.35l.27-.22c.19-.16.38-.31.56-.46.23-.19.44-.4.63-.64.18-.22.3-.49.35-.77.05-.28.04-.57-.05-.84-.14-.58-.58-.96-1.35-1.18-.26-.08-.53-.13-.8-.17l-.09-.02-.21-.03c-.06,0-.12-.02-.17-.04-.51-.27-1.01-.57-1.48-.9l-.07-.05-.05.07c-.16.23-.29.42-.38,1.23-.11.9.63,1.99,1.91,2.19.03,0,.07.02.09.05.03.02.04.05.05.09,0,.03,0,.07,0,.1-.01.03-.03.06-.06.09-1.35,1.06-1.64,1.51-1.71,2.71-.02.36.03.72.15,1.07s.31.65.56.92c.54.58,1.32.88,2.27.88.26,0,.53-.02.79-.06h.03s.09.02.12.05c.03.03.05.07.06.12.06.83.21,1.5.4,1.8.02.04.03.08.03.12,0,.04-.03.08-.06.11-.08.07-.17.12-.26.15-.37.13-.76.19-1.15.18-.27,0-.47.19-.63.59-.05.13-.1.27-.14.4v.04c-.03.07-.05.13-.07.19-.02.05-.04.09-.06.14-.07.11-.15.21-.25.29-.03.03-.08.04-.12.04h-.03s-.05-.02-.07-.03c-.02-.02-.04-.04-.05-.06-.06-.12-.15-.22-.26-.3-.11-.08-.23-.13-.36-.16h-.05c-.3.03-.59.14-.83.31-.25.18-.44.42-.56.69-.01.03-.03.06-.06.08-.03.02-.06.03-.09.04h-.03c-.14,0-.28.05-.4.14s-.2.2-.25.34c-.05.12-.08.25-.1.38l-.02.09c-.02.1-.04.2-.06.3-.02.08-.05.16-.09.23l-.06.11s-.03.05-.04.07c-.04.08-.07.16-.08.25,0,.09,0,.18.03.26.02.06.05.12.1.17.04.05.1.09.16.11.13.06.26.11.4.14.21.05.42.08.63.09.04,0,.08-.01.12-.03.03-.02.06-.04.08-.06.03-.03.08-.04.12-.04h.03l.13.03.38.08h.02l.36.07c.06,0,.11.02.14.02.03,0,.06,0,.09,0,.58-.03.81-.25.96-.46.05-.06.09-.13.12-.19l.07-.11.05-.08c.05-.08.09-.15.14-.22.02-.02.04-.04.07-.05.03-.01.05-.02.08-.02.02,0,.03,0,.05,0,.07.02.13.03.19.04.13.02.25.03.3.04.04,0,.07,0,.11,0,.54,0,.94-.3,1.27-.58l.11-.09c.05-.04.1-.09.15-.13.08-.07.16-.13.24-.19.12-.1.27-.15.43-.16h.03c.13,0,.62.04,1.44.17.04,0,.07,0,.11,0,.25-.02.49-.08.71-.19.23-.11.46-.23.67-.36.06-.04.13-.07.19-.09h.02c.07-.04.14-.07.21-.11.19-.09.36-.22.49-.38.13-.2.25-.4.34-.62l.14-.27c.07-.15.15-.32.23-.47.02-.03.04-.06.07-.07.03-.02.06-.03.09-.03h.05c.28,0,.56-.03.83-.08l.34-.05c.25-.04.46-.07.61-.08.04,0,.14,0,.29.02l.33.02c.41.02.75.04,1.03.04.17,0,.31,0,.43-.01.2-.01.39-.05.58-.1.05-.01.1-.03.15-.05.02,0,.05-.01.07-.01.02,0,.05,0,.07.01.02,0,.04.02.06.04.09.09.19.17.28.26.03.02.05.05.05.09,0,.03,0,.07,0,.1-.01.03-.03.06-.06.08-.03.02-.06.03-.1.04h-.11c-.16.02-.31.09-.43.2-.03.03-.06.05-.1.06-.04.01-.08,0-.12,0-.02-.01-.05-.02-.08-.03-.05-.01-.1-.02-.15-.02h-.23c-.29,0-.59.01-.88.06-.17.02-.33.07-.48.15-.07.03-.13.08-.17.14-.04.06-.06.14-.06.21.02.34.5,1.26.83,1.59.15.1.34.14.52.13h.09s.07.01.09.03c.03.02.05.04.07.07.33.66.91,1.1,1.44,1.1h.03c.5-.02,1.86-.51,2.82-.96h.04s.07-.03.1-.03l.19-.02h.1c.21-.03.42-.08.62-.16.16-.08.38-.38.59-.77.02-.03.04-.05.07-.07.03-.02.06-.03.09-.03h.02s.07.02.1.04c.03.02.05.05.06.09.02.07.05.14.08.21.08.15.21.28.36.36.15.08.33.12.5.1h.07c.29-.03.58-.09.86-.19l.15-.05c.21-.08.43-.14.65-.19.08-.01.17-.02.25-.02h.14l.26.02h.18c.08.01.17.02.26.02.21,0,.42-.03.62-.12.21-.09.4-.2.58-.34l.05-.03s.07-.03.11-.03c.04,0,.09.02.12.05.62.55,1.42.85,2.25.85h.12c.11,0,.22-.01.33-.06.1-.04.19-.11.27-.19.04-.05.06-.1.08-.16.01-.06,0-.12,0-.18-.01-.05,0-.1.02-.14.03-.04.07-.07.12-.08.16-.02.32-.09.45-.19.05-.04.09-.09.12-.15.03-.06.05-.12.05-.18,0-.04,0-.07-.02-.11-.01-.03-.04-.06-.06-.09-.17-.14-.35-.26-.55-.36"/>
            <path id="path4056" class="cls-6" d="M53.55,23.3c0-1.19.35-2.35,1.01-3.34.66-.99,1.6-1.76,2.7-2.21s2.31-.57,3.47-.34c1.17.23,2.24.8,3.08,1.65.84.84,1.41,1.91,1.64,3.08.23,1.17.11,2.38-.34,3.47-.46,1.1-1.23,2.04-2.22,2.7-.99.66-2.15,1.01-3.34,1.01-.79,0-1.57-.16-2.3-.46-.73-.3-1.39-.74-1.95-1.3-.56-.56-1-1.22-1.3-1.95-.3-.73-.46-1.51-.46-2.3Z"/>
            <path id="path4060" class="cls-7" d="M55.05,26.55c.92.65,2.01,1.03,3.13,1.09s2.24-.21,3.22-.77c.98-.56,1.78-1.38,2.31-2.38.53-1,.76-2.12.67-3.25-.04-.34-.1-.69-.19-1.02.82,1.21,1.12,2.7.85,4.14-.27,1.44-1.1,2.71-2.3,3.54-1.2.83-2.68,1.16-4.12.9-1.44-.25-2.72-1.06-3.57-2.25"/>
            <path id="Vector" class="cls-3" d="M59.57,17.74c-.6,0-1.2.1-1.76.29l1.06.86c.82-.06,1.64-.05,2.45.03.15-.24.26-.5.32-.77-.66-.27-1.36-.41-2.07-.41Z"/>
            <path id="Vector_2" data-name="Vector 2" class="cls-3" d="M55.78,19.23c-.76.71-1.31,1.62-1.58,2.62.12-.18.4-.59.72-.99.25-.56.54-1.1.86-1.63Z"/>
            <path id="Vector_3" data-name="Vector 3" class="cls-3" d="M57.8,20.58s-1.52.68-2.1.98c-.06.83-.05,1.67.03,2.5.71.25,1.44.46,2.18.63,0,0,.96-1.54,1.3-2.19-.43-.67-.9-1.31-1.41-1.92Z"/>
            <path id="Vector_4" data-name="Vector 4" class="cls-3" d="M62.68,20.63c-.4.58-.76,1.2-1.06,1.83.49,1.02,1.15,2.13,1.15,2.13.57-.14,1.12-.34,1.64-.62.13-1.78-.07-2.38-.07-2.38-.53-.43-1.67-.96-1.67-.96Z"/>
            <path id="Vector_5" data-name="Vector 5" class="cls-3" d="M54.14,24.54c.27,1.19.93,2.25,1.87,3.03.08-.06.16-.12.22-.19-.44-.63-.85-1.28-1.22-1.95,0,0-.58-.58-.87-.89Z"/>
            <path id="Vector_6" data-name="Vector 6" class="cls-3" d="M61.5,26.56l-2.42.07-.93,1.32c.54.37,1.15.63,1.8.76.7-.19,1.37-.47,2.01-.82l-.46-1.32Z"/>
            <path id="path4072" class="cls-5" d="M29.68,22.61c-.15.23-.22.51-.19.79.05.33.19.65.41.91.21.26.49.46.81.58.37.16.79.04,1.16.12.06.02.11.06.15.11.04.05.07.11.08.17,0,.1-.04.2-.12.27-.59.49-1.2.96-1.7,1.58-.52.56-.6,1.57-.32,2.28.3.82,1.15,1.34,1.97,1.46.6.09,1.13-.07,1.68-.19.07,0,.11.08.14.12.05.48-.02.91.09,1.34.1.37.23.74.38,1.1.01.07.01.14,0,.2-.02.07-.05.13-.1.18-.29.22-.61.41-.94.55l-.82.05-.15.07c-.3.36-.3.72-.5,1.12-.25.42-.73.63-1.11.87-.11.21-.26.4-.42.57-.14.11-.32.17-.5.17-.28.32-.34.77-.41,1.22.46.04.94.29,1.39.03.38-.18.48-.64.77-.93.23-.25.58-.07.86-.02.41.02.7-.27,1.05-.41.24-.16.43-.42.69-.58.48-.23,1.15-.09,1.66,0,.39.09.8.05,1.16-.12.32-.19.63-.45.99-.53.33-.17.48-.54.62-.84.13-.3.38-.51.36-.84-.08-.07-.19-.23-.31-.22-.16.22-.27.46-.45.67-.76,1.04-1.36,1.13-2.9,1.13-1.14-.04-2.18.31-2.96,1.2-.03.01-.06.02-.09,0-.03,0-.06-.02-.08-.04-.03-.12.08-.33.14-.43.7-1,1.79-1.23,2.95-1.25.61-.01,1.21-.15,1.76-.41.57-.29,1.01-.78,1.25-1.37.14-.66.19-1.38.36-2,.02-.06.17-.11.22-.09.05.02.19.06.19.14-.12.65-.32,1.43-.07,2.06.5.67,1.44.31,2.11.28.65-.04,1.3-.03,1.95.03.33,0,.59.06.86-.15.07-.12.09-.26.07-.39-.02-.19-.18-.31,0-.46.04-.01.09-.02.14,0,.05,0,.09.03.12.06.07.27.17.53.31.77.35.42.79.77,1.28,1.01.44.3.81.73.84,1.27,0,.27-.25.46-.46.58-.35.21-.76.31-1.17.29-.56-.27-.69-.87-1.06-1.3-.1-.09-.22-.16-.35-.2-.13-.04-.27-.05-.4-.02-.3.01-.6.06-.89.14-.03.03-.06.07-.07.11-.01.04-.02.09-.01.13.19.35.41.68.62,1.03.24.15.58-.07.79.19.18.27.29.6.56.81.13.12.3.2.48.24.18.03.36.02.53-.05.78-.22,1.54-.51,2.26-.87h.24c.29-.03.63-.02.84-.24.22-.33.42-.67.6-1.03.18-.24.09-.6.02-.86-.33-.44-.58-.92-.75-1.44-.17-.08-.35-.14-.53-.15-.09.04-.22.02-.27.12l.82,1.64c.07.14.1.3.08.46-.11.36-.31.68-.58.94-.05.03-.11.06-.15-.02.09-.36.26-.74.24-1.15l-.8-1.44c-.1-.19-.27-.38-.26-.62,0-.11.1-.16.19-.21.36-.12.79-.09,1.06-.38.36-.56.42-1.1.51-1.77.02-.03.04-.06.07-.08.03-.02.06-.03.1-.04.06-.02.14.07.17.1.12.71-.05,1.44-.46,2.02-.02.07-.05.17.03.22.2.05.4.05.6.02.2-.03.39-.1.56-.21.41-.01.82-.06,1.22-.15.04.02.09.06.09.1-.25.28-.42.62-.48.99-.32.32-.77.61-.81,1.08.05.23.26.01.38.03.03,0,.06.02.08.04.02.02.03.05.03.08l-.31.46c-.17.27.02.59.02.86.05.1.13.18.23.23.1.05.21.08.32.07.45-.05.9-.16,1.32-.34.49-.18,1.02-.21,1.54-.1.49-.03.85-.36,1.22-.68.1.01.2.04.29.09.09.05.17.12.23.2.27.29.6.51.97.66.37.15.76.21,1.16.18l.08-.03s.02-.03.03-.05c0-.02,0-.04,0-.06,0-.02-.01-.04-.02-.05-.01-.02-.02-.03-.04-.04l-.5-.24c-.35-.22-.77-.52-.89-.91-.12-.37-.29-.72-.5-1.05-.07-.17-.25-.31-.33-.48.01-.01.02-.02.04-.03.02,0,.03,0,.05,0,.55.19.86.72,1.11,1.2.4.55.98,1.03,1.73.91l.07-.05s.02-.04.02-.07,0-.05-.02-.07l-.38-.19c-.63-.37-.88-1.05-1.27-1.59-.14-.19-.38-.33-.51-.53-.45-1.23-.83-2.45-.94-3.85-.07-.36-.2-.7-.36-1.03-.57-.92-1.31-1.75-2.02-2.6-.06-.07-.12-.14-.19-.21l-2.47-2.07c-.31-.21-.64-.39-.99-.53-.58-.19-1.2-.16-1.76.07-.54.29-1.01.69-1.58.87-.82.37-1.75.45-2.45,1.08-.41.36-.75.9-1.35.81-.66-.02-1.3.21-1.8.65-.46.42-.91.91-1.51,1.03-.52.22-1.15.11-1.7.31-.85.21-1.52.87-2.24,1.39-.72.42-1.41.88-2.31.86-.3-.02-.58-.13-.82-.31-.24-.18-.42-.42-.52-.7-.09-.31-.09-.65,0-.96.09-.31.28-.59.52-.8.53-.64,1.38-1.01,1.8-1.75.11-.22.16-.46.14-.71-.02-.24-.1-.48-.24-.68-.56-.58-1.35-.59-2.07-.77-.48-.12-.84-.48-1.25-.7ZM71.33,22.64c-.32.02-.55.23-.79.44-1.6,1.41-3.43,2.37-4.9,3.98-.99,1.02-1.26,2.31-1.63,3.55-.52,1.89-.74,3.96-2.64,5.12-.02.03-.03.07-.02.1,0,.04.03.07.05.09.24.05.49.05.72-.03.23-.07.45-.2.61-.38.32-.52.7-1.02,1.11-1.47l.1-.05c.05,0,.11.03.09.1-.13.42-.49.73-.62,1.15-.17.5-.65.89-1.06,1.25l-.02.05s.01.06.03.08c.02.02.04.04.07.04.92.04,1.59-.61,2.21-1.23.03-.03.07-.04.11-.05.04,0,.08,0,.12.01.27.21.53.53.89.6.38-.06.78-.09,1.16-.07.56.17,1.09.39,1.64.58.28,0,.49-.28.63-.51.12-.27-.04-.54-.02-.81.14-.08.28.03.43-.02.03-.02.06-.05.08-.08.02-.03.03-.07.04-.11-.1-.48-.53-.85-.67-1.3-.21-.58-.89-.92-1.01-1.54.03-.04.08-.09.14-.05.45.32.83.76,1.39.84.43.05.86.07,1.29.05.03-.01.06-.04.08-.07.02-.03.02-.07,0-.1-.18-.37-.33-.76-.44-1.16-.15-.51-.25-1.23-.09-1.8.03-.04.16-.12.22-.1.05.02.09.04.13.08.04.04.06.08.08.13.06.89-.04,1.71.5,2.42.23.37.62.44.91.72.05.08.09.17.1.27.01.1,0,.19-.03.28l-.65.94c-.16.2-.27.44-.34.68-.04.25-.04.5,0,.76-.04.02-.06-.03-.1-.05-.17-.35-.35-.79-.17-1.2l.81-1.25.02-.1c-.18-.1-.37-.17-.56-.22-.09.04-.14.14-.21.22l-.79,1.42c-.07.15-.09.32-.07.48.04.2.1.39.19.58.05.27.13.53.26.77.19.22.47,0,.72.07.25.07.35.37.6.45.57.19,1.17.29,1.73.51.29.09.71.21.98-.03.37-.19.47-.58.53-.94.12-.16.35-.1.51-.15.32-.21.42-.59.65-.87l.03-.14s-.04-.09-.07-.12c-.03-.03-.07-.06-.12-.07h-1.08c-.49.06-.53.61-.74.94-.06.1-.15.18-.26.23-.11.05-.23.07-.34.05-.5-.14-1.1-.21-1.34-.75-.02-.07-.03-.14-.02-.21.01-.07.04-.13.09-.19.27-.33.56-.64.89-.91.24-.06.47-.16.67-.3.2-.14.37-.33.5-.54.12-.18.1-.45.31-.58.06,0,.19-.01.24.05.09.3-.08.52-.17.79,1.15.12,2.04-.21,3.15-.17.47,0,.89.05,1.35.02.45-.03.96-.22,1.11-.7.21-.62-.08-1.31-.19-1.9l.12-.1c.07-.04.2.02.26.07.2.6.33,1.21.41,1.83.08.54.32.89.62,1.34.26.38.63.67,1.06.83.43.16.9.19,1.34.08,1.13-.08,2.11.51,2.81,1.39v.05s-.07.1-.12.08c-.6-.46-1.19-.95-1.95-1.05-.77-.14-1.47.26-2.28-.07-.97-.32-1.39-.91-1.8-1.87h-.08c-.06,0-.09.07-.1.14l.1.65c.12.52.29,1.13.85,1.37.44.26.86.64,1.41.5.46-.09.93-.09,1.39.02.46.1.89.3,1.26.58.24.14.44.38.7.48.14.05.3.07.45.04.15-.02.29-.09.41-.18.54-.18.66.5,1.03.74.32.31.97.19,1.4.19l-.02-.05c-.05-.4-.16-.79-.32-1.15-.53.03-.8-.54-1.11-.87-.26-.3-.78-.49-.77-.94-.08-.22-.15-.45-.21-.68-.07-.19-.14-.46-.39-.5-.45-.07-.99.04-1.27-.38-.29-.32.02-.67.07-.98.12-.42.15-.87.08-1.3,0-.23-.18-.42-.14-.65.11-.19.36-.06.51-.03.61.15,1.24.1,1.82-.15.73-.36,1.32-1.09,1.29-1.94-.11-1.1-.88-2.01-1.73-2.72-.16-.14-.36-.28-.41-.48-.02-.43.46-.22.7-.32.29-.05.57-.16.82-.31.64-.43.77-1.19.65-1.92-.02-.06,0-.15-.1-.15-.12.11-.25.22-.38.31-.41.24-.94.19-1.37.41-.53.23-1.19.56-1.42,1.16-.06.3,0,.61.14.87.65,1.03,2.02,1.69,2.24,2.93.08.5-.16.86-.55,1.15-.59.36-1.47.23-2.06-.09-1.13-.56-2.13-1.51-3.34-1.9-.77-.35-1.7-.25-2.38-.79-.51-.33-1-.77-1.58-.92-.4-.14-.83-.11-1.2-.31-.37-.34-.77-.64-1.22-.87-.62-.28-1.28-.48-1.95-.6-.4-.09-.55-.55-.87-.77-.56-.44-1.18-.75-1.93-.68ZM71.26,25.14c.06-.01.11-.01.17,0,.03.01.06.03.08.05.02.02.04.05.05.08.02.04.03.08.03.12,0,.04,0,.07-.02.1l-.05.08-.05.07-.32.31-.36.34c-.22.21-.41.44-.58.69-.11.16-.2.32-.27.5-.01.02-.03.04-.05.05-.02,0-.05.01-.07,0-.01,0-.02-.01-.03-.02,0,0,0-.01,0-.02-.02-.07-.03-.14-.03-.21,0-.06,0-.13.02-.19l.07-.27.03-.1c.26-.62.69-1.15,1.23-1.54.05-.03.1-.04.16-.05h0ZM48.69,25.86c.05,0,.1,0,.15.02l.02.02c.16.13.29.29.38.48.11.28.16.57.15.87,0,.24-.02.49-.08.72v.02s-.01,0-.02,0c-.02.02-.04.03-.07.03-.03,0-.05,0-.07-.02v-.02s-.02-.02-.02-.02c-.07-.43-.19-.86-.34-1.27l-.09-.17-.05-.05-.07-.11c-.05-.06-.08-.13-.09-.2,0-.07,0-.15.03-.21l.02-.02s.08-.07.13-.07h0ZM53.47,29.95s.09.02.14.03c.13.08.24.19.31.32l.03.07.07.1.12.15c.3.29.48.69.5,1.11,0,.09,0,.18-.02.27l-.03.09-.03.1s-.03.07-.06.09c-.03.02-.06.04-.1.05-.02,0-.04,0-.05,0s-.04-.01-.05-.02c-.02-.01-.03-.03-.04-.05,0-.02-.01-.04-.01-.06l-.02-.1-.03-.31c-.02-.14-.06-.27-.14-.38l-.14-.15-.15-.19c-.09-.11-.22-.18-.36-.19-.1.04-.19.11-.26.19l-.1.14-.1.14c-.04.06-.12.02-.12.02h-.02s0-.02,0-.02c-.02-.06-.04-.13-.03-.19,0-.09.03-.18.07-.26l.09-.17.09-.21.02-.02c.04-.05.07-.11.08-.17l.03-.07.05-.15c.07-.12.15-.18.27-.17h0ZM66.48,30.31c.08,0,.16.01.23.05.07.04.12.1.16.17.19.25.34.52.45.81,0,.02,0,.05,0,.07,0,.01,0,.02,0,.03l-.03.1s-.05.08-.08.1c-.02.01-.04.02-.07.02s-.05,0-.07-.02c-.06-.02-.1-.06-.14-.1l-.05-.07-.03-.07c-.05-.08-.1-.15-.21-.14-.08,0-.16.03-.22.08l-.07.05-.03.02-.12.09-.15.12-.05.05-.22.21c-.13.12-.22.27-.26.45l-.03.12v.06l-.02.07s-.02.08-.04.11c-.02.03-.05.06-.08.08-.02.01-.05.01-.07.01-.03,0-.05,0-.07-.02s-.04-.03-.05-.05c-.01-.02-.02-.05-.02-.07-.02-.24.01-.48.1-.71s.22-.43.4-.59c.16-.14.31-.3.44-.48l.14-.17.27-.34.03-.03ZM53.22,34.14h.08l.07.02s.06.03.08.05c.02.02.03.05.04.09,0,.05.01.1.02.15,0,.08,0,.17-.03.24-.03.08-.08.15-.14.2h-.02c-.21.07-.43.1-.65.09l-.02-.02-.05-.02-.03-.02s-.04-.03-.05-.05-.01-.05,0-.07c.05-.16.15-.3.27-.42.12-.12.27-.2.43-.25h0ZM66.33,34.36h.02c.12,0,.23.01.34.06s.2.11.28.2l.03.08.07.14s.03.08.03.12c0,.04-.01.08-.03.12v.02c-.08.05-.18.08-.27.07l-.21-.03h-.07l-.02-.02c-.19-.11-.23-.34-.26-.56,0-.03,0-.06.01-.09s.03-.06.06-.08c0,0,0,0,.02-.01h0ZM30.09,35.37s-.08.02-.12.03c-.23.19-.47.36-.72.51-.11.07-.07.23-.09.34-.02.12.12.18.19.24.12.06.26.06.38.02.3-.21.55-.5.7-.84-.06-.12-.14-.21-.25-.28-.01-.01-.03-.02-.05-.03-.02,0-.04,0-.05,0ZM88.96,35.39c-.16,0-.3.19-.38.31.07.25.29.46.45.69.04.06.1.12.17.16.07.04.14.06.22.07.13,0,.26-.06.36-.15.04-.04.08-.1.1-.16.02-.06.03-.12.02-.19-.19-.27-.5-.44-.76-.65-.05-.04-.11-.06-.17-.06h0ZM28.63,36.55c-.09.04-.17.1-.24.17-.07.07-.12.16-.15.25-.05.33.02.65-.24.89,0,.06-.06.14,0,.21.24.09.48.15.74.19.13-.41.21-.86.36-1.22v-.1c-.14-.16-.26-.35-.47-.4ZM90.22,36.62c-.15.12-.36.26-.32.48.12.34.21.69.27,1.05.04.07,0,.22.12.22l.67-.22c.12-.19-.09-.33-.14-.51-.05-.24,0-.58-.15-.79-.14-.1-.27-.26-.45-.22h0Z"/>
            <path id="path4084" class="cls-5" d="M44.53,35.44c.21.23.19.58.44.77.15.02.3,0,.45-.04.14-.05.28-.12.39-.22.14-.12-.06-.26-.08-.4-.14-.19-.04-.6-.38-.61-.33.05-.67.07-1.01.06l-.09.06c-.06.19.23.19.28.38"/>
            <path id="path4096" class="cls-5" d="M74.23,35.13c-.28.05-.61,0-.89.03-.15.19-.22.43-.21.67.03.26.32.28.51.36.18.02.44.08.54-.1.11-.28.19-.56.24-.86,0-.02-.01-.04-.03-.05-.01-.02-.03-.03-.05-.04-.02,0-.04-.01-.06-.02-.02,0-.04,0-.06,0"/>
            <path id="Vector_7" data-name="Vector 7" class="cls-10" d="M70.63,44.83c.81.91,1.58,1.86,2.35,2.8.11.13.12.2-.03.3-.15.09-.29.34-.46.32-.16-.03-.25-.26-.36-.4-1.41-1.73-2.82-3.45-4.23-5.17-.1-.12-.12-.18.02-.29.43-.34.42-.35.84,0,.95.81,1.96,1.55,2.88,2.39.05-.09-.03-.12-.07-.16-.88-.96-1.68-1.97-2.51-2.97-.09-.11-.07-.16.03-.23.17-.12.32-.34.48-.34.16,0,.27.27.4.42,1.41,1.72,2.82,3.44,4.23,5.16.11.13.09.19-.03.28-.42.34-.41.34-.84-.01-.87-.72-1.75-1.44-2.63-2.16-.07-.02-.1,0-.07.06Z"/>
            <path id="Vector_8" data-name="Vector 8" class="cls-10" d="M63.2,48.77c-.08-.37-.17-.75-.24-1.13-.17-.93-.33-1.86-.5-2.79-.03-.14.02-.17.14-.19.61-.13.61-.13.71.51.36,2.13.73,4.26,1.1,6.4.06.35.07.35-.3.42-.36.07-.38.07-.51-.29-.42-1.17-.93-2.31-1.33-3.49,0-.02-.02-.04-.03-.05-.08.03-.04.08-.03.12.28,1.24.48,2.5.7,3.75.03.14,0,.2-.15.2-.07,0-.14.02-.21.04-.41.06-.4.06-.47-.35-.38-2.23-.77-4.46-1.15-6.7-.03-.19,0-.26.2-.29.49-.07.49-.09.65.37.42,1.17.93,2.3,1.32,3.47.02.02.02.05.08.02Z"/>
            <path id="Vector_9" data-name="Vector 9" class="cls-10" d="M48.9,40.68c0,.11-.03.22-.07.33-.05.1-.12.19-.21.26-.62.51-1.25,1.02-1.88,1.54-.06.06-.14.1-.22.12-.08.02-.17.02-.25,0-.1-.03-.15-.02-.15.11,0,.1-.03.19-.08.28-.05.09-.12.16-.2.21-.61.5-1.22,1.01-1.84,1.5-.08.06-.16.11-.26.14-.1.03-.2.04-.29.03-.1,0-.2-.04-.28-.09-.09-.05-.16-.11-.23-.19-.31-.36-.61-.75-.92-1.11-.09-.11-.03-.15.05-.22,1.5-1.22,3-2.44,4.49-3.65.35-.28.7-.56,1.05-.85.1-.08.15-.08.23.03.28.36.58.71.86,1.07.12.14.18.31.19.49Z"/>
            <path id="Vector_10" data-name="Vector 10" class="cls-10" d="M47.08,48.69l-.36-.28c-.31-.24-.34-.37-.12-.7.14-.21.31-.41.47-.61.38-.5.77-1.01,1.18-1.5.1-.12.09-.19-.04-.27-.13-.07-.3-.33-.45-.3-.15.03-.24.26-.36.41-.53.68-1.06,1.35-1.59,2.04-.1.13-.16.13-.26.03-.14-.14-.42-.22-.43-.38,0-.16.21-.31.32-.46,1.35-1.73,2.7-3.46,4.05-5.2.15-.19.23-.19.41-.04.31.27.65.51.97.77.09.06.17.14.22.24.06.09.09.2.11.31.01.11,0,.22-.03.32-.03.1-.09.2-.16.28-.47.61-.95,1.21-1.42,1.82-.05.09-.13.16-.22.21-.09.05-.19.07-.29.07-.08,0-.12.02-.09.11.08.26-.06.45-.19.64-.46.6-.92,1.19-1.39,1.78-.19.2-.31.46-.34.73Z"/>
            <path id="Vector_11" data-name="Vector 11" class="cls-10" d="M52.63,43.38c.2,0,.4.04.58.13.18.09.33.23.44.4.11.17.18.36.19.56.01.2-.02.4-.11.58-.46.98-.93,1.96-1.4,2.93-.42.87-.84,1.74-1.25,2.62-.07.14-.12.17-.27.1-.54-.25-.54-.25-.29-.77.37-.77.74-1.55,1.11-2.32.06-.13.07-.19-.08-.26-.52-.25-.52-.25-.77.27-.37.77-.75,1.55-1.11,2.33-.07.15-.14.18-.27.1-.13-.09-.44-.12-.48-.28s.12-.33.2-.5c.83-1.74,1.66-3.48,2.5-5.22.09-.19.23-.36.4-.48.18-.12.38-.19.6-.19Z"/>
            <path id="Vector_12" data-name="Vector 12" class="cls-10" d="M60.05,49.14c-.03,1.04-.06,2.08-.09,3.12,0,.14-.02.25-.2.19h-.02c-.6-.02-.59-.02-.56-.61.04-.86.06-1.72.09-2.58,0-.12-.03-.15-.15-.17-.61-.07-.61-.07-.63.54-.03.86-.06,1.73-.07,2.58,0,.16-.05.21-.19.19-.08,0-.16,0-.23-.01-.37-.02-.37-.02-.36-.38.07-1.98.13-3.97.19-5.96,0-.15.04-.31.1-.45s.15-.27.27-.37.24-.19.39-.24c.14-.05.3-.08.45-.07.15,0,.31.04.45.11.14.06.27.16.37.27.1.11.18.25.24.39.05.15.07.3.07.45-.03,1-.06,2-.1,3Z"/>
            <path id="Vector_13" data-name="Vector 13" class="cls-10" d="M75.75,44.69c-.25.01-.5-.07-.69-.23-1.39-1.07-2.77-2.15-4.15-3.22-.23-.19-.38-.47-.42-.77-.04-.3.05-.6.23-.84.18-.24.45-.4.75-.45s.6.03.85.2c1.41,1.08,2.81,2.17,4.21,3.27.18.16.32.37.38.6.06.23.05.48-.03.71-.08.23-.24.42-.44.55-.2.13-.44.2-.68.18Z"/>
            <path id="Vector_14" data-name="Vector 14" class="cls-10" d="M54.5,51.91c-.17,0-.34-.04-.49-.11-.15-.07-.29-.18-.39-.31s-.18-.28-.23-.45c-.04-.16-.05-.34-.01-.5.3-1.34.64-2.69.96-4.04.09-.36.17-.72.26-1.09.06-.28.21-.53.43-.71.22-.18.5-.27.79-.25.28.02.55.14.75.34.2.2.32.47.34.75.03.38-.13.74-.21,1.11,0,.05-.03.07-.08.05-.02,0-.05-.01-.07-.02-.64-.12-.64-.12-.49-.75.04-.18.19-.38.08-.52-.11-.14-.33-.09-.5-.15s-.21.02-.24.16c-.43,1.79-.86,3.59-1.29,5.38-.03.11-.02.15.1.19.59.16.59.17.73-.42.14-.59.27-1.15.42-1.72.04-.15.04-.24-.14-.25-.12,0-.13-.08-.11-.17,0,0,0-.02,0-.02.05-.19.05-.46.17-.56.13-.1.36.05.55.1.52.12.51.12.38.63-.19.8-.38,1.6-.58,2.4-.06.26-.2.5-.41.67-.21.17-.47.26-.74.26Z"/>
            <path id="Vector_15" data-name="Vector 15" class="cls-10" d="M66.1,44.29c.02.08-.06.08-.1.1-.12.06-.25.11-.38.15-.17.04-.21.1-.14.28.46,1.19.91,2.39,1.36,3.58.28.75.56,1.51.86,2.26.07.18.02.23-.14.29-.53.19-.53.19-.73-.33-.69-1.83-1.39-3.66-2.07-5.5-.07-.19-.15-.23-.33-.14-.18.08-.35.21-.47.15-.12-.07-.13-.3-.21-.45-.1-.19-.06-.27.14-.34.6-.21,1.19-.44,1.78-.67.13-.05.19-.03.23.1.04.18.12.35.18.52Z"/>
            <path id="Vector_16" data-name="Vector 16" class="cls-10" d="M70.69,49.38c0,.07-.62.43-.67.38-.03-.03-.06-.07-.08-.11-1.17-2.07-2.34-4.14-3.5-6.21-.06-.11-.07-.17.06-.23.18-.09.37-.28.52-.26.16.03.22.31.32.48,1.09,1.93,2.18,3.86,3.27,5.79.03.06.06.12.08.16Z"/>
            <path id="Vector_17" data-name="Vector 17" class="cls-1" d="M45.49,42.76c0,.07-.05.09-.08.11-.58.48-1.17.95-1.75,1.43-.09.08-.14.07-.22-.02-.4-.45-.4-.45.05-.82.46-.37.93-.75,1.39-1.14.14-.13.21-.09.3.04.09.13.21.27.32.39Z"/>
            <path id="Vector_18" data-name="Vector 18" class="cls-1" d="M47.62,40.1s.09.09.12.14q.36.44-.07.79c-.47.38-.94.77-1.4,1.15-.1.09-.16.1-.25-.02-.38-.46-.38-.45.08-.83l1.37-1.12.15-.12Z"/>
            <path id="Vector_19" data-name="Vector 19" class="cls-1" d="M50.42,42.81l-.09.12c-.46.59-.92,1.19-1.38,1.78-.07.09-.12.12-.21.03-.14-.14-.42-.22-.43-.38-.01-.14.19-.31.32-.46.37-.47.74-.94,1.1-1.41.08-.1.13-.13.23-.03.1.09.24.19.36.29.04.02.07.05.11.07Z"/>
            <path id="Vector_20" data-name="Vector 20" class="cls-1" d="M52.03,46.71c-.21-.1-.42-.19-.61-.3-.06-.03,0-.08.01-.12.33-.69.66-1.38.99-2.07.05-.1.1-.1.19-.06.56.24.56.23.3.78-.26.55-.51,1.07-.77,1.61-.02.07-.06.12-.11.16Z"/>
            <path id="Vector_21" data-name="Vector 21" class="cls-1" d="M59.3,48.1c0,.14-.01.22-.19.21-.58-.03-.58-.02-.55-.6.02-.58.04-1.17.05-1.76,0-.15.02-.23.21-.22.56.02.55,0,.54.56,0,.25-.06,1.45-.06,1.81Z"/>
            <path id="Vector_22" data-name="Vector 22" class="cls-1" d="M71.6,39.83l.12.09c1.46,1.14,2.93,2.27,4.4,3.4.11.09.13.14.03.25-.13.14-.21.4-.37.42-.16.01-.29-.19-.44-.31-1.35-1.05-2.7-2.09-4.05-3.14-.13-.1-.15-.16-.04-.28.11-.12.19-.23.27-.35.02-.03.05-.06.08-.09Z"/>
          </g>
        </g>
      </g>
    </g>
  </g>
</svg>