<?xml version="1.0" encoding="UTF-8"?>
<svg id="Layer_1" data-name="Layer 1" xmlns="http://www.w3.org/2000/svg" viewBox="0 0 165.23 83.8">
  <defs>
    <style>
      .cls-1 {
        fill: #c3281e;
      }

      .cls-1, .cls-2, .cls-3 {
        stroke-width: 0px;
      }

      .cls-2 {
        fill: #070308;
      }

      .cls-3 {
        fill: #fff;
      }
    </style>
  </defs>
  <g id="escudo_flamengo" data-name="escudo flamengo">
    <g id="flamengo">
      <g id="Group">
        <path id="Vector" class="cls-2" d="M82.61,73.9c7.67-3.24,14.22-8.5,18.82-15.46,4.42-6.68,6.98-14.62,6.98-22.77V9.9h-51.58v25.77c0,8.15,2.56,16.09,6.98,22.77,4.6,6.96,11.15,12.22,18.82,15.46Z"/>
        <g id="Group_2" data-name="Group 2">
          <g id="Group_3" data-name="Group 3">
            <path id="Vector_2" data-name="Vector 2" class="cls-1" d="M80.77,11.79h-21.96v19.53h21.96V11.79ZM106.42,17.66h-23.81v7.76h23.81v-7.76ZM64.9,56.45h35.43c1.52-2.44,2.79-5.04,3.76-7.76h-42.96c.97,2.71,2.24,5.31,3.76,7.76ZM58.81,33.18v2.42c0,1.79.13,3.58.38,5.34h46.85c.26-1.77.38-3.55.38-5.34v-2.42h-47.62ZM82.61,71.77c4.25-1.82,8.12-4.42,11.43-7.55h-22.86c3.32,3.15,7.18,5.73,11.43,7.55Z"/>
          </g>
        </g>
        <g id="Group_4" data-name="Group 4">
          <g id="Group_5" data-name="Group 5">
            <path id="Vector_3" data-name="Vector 3" class="cls-3" d="M70.05,26.99v-1.34c-.86.4-1.91.52-2.84.41-2.61-.33-4.29-2.43-4.29-5.03,0-2.38,1.54-4.62,3.96-4.62.97,0,1.89.46,2.3,1.59.38-.84.44-2.66.12-3.46-.22-.03-.45-.03-.68-.03-.95,0-1.87.18-2.64.45-1.79.61-3.32,1.98-4.22,3.65-.61,1.13-.88,2.14-1.59,2.14.81,3.52,3.34,6.45,7.1,6.66.92.03,1.84-.1,2.78-.41ZM68.61,14.11c2.98,0,5.02,1.64,5.02,4.63,0,1.11-.35,2.21-1.11,3.01h1.41c1.57-1.6,1.29-3.6,2.36-3.6-1.47-3.67-3.52-5.45-8.1-5.34-1.38.01-2.05.03-3.19-.38l.83,2.16c.78-.28,1.78-.49,2.79-.49ZM67.63,27.77c-.58,0-1.16-.06-1.73-.2,0,1.24-.28,1.8-.81,2.19.65.68,2.34.97,3.74.58-.91-.56-1.2-1.46-1.2-2.56ZM77.01,21.41c-.31.38-.73.72-1.75.72h-3.1v-4.74h.93c-.13-.51-.36-.97-.63-1.38h-.41c-.79,0-1.54-.12-2.32-.41l.68,1.78v4.72c.83.27,1.4.76,2,1.38h1.88c1.06,0,1.48.72,1.4,1.7,1.88-.99,1.56-3.16,1.32-3.78ZM72.16,27.79v-1.13c-.47-.73-1.05-1.56-1.73-2.11v3.03c0,1.1-.29,1.78-.82,2.14.65.68,2.34.97,3.74.58-.91-.54-1.19-1.57-1.19-2.51ZM78.85,15.07c-.32.58-.91.93-1.98.93h-1.27c.27.42.51.88.76,1.38,1.01,0,1.31,1.08,1.16,1.7,1.93-.99,1.57-3.4,1.33-4.02ZM74.87,27.18c-.91-1-1.79-2.73-3.4-4.06-1.11-.92-2.61-1.11-3.85-1.11v-5.12c-.59-.17-1.15-.13-1.73.03v8.41c.55.23,1.14.37,1.73.4v-2.29c2.05,0,2.98.54,4.02,1.87,1.1,1.41,2.52,4.16,3.87,5.09.79-.15,2.53-1.4,2.68-3-1.06.77-2.3.87-3.3-.22Z"/>
          </g>
        </g>
      </g>
    </g>
  </g>
</svg>