<?xml version="1.0" encoding="UTF-8"?>
<svg id="Layer_1" data-name="Layer 1" xmlns="http://www.w3.org/2000/svg" viewBox="0 0 144.61 76.31">
  <defs>
    <style>
      .cls-1, .cls-2 {
        fill-rule: evenodd;
        stroke-width: 0px;
      }

      .cls-2 {
        fill: #fff;
      }
    </style>
  </defs>
  <g id="escudo_botafogo" data-name="escudo botafogo">
    <g id="botafogo">
      <g id="Group">
        <path id="Vector" class="cls-1" d="M59.43,11.16c-3.54,1.82-6.88,3.54-11.33,3.56h-2.3s-.15,2.31-.15,2.31c-.99,15.83.57,38.39,25.53,51.48l1.14.6,1.14-.6c24.96-13.09,26.52-35.65,25.53-51.48l-.15-2.3h-2.3c-4.45-.02-7.79-1.75-11.33-3.56-3.74-1.94-7.64-3.95-12.87-3.95s-9.13,2.01-12.9,3.94Z"/>
        <path id="Vector_2" data-name="Vector 2" class="cls-2" d="M72.33,66.32c-21.09-11.06-25.47-29.13-24.21-49.14,9.95-.03,14.81-7.49,24.21-7.49s14.26,7.46,24.21,7.49c1.26,20.01-3.13,38.08-24.21,49.14Z"/>
        <path id="Vector_3" data-name="Vector 3" class="cls-1" d="M62.06,16.27c3.45-1.77,6.42-3.3,10.26-3.3s6.83,1.53,10.26,3.3c3.08,1.59,6.52,3.33,10.81,3.95.03.97.05,1.92.05,2.86,0,18.97-6.67,31.33-21.12,39.49-14.45-8.16-21.12-20.52-21.12-39.49,0-.94.02-1.89.05-2.86,4.29-.62,7.72-2.36,10.81-3.95Z"/>
        <path id="Vector_4" data-name="Vector 4" class="cls-2" d="M72.33,19.13l3.68,11.34h11.93l-9.64,7.01,3.68,11.35-9.64-7.02-9.65,7.02,3.69-11.35-9.65-7.01h11.93l3.69-11.34Z"/>
      </g>
    </g>
  </g>
</svg>