<?xml version="1.0" encoding="UTF-8"?>
<svg id="Layer_1" data-name="Layer 1" xmlns="http://www.w3.org/2000/svg" xmlns:xlink="http://www.w3.org/1999/xlink" viewBox="0 0 142 71.87">
  <defs>
    <style>
      .cls-1 {
        fill: none;
      }

      .cls-1, .cls-2, .cls-3, .cls-4 {
        stroke-width: 0px;
      }

      .cls-2 {
        fill: #fff;
      }

      .cls-5 {
        clip-path: url(#clippath);
      }

      .cls-3 {
        fill: #cd3529;
      }

      .cls-4 {
        fill: #2762a6;
      }
    </style>
    <clipPath id="clippath">
      <rect class="cls-1" x="39" y="3.93" width="63.93" height="64"/>
    </clipPath>
  </defs>
  <g id="escudo_bahia" data-name="escudo bahia">
    <g class="cls-5">
      <g id="bahia">
        <g id="Group">
          <path id="Vector" class="cls-4" d="M71,67.86c17.58,0,31.93-14.38,31.93-31.96S88.58,3.93,71,3.93s-31.96,14.38-31.96,31.96,14.38,31.96,31.96,31.96Z"/>
          <path id="Vector_2" data-name="Vector 2" class="cls-2" d="M41.37,35.93c0,16.35,13.32,29.67,29.71,29.67s29.67-13.32,29.67-29.67-13.32-29.71-29.67-29.71-29.71,13.32-29.71,29.71ZM43.22,35.93c0-15.36,12.49-27.85,27.85-27.85s27.81,12.49,27.81,27.85-12.49,27.81-27.81,27.81c-15.36.04-27.85-12.45-27.85-27.81Z"/>
          <path id="Vector_3" data-name="Vector 3" class="cls-2" d="M71.07,52.53c-9.14,0-16.56-7.43-16.56-16.53s7.43-16.53,16.56-16.53,16.53,7.43,16.53,16.53-7.46,16.53-16.53,16.53Z"/>
          <path id="Vector_4" data-name="Vector 4" class="cls-2" d="M51.3,36.01c0,10.85,8.85,19.7,19.7,19.7s19.66-8.85,19.66-19.7-8.85-19.7-19.66-19.7-19.7,8.85-19.7,19.7ZM53.12,36.01c0-9.87,8.01-17.87,17.87-17.87s17.84,8.01,17.84,17.87-8.01,17.87-17.84,17.87-17.87-8.01-17.87-17.87Z"/>
          <path id="Vector_5" data-name="Vector 5" class="cls-3" d="M59.24,23.12c6.26-2.95,9.28.07,13.87.58,4.22,1.57,8.23-.25,12.05-.8-3.02,12.27,1.31,17.8,2.04,26.68-8.48-.4-15.33-5.97-25.37-1.06,1.17-8.52.22-17.07-2.58-25.41Z"/>
          <path id="Vector_6" data-name="Vector 6" class="cls-2" d="M72.6,23.52v5.97h11.65l.98-6.63c-4.88,1.13-8.81,1.89-12.63.66Z"/>
          <path id="Vector_7" data-name="Vector 7" class="cls-2" d="M97.58,39.72l.18-1.13-3.31-.51-2.18-.33-.15-.04-.15,1.13.29.07,2.15.33-.33,2.22-1.82-.29-.66-.11-.18,1.13.84.15,2.18.36,2.62.4.18-1.13-2.22-.36.33-2.22,2.22.33Z"/>
          <path id="Vector_8" data-name="Vector 8" class="cls-2" d="M92.26,43.69l-1.38-.47-.36,1.06,1.75.62,2.18.76,1.46.47.36-1.06-1.82-.62-2.18-.76Z"/>
          <path id="Vector_9" data-name="Vector 9" class="cls-2" d="M92.26,31.64l-.36-.11.04,1.2.33.11.98.33.07,2.26-1.06.44-.18.11.04,1.24.15-.07,2.18-.98,3.24-1.42-.04-1.2-3.2-1.13-2.18-.76ZM96.37,34.15l-1.89.76-.18.11-.07-1.57.25.11,1.89.58Z"/>
          <path id="Vector_10" data-name="Vector 10" class="cls-2" d="M90.4,44.85l-.62,1.06.87,1.06-1.17,1.93-1.35-.22-.66,1.06,4.81.8,1.24.18.62-1.06-1.89-2.4-1.86-2.4ZM92.7,49.51l-.44-.11-1.78-.33.8-1.31.98,1.2.44.55Z"/>
          <path id="Vector_11" data-name="Vector 11" class="cls-2" d="M89.09,23.16l-2.11-2.37,1.13-1.02,1.89,2.11.73-.62-1.93-2.15.95-.84,2.08,2.26.44-.4.25-.22-.25-.29-2.55-2.84-3.46,3.09-.76.69.76.87,2.11,2.37.73-.66Z"/>
          <path id="Vector_12" data-name="Vector 12" class="cls-2" d="M89.93,26.72l.69,1.82c.25.69.44,1.13.55,1.31.15.25.33.47.51.62.15.11.36.18.58.22h.15c.25.04.51,0,.76-.07.33-.15.55-.33.69-.58.15-.25.22-.58.22-.91.11.11.22.18.36.25.11.04.22.07.33.07.25.07.51.04.73-.04.22-.07.44-.22.58-.4.15-.18.25-.4.29-.58.04-.22.04-.4,0-.62-.04-.22-.15-.55-.33-.95l-.8-2.11-.8.29-2.18.84-2.33.84ZM94.44,26.21l.33-.11.25.62c.18.51.29.8.33.91.04.22.04.36-.04.47-.07.15-.18.22-.33.29-.18.07-.33.07-.47,0h-.04c-.11-.07-.22-.22-.33-.36-.04-.07-.15-.33-.33-.76l-.25-.69.87-.36ZM92.7,26.91l.33.87c.18.51.25.8.25.98.04.18-.04.29-.11.44-.07.11-.18.18-.36.25-.18.07-.33.07-.51.04,0,0,0-.04-.04-.04-.15-.07-.22-.15-.33-.29-.07-.07-.18-.33-.33-.73l-.36-.98,1.02-.4.44-.15Z"/>
          <path id="Vector_13" data-name="Vector 13" class="cls-2" d="M85.74,18.39c.15-.29.22-.58.18-.87-.04-.33-.18-.58-.44-.87.25,0,.51-.04.73-.11l.04-.04c.22-.11.44-.29.58-.51.11-.18.18-.44.18-.66s-.04-.44-.11-.62c-.11-.18-.22-.36-.4-.51-.07-.07-.15-.15-.25-.18-.15-.11-.33-.22-.58-.4l-.95-.58-.98-.58-2.58,4.3-.36.58.36.22,1.31.8c.62.36,1.02.58,1.2.69.29.11.58.18.8.15.07,0,.15-.04.25-.04.15-.04.33-.11.47-.22.22-.11.4-.33.55-.55ZM84.76,17.73s0,.04,0,0c-.11.18-.22.29-.36.33-.15.04-.33.04-.47-.04-.11,0-.33-.15-.69-.36l-.91-.55.8-1.27.8.47c.44.25.73.44.84.58,0,0,.04,0,.04.04.07.11.15.25.15.36-.04.15-.11.29-.18.44ZM84.94,15.8s-.11-.04-.18-.07c-.11-.11-.29-.18-.51-.33l-.66-.4.69-1.13.51.29.07.04c.47.25.76.44.84.51.15.11.25.25.25.36,0,.15,0,.29-.11.44-.11.15-.22.25-.4.29-.18.11-.33.07-.51,0Z"/>
          <path id="Vector_14" data-name="Vector 14" class="cls-2" d="M81.52,11.43l-.33-.11-.76-.25-1.06,2.95c-.15.44-.25.73-.36.91-.11.18-.25.29-.44.36-.18.11-.44.07-.76-.04-.33-.07-.51-.25-.66-.44-.15-.18-.18-.4-.15-.62,0-.15.07-.44.25-.91l1.02-2.91-1.09-.36-.98,2.88c-.18.62-.33,1.06-.36,1.38,0,.22,0,.44.11.69.07.25.25.47.44.69.22.18.58.4,1.09.58.44.15.8.22,1.13.18.29,0,.55-.07.76-.18.22-.15.4-.33.58-.55.15-.25.33-.69.55-1.35l.62-1.82.4-1.09Z"/>
          <path id="Vector_15" data-name="Vector 15" class="cls-2" d="M58.77,17.88l-.76-1.31,2.4-1.49-.47-.8-2.44,1.46-.66-1.09,2.62-1.57-.47-.8-3.09,1.82-.51.33.51.91,2.37,3.97,3.71-2.22-.47-.84-2.73,1.64Z"/>
          <path id="Vector_16" data-name="Vector 16" class="cls-2" d="M67.87,14.13c-.18.22-.44.36-.73.4-.4.07-.76-.04-1.09-.29-.29-.25-.51-.76-.62-1.46-.11-.69-.07-1.16.15-1.53.18-.33.51-.55.95-.62.29-.04.58,0,.8.15.25.15.44.33.55.62l1.06-.44c-.18-.44-.44-.73-.73-.95-.51-.33-1.09-.44-1.78-.36-.8.15-1.38.51-1.78,1.09-.4.58-.51,1.35-.36,2.29.15.87.47,1.53,1.06,1.97.58.44,1.2.58,1.97.47.62-.11,1.09-.33,1.42-.69.33-.36.55-.87.62-1.49l-1.16-.18c0,.47-.11.76-.29,1.02Z"/>
          <path id="Vector_17" data-name="Vector 17" class="cls-2" d="M71.95,9.47h-1.13l-.22,5.61,4,.15.04-.95-2.88-.11.18-4.7Z"/>
          <path id="Vector_18" data-name="Vector 18" class="cls-2" d="M52.83,17.84l1.09-1.27-.76-.66-.8.98-2.08,2.48.73.66,1.09-1.31.25.22,3.39,2.8.15-.22.55-.66-.55-.47-3.06-2.55Z"/>
          <path id="Vector_19" data-name="Vector 19" class="cls-2" d="M52.36,23.23c-.15.04-.29.04-.36.07-.22.07-.47.15-.73.33.18-.47.18-.87.07-1.24-.11-.36-.36-.62-.76-.84-.29-.18-.58-.25-.91-.22-.11,0-.22.04-.33.07-.15.04-.33.15-.44.25-.22.18-.51.55-.8,1.09l-1.13,2.11,2.4,1.31,2.58,1.42.4-.76.15-.25-.15-.07-1.93-1.09.11-.22c.11-.22.22-.36.33-.47.11-.11.22-.15.36-.18.15-.04.51-.11,1.02-.15h.11l1.38-.11.69-1.2-1.31.07c-.33.04-.58.07-.76.07ZM50.47,23.3c-.04.15-.18.47-.44.95l-.44.76-.25-.15-1.02-.55.44-.8c.22-.4.36-.66.4-.73.07-.07.11-.11.15-.15.11-.04.18-.07.25-.11.15,0,.33,0,.51.11.15.07.25.18.33.33.07.07.11.18.07.33Z"/>
          <path id="Vector_20" data-name="Vector 20" class="cls-2" d="M52.18,45l-.84.51,1.02,1.71.62.98-.62.4-.73.44-1.46-2.48-.8.51h-.04l.04.04,1.42,2.4-1.06.66-.36-.62-1.2-2-.84.47,2.04,3.42.11.22,2.88-1.75,2-1.2-2-3.39-.18-.33Z"/>
          <path id="Vector_21" data-name="Vector 21" class="cls-2" d="M49.37,39.1l.95-.07-.07-1.13-.87.07-1.27.07-.04-.76c-.04-.51-.07-.91-.15-1.2-.07-.18-.18-.4-.33-.58-.15-.18-.36-.33-.58-.44-.22-.07-.44-.15-.69-.15h-.18c-.44.04-.8.18-1.09.4-.25.22-.44.51-.51.84-.04.22-.04.69,0,1.38l.11,1.82,1.64-.11,3.09-.15ZM45.52,38.23l-.04-.58c-.04-.4-.04-.69,0-.8,0-.18.07-.36.18-.51.15-.11.29-.18.51-.18h.11c.15,0,.25.04.33.07.15.07.25.18.33.33.07.15.11.44.15.91v.62l-.84.04-.73.11Z"/>
          <path id="Vector_22" data-name="Vector 22" class="cls-2" d="M47.81,45.36c.44-.15.76-.44.95-.84.15-.29.18-.76.15-1.42,0-.51-.04-.8-.04-.95,0-.18.04-.36.11-.47.07-.11.15-.18.29-.22.04,0,.07-.04.15-.04.18,0,.33.04.47.15.18.15.36.36.47.73.11.33.11.62,0,.87-.11.25-.33.44-.66.62l.44,1.06c.58-.29.98-.62,1.16-1.13.18-.47.18-1.06-.04-1.75-.15-.47-.33-.84-.58-1.09-.22-.29-.51-.44-.84-.55-.15,0-.29-.04-.44-.04s-.33.04-.51.07c-.33.11-.62.29-.8.51-.18.22-.33.47-.36.8-.04.29-.04.73,0,1.27.04.58,0,.95-.04,1.13-.04.15-.15.22-.25.25-.15.04-.25.04-.4-.07-.18-.15-.33-.36-.44-.69-.07-.33-.11-.58-.04-.76.07-.22.25-.36.51-.51l-.4-1.09c-.15.04-.25.11-.36.15-.29.18-.51.44-.66.76-.22.44-.18.98.04,1.71.15.4.33.76.55.98.04,0,.04.07.07.07.22.22.44.33.69.4.22.15.51.15.8.07Z"/>
          <path id="Vector_23" data-name="Vector 23" class="cls-2" d="M45.37,31.71c.15.29.36.51.58.73.11.11.22.15.29.22.29.18.62.33,1.06.44.8.22,1.46.22,2.04-.04.07-.04.15-.07.22-.11.62-.33,1.06-.91,1.31-1.71.22-.8.15-1.49-.22-2.15-.25-.47-.69-.84-1.31-1.09-.15-.07-.36-.15-.58-.18-.87-.25-1.64-.22-2.26.15-.11.04-.15.11-.25.15-.51.36-.87.87-1.06,1.57-.11.44-.15.87-.11,1.24.04.25.15.55.29.8ZM46.13,29.89c.04-.11.07-.18.11-.29.15-.29.36-.51.66-.66.4-.18.91-.18,1.53,0,.36.11.69.25.91.44.18.11.29.25.4.4.22.36.25.8.15,1.2-.07.33-.29.62-.58.8-.07.04-.15.07-.22.15-.4.22-.91.22-1.53.04-.62-.18-1.06-.44-1.31-.8,0,0,0-.04-.04-.07-.15-.36-.18-.76-.07-1.2Z"/>
          <path id="Vector_24" data-name="Vector 24" class="cls-2" d="M77.12,55.99l-.84.22c0,.4-.18.73-.4,1.06-.22.33-.44.55-.69.69t-.07.04l.07.25.18.69c.47-.33.84-.69,1.13-1.17l1.06,3.97,1.02-.25-1.46-5.5Z"/>
          <path id="Vector_25" data-name="Vector 25" class="cls-2" d="M74.89,59.85c-.22-.22-.47-.36-.8-.44.55-.33.8-.73.76-1.24,0-.36-.18-.69-.44-.91-.33-.33-.8-.47-1.31-.44-.33,0-.58.07-.84.22-.22.15-.44.29-.55.51-.15.18-.22.47-.25.84l.98.11c0-.25.07-.44.22-.58.11-.15.25-.18.44-.18.18-.04.36,0,.47.15.11.11.18.29.22.44,0,.22-.07.4-.22.58-.15.15-.36.22-.66.22l-.07.87c.18-.07.36-.11.51-.11.18,0,.4.07.55.22s.25.36.25.62c0,.29-.04.51-.18.69-.15.18-.33.25-.58.29-.22,0-.36-.04-.55-.18-.15-.15-.25-.33-.29-.62l-1.06.18c.11.47.29.87.66,1.13.36.25.76.4,1.31.36.55-.04.95-.22,1.35-.62.18-.22.33-.44.4-.69.04-.22.07-.4.07-.62,0-.18-.04-.29-.07-.4-.11-.11-.18-.25-.33-.4Z"/>
          <path id="Vector_26" data-name="Vector 26" class="cls-2" d="M69.22,56.83h-.11c-.47,0-.87.15-1.2.47-.36.33-.58.8-.58,1.35s.11,1.02.4,1.38c.33.36.69.55,1.13.58.11.04.22,0,.25,0,.29-.04.58-.18.8-.4-.07.62-.18,1.06-.36,1.27-.11.15-.25.22-.4.25h-.18c-.18,0-.33-.07-.4-.18-.11-.11-.15-.29-.18-.47l-1.06.07c.04.47.18.84.47,1.09.25.25.62.36,1.06.4h.29c.51-.04.91-.25,1.24-.62.4-.44.62-1.17.69-2.22.04-1.02-.07-1.75-.44-2.22-.36-.51-.84-.76-1.42-.76ZM69.62,59.6c-.15.15-.29.18-.51.18h-.04c-.18,0-.36-.07-.51-.25-.15-.18-.18-.44-.18-.8s.11-.62.25-.8c.15-.15.33-.22.51-.22h.04c.18.04.36.11.55.33.15.18.22.47.22.84-.07.33-.18.58-.33.73Z"/>
          <path id="Vector_27" data-name="Vector 27" class="cls-2" d="M65.17,57.08c-.4.15-.76.25-1.06.25l-.25.95c.58,0,1.09-.15,1.57-.44l-1.09,3.97,1.06.29,1.49-5.5-.87-.22c-.15.25-.44.51-.84.69Z"/>
          <path id="Vector_28" data-name="Vector 28" class="cls-2" d="M84.36,56.43c.87,0,1.57-.69,1.57-1.57s-.69-1.57-1.57-1.57-1.53.69-1.53,1.57.69,1.57,1.53,1.57Z"/>
          <path id="Vector_29" data-name="Vector 29" class="cls-2" d="M57.38,57.01c.84,0,1.53-.69,1.53-1.57s-.69-1.57-1.53-1.57-1.57.69-1.57,1.57c.04.84.73,1.57,1.57,1.57Z"/>
          <path id="Vector_30" data-name="Vector 30" class="cls-2" d="M58.8,21.92l-2.62.33,4,34.77,2.91-.33-4-34.8-.29.04Z"/>
          <path id="Vector_31" data-name="Vector 31" class="cls-4" d="M87.45,49.55c-.25-2.95-.91-5.53-1.49-8.08-1.27-5.1-2.55-10.38-.55-18.53l.07-.33-.33.04c-1.02.15-2.04.4-3.06.62-2.88.66-5.82,1.35-8.88.22h-.07c-1.35-.15-2.58-.55-3.79-.91-2.84-.87-5.75-1.75-10.19.36l-.18.07.07.18c2.84,8.52,3.71,17,2.58,25.3l-.04.4.4-.18c6.66-3.24,11.76-1.89,17.18-.44,2.58.69,5.28,1.38,8.12,1.53h.25l-.11-.25ZM79.23,47.84c-5.17-1.38-10.48-2.77-17.11.33.29-2.22.44-4.48.44-6.7v-.47c0-1.6-.11-3.2-.25-4.84,3.31-1.27,6.77-1.71,10.48-1.09l-.07-11.18c.11,0,.25.04.36.04,3.17,1.16,6.19.47,9.14-.18.95-.22,1.82-.4,2.69-.55-.69,2.99-.98,5.57-.98,7.9,0,1.71.15,3.28.36,4.81.29,1.97.73,3.79,1.17,5.57,0,.04.04.11.04.18.58,2.44,1.2,4.95,1.49,7.75-2.69-.25-5.24-.91-7.75-1.57Z"/>
          <path id="Vector_32" data-name="Vector 32" class="cls-4" d="M56.55,22.5l3.93,34.15,2.29-.25-3.93-34.15-2.29.25Z"/>
          <path id="Vector_33" data-name="Vector 33" class="cls-2" d="M85.45,41.39c-.44-1.78-.87-3.6-1.17-5.57-3.9.18-11.5-.8-11.5-.8-3.71-.66-7.17-.18-10.48,1.09.15,1.6.25,3.24.25,4.84,8.19-2.08,14.96.84,22.9.44Z"/>
          <path id="Vector_34" data-name="Vector 34" class="cls-2" d="M66.41,33.89c-2.4,0-4.33-2.33-4.33-5.17s1.93-5.21,4.33-5.21,4.33,2.33,4.33,5.21-1.93,5.17-4.33,5.17Z"/>
          <path id="Vector_35" data-name="Vector 35" class="cls-3" d="M64.05,25.92c1.24-.58,1.86,0,2.77.11.84.33,1.64-.04,2.4-.18-.58,2.44.25,3.57.4,5.35-1.71-.07-3.06-1.2-5.1-.22.29-1.67.11-3.39-.47-5.06Z"/>
          <path id="Vector_36" data-name="Vector 36" class="cls-2" d="M66.74,25.99v1.2h2.33l.18-1.31c-.98.22-1.75.36-2.51.11Z"/>
          <path id="Vector_37" data-name="Vector 37" class="cls-2" d="M63.97,25.67l-.51.07.8,6.95.58-.07-.8-6.95h-.07Z"/>
          <path id="Vector_38" data-name="Vector 38" class="cls-4" d="M69.69,31.2c-.04-.58-.18-1.13-.29-1.6-.25-1.02-.51-2.08-.11-3.71v-.07h-.07c-.22.04-.4.07-.62.11-.58.15-1.16.25-1.78.04-.25-.04-.51-.11-.76-.18-.58-.18-1.13-.36-2.04.07h-.04v.04c.58,1.71.73,3.42.51,5.06v.07l.07-.04c1.31-.66,2.37-.36,3.42-.07.51.15,1.06.29,1.6.29h.11ZM68.05,30.87c-1.02-.25-2.11-.55-3.42.07.04-.44.07-.87.07-1.35v-.11c0-.33-.04-.66-.04-.98.66-.25,1.35-.36,2.08-.22v-2.22h.07c.62.22,1.24.11,1.82-.04.18-.04.36-.07.55-.11-.15.58-.18,1.13-.18,1.57,0,.36.04.66.07.95.07.4.15.76.22,1.13v.04c.11.47.25.98.29,1.53-.51,0-1.02-.15-1.53-.25Z"/>
          <path id="Vector_39" data-name="Vector 39" class="cls-4" d="M63.54,25.81l.76,6.81.47-.04-.8-6.84-.44.07Z"/>
          <path id="Vector_40" data-name="Vector 40" class="cls-2" d="M69.29,29.56c-.07-.36-.18-.73-.22-1.13-.76.04-2.29-.18-2.29-.18-.73-.15-1.42-.04-2.08.22.04.33.04.66.04.98,1.64-.36,2.99.22,4.55.11Z"/>
          <path id="Vector_41" data-name="Vector 41" class="cls-2" d="M65.5,28.07c-.47,0-.87-.47-.87-1.02,0-.58.4-1.06.87-1.06s.87.47.87,1.06c0,.55-.4,1.02-.87,1.02Z"/>
        </g>
      </g>
    </g>
  </g>
</svg>