<svg xmlns="http://www.w3.org/2000/svg" xmlns:xlink="http://www.w3.org/1999/xlink" width="135" height="29.733" viewBox="0 0 135 29.733">
  <defs>
    <clipPath id="clip-path">
      <rect id="Rectangle_159" data-name="Rectangle 159" width="135" height="29.733" fill="none"/>
    </clipPath>
  </defs>
  <g id="Group_828" data-name="Group 828" transform="translate(0 0)">
    <g id="Group_827" data-name="Group 827" transform="translate(0 0)" clip-path="url(#clip-path)">
      <path id="Path_2743" data-name="Path 2743" d="M0,3.455A3.4,3.4,0,0,1,3.493,0,3.41,3.41,0,0,1,7.026,3.455,3.418,3.418,0,0,1,3.493,6.949,3.408,3.408,0,0,1,0,3.455M.66,9.471H6.327v19.8H.66Z" transform="translate(0 0)" fill="#FF173E"/>
      <path id="Path_2744" data-name="Path 2744" d="M20.319,14.39h-4.7v9.471h4.7v5.162H9.955V3.405h5.667V9.228h4.7Z" transform="translate(0.713 0.244)" fill="#FF173E"/>
      <path id="Path_2745" data-name="Path 2745" d="M36.781,8.869h5.667v19.8H36.781V26.492A7.805,7.805,0,0,1,30.8,29.131a8.909,8.909,0,0,1-6.832-2.95,10.531,10.531,0,0,1-2.717-7.414,10.436,10.436,0,0,1,2.717-7.375A8.944,8.944,0,0,1,30.8,8.4a7.805,7.805,0,0,1,5.978,2.639Zm0,9.9a4.833,4.833,0,1,0-9.665,0,4.833,4.833,0,1,0,9.665,0" transform="translate(1.523 0.602)" fill="#FF173E"/>
      <path id="Path_2746" data-name="Path 2746" d="M55.333,14.39h-4.7v9.471h4.7v5.162H44.969V3.405h5.667V9.228h4.7Z" transform="translate(3.222 0.244)" fill="#FF173E"/>
      <path id="Path_2747" data-name="Path 2747" d="M57.247,3.455a3.513,3.513,0,0,1,7.025,0,3.512,3.512,0,0,1-7.025,0m.659,6.016h5.667v19.8H57.906Z" transform="translate(4.102 0)" fill="#FF173E"/>
      <path id="Path_2748" data-name="Path 2748" d="M81.862,8.869h5.667v19.8H81.862V26.492a7.805,7.805,0,0,1-5.978,2.639,8.909,8.909,0,0,1-6.832-2.95,10.531,10.531,0,0,1-2.717-7.414,10.436,10.436,0,0,1,2.717-7.375A8.944,8.944,0,0,1,75.884,8.4a7.805,7.805,0,0,1,5.978,2.639Zm0,9.9a4.833,4.833,0,1,0-9.665,0,4.833,4.833,0,1,0,9.665,0" transform="translate(4.754 0.602)" fill="#FF173E"/>
      <path id="Path_2749" data-name="Path 2749" d="M89.7,3.455a3.513,3.513,0,0,1,7.026,0,3.513,3.513,0,0,1-7.026,0m.66,6.016h5.667v19.8H90.356Z" transform="translate(6.427 0)" fill="#FF173E"/>
      <path id="Path_2750" data-name="Path 2750" d="M114.311,8.869h5.668v19.8h-5.668V26.492a7.805,7.805,0,0,1-5.978,2.639,8.909,8.909,0,0,1-6.832-2.95,10.531,10.531,0,0,1-2.717-7.414,10.436,10.436,0,0,1,2.717-7.375A8.944,8.944,0,0,1,108.333,8.4a7.805,7.805,0,0,1,5.978,2.639Zm0,9.9a4.832,4.832,0,1,0-9.664,0,4.832,4.832,0,1,0,9.664,0" transform="translate(7.079 0.602)" fill="#FF173E"/>
      <path id="Path_2751" data-name="Path 2751" d="M126.395,5.012a3.2,3.2,0,0,1-.923,2.283,3.126,3.126,0,0,1-1,.683,3.225,3.225,0,0,1-2.468,0,3.126,3.126,0,0,1-1-.683,3.2,3.2,0,0,1-.923-2.283,3.22,3.22,0,0,1,.245-1.258A3.187,3.187,0,0,1,121,2.73a3.126,3.126,0,0,1,1-.683,3.225,3.225,0,0,1,2.468,0,3.126,3.126,0,0,1,1,.683,3.221,3.221,0,0,1,.923,2.282m-5.517,0a2.514,2.514,0,0,0,.185.978,2.448,2.448,0,0,0,.507.778,2.322,2.322,0,0,0,.747.517,2.365,2.365,0,0,0,1.836,0,2.338,2.338,0,0,0,.748-.517,2.464,2.464,0,0,0,.506-.778,2.514,2.514,0,0,0,.185-.978,2.525,2.525,0,0,0-.185-.973,2.46,2.46,0,0,0-.506-.782,2.338,2.338,0,0,0-.748-.517,2.365,2.365,0,0,0-1.836,0,2.322,2.322,0,0,0-.747.517,2.444,2.444,0,0,0-.507.782,2.525,2.525,0,0,0-.185.973m3.662-.571a.83.83,0,0,1-.11.446,1.2,1.2,0,0,1-.241.286,1.377,1.377,0,0,1-.352.191l.9,1.3h-.853l-.752-1.1h-.3v1.1h-.752V3.357h1.3a1.19,1.19,0,0,1,.451.085,1.131,1.131,0,0,1,.612.582.99.99,0,0,1,.091.417m-1.154.421a.449.449,0,0,0,.322-.125.358.358,0,0,0,0-.552.449.449,0,0,0-.322-.125h-.552v.8Z" transform="translate(8.604 0.129)" fill="#FF173E"/>
      <path id="Path_2752" data-name="Path 2752" d="M0,3.455A3.4,3.4,0,0,1,3.493,0,3.41,3.41,0,0,1,7.026,3.455,3.418,3.418,0,0,1,3.493,6.949,3.408,3.408,0,0,1,0,3.455M.66,9.471H6.327v19.8H.66Z" transform="translate(0 0)" fill="#FF173E"/>
      <path id="Path_2753" data-name="Path 2753" d="M20.319,14.39h-4.7v9.471h4.7v5.162H9.955V3.405h5.667V9.228h4.7Z" transform="translate(0.713 0.244)" fill="#FF173E"/>
      <path id="Path_2754" data-name="Path 2754" d="M36.781,8.869h5.667v19.8H36.781V26.492A7.805,7.805,0,0,1,30.8,29.131a8.909,8.909,0,0,1-6.832-2.95,10.531,10.531,0,0,1-2.717-7.414,10.436,10.436,0,0,1,2.717-7.375A8.944,8.944,0,0,1,30.8,8.4a7.805,7.805,0,0,1,5.978,2.639Zm0,9.9a4.833,4.833,0,1,0-9.665,0,4.833,4.833,0,1,0,9.665,0" transform="translate(1.523 0.602)" fill="#FF173E"/>
      <path id="Path_2755" data-name="Path 2755" d="M55.333,14.39h-4.7v9.471h4.7v5.162H44.969V3.405h5.667V9.228h4.7Z" transform="translate(3.222 0.244)" fill="#FF173E"/>
      <path id="Path_2756" data-name="Path 2756" d="M57.247,3.455a3.513,3.513,0,0,1,7.025,0,3.512,3.512,0,0,1-7.025,0m.659,6.016h5.667v19.8H57.906Z" transform="translate(4.102 0)" fill="#FF173E"/>
      <path id="Path_2757" data-name="Path 2757" d="M81.862,8.869h5.667v19.8H81.862V26.492a7.805,7.805,0,0,1-5.978,2.639,8.909,8.909,0,0,1-6.832-2.95,10.531,10.531,0,0,1-2.717-7.414,10.436,10.436,0,0,1,2.717-7.375A8.944,8.944,0,0,1,75.884,8.4a7.805,7.805,0,0,1,5.978,2.639Zm0,9.9a4.833,4.833,0,1,0-9.665,0,4.833,4.833,0,1,0,9.665,0" transform="translate(4.754 0.602)" fill="#FF173E"/>
      <path id="Path_2758" data-name="Path 2758" d="M89.7,3.455a3.513,3.513,0,0,1,7.026,0,3.513,3.513,0,0,1-7.026,0m.66,6.016h5.667v19.8H90.356Z" transform="translate(6.427 0)" fill="#FF173E"/>
      <path id="Path_2759" data-name="Path 2759" d="M114.311,8.869h5.668v19.8h-5.668V26.492a7.805,7.805,0,0,1-5.978,2.639,8.909,8.909,0,0,1-6.832-2.95,10.531,10.531,0,0,1-2.717-7.414,10.436,10.436,0,0,1,2.717-7.375A8.944,8.944,0,0,1,108.333,8.4a7.805,7.805,0,0,1,5.978,2.639Zm0,9.9a4.832,4.832,0,1,0-9.664,0,4.832,4.832,0,1,0,9.664,0" transform="translate(7.079 0.602)" fill="#FF173E"/>
      <path id="Path_2760" data-name="Path 2760" d="M126.395,5.012a3.2,3.2,0,0,1-.923,2.283,3.126,3.126,0,0,1-1,.683,3.225,3.225,0,0,1-2.468,0,3.126,3.126,0,0,1-1-.683,3.2,3.2,0,0,1-.923-2.283,3.22,3.22,0,0,1,.245-1.258A3.187,3.187,0,0,1,121,2.73a3.126,3.126,0,0,1,1-.683,3.225,3.225,0,0,1,2.468,0,3.126,3.126,0,0,1,1,.683,3.221,3.221,0,0,1,.923,2.282m-5.517,0a2.514,2.514,0,0,0,.185.978,2.448,2.448,0,0,0,.507.778,2.322,2.322,0,0,0,.747.517,2.365,2.365,0,0,0,1.836,0,2.338,2.338,0,0,0,.748-.517,2.464,2.464,0,0,0,.506-.778,2.514,2.514,0,0,0,.185-.978,2.525,2.525,0,0,0-.185-.973,2.46,2.46,0,0,0-.506-.782,2.338,2.338,0,0,0-.748-.517,2.365,2.365,0,0,0-1.836,0,2.322,2.322,0,0,0-.747.517,2.444,2.444,0,0,0-.507.782,2.525,2.525,0,0,0-.185.973m3.662-.571a.83.83,0,0,1-.11.446,1.2,1.2,0,0,1-.241.286,1.377,1.377,0,0,1-.352.191l.9,1.3h-.853l-.752-1.1h-.3v1.1h-.752V3.357h1.3a1.19,1.19,0,0,1,.451.085,1.131,1.131,0,0,1,.612.582.99.99,0,0,1,.091.417m-1.154.421a.449.449,0,0,0,.322-.125.358.358,0,0,0,0-.552.449.449,0,0,0-.322-.125h-.552v.8Z" transform="translate(8.604 0.129)" fill="#FF173E"/>
    </g>
  </g>
</svg>
