<svg width="188" height="20" viewBox="0 0 188 20" fill="none" xmlns="http://www.w3.org/2000/svg">
<path d="M96.7914 6.36804H105.248V7.84939H98.4834V12.0793H104.719V13.5571H98.4834V18.2081H105.458V19.6895H96.7914V6.36804Z" fill="white"/>
<path d="M111.166 15.7773C111.166 17.3836 112.119 18.3152 113.914 18.3152C115.71 18.3152 116.663 17.3836 116.663 16.2021C116.663 12.9252 109.581 14.6172 109.581 9.85902C109.581 8.06355 111.376 6.26451 113.914 6.26451C116.22 6.26451 118.037 8.05998 118.037 10.2802H116.345C116.345 8.78102 115.289 7.74229 113.914 7.74229C112.33 7.74229 111.273 8.77745 111.273 9.85545C111.273 13.1323 118.355 11.4403 118.355 16.1985C118.355 18.101 116.684 19.793 113.914 19.793C111.144 19.793 109.474 18.101 109.474 15.7773H111.166Z" fill="white"/>
<path d="M127.443 6.36804C129.749 6.36804 131.669 8.27059 131.669 10.4908C131.669 12.7111 129.745 14.6136 127.443 14.6136H124.587V19.6859H122.895V6.36804H127.443ZM127.443 13.1323C128.817 13.1323 129.981 11.9686 129.981 10.4908C129.981 9.01305 128.817 7.84939 127.443 7.84939H124.587V13.1359H127.443V13.1323Z" fill="white"/>
<path d="M147.843 13.0288C147.843 16.8339 144.884 19.793 141.607 19.793C138.33 19.793 135.371 16.8339 135.371 13.0288C135.371 9.22364 138.33 6.26451 141.607 6.26451C144.884 6.26451 147.843 9.22364 147.843 13.0288ZM137.063 13.0288C137.063 16.095 139.283 18.3152 141.607 18.3152C143.93 18.3152 146.151 16.095 146.151 13.0288C146.151 9.96253 143.93 7.74229 141.607 7.74229C139.283 7.74229 137.063 9.96253 137.063 13.0288Z" fill="white"/>
<path d="M157.359 6.36804C159.579 6.36804 161.375 8.16351 161.375 10.2802C161.375 11.8223 160.636 12.7539 159.893 13.325C159.451 13.6641 158.962 13.9176 158.433 14.0853L161.689 19.6859H159.786L156.616 14.1889H154.079V19.6859H152.387V6.36804H157.359ZM157.359 12.7111C158.605 12.7111 159.683 11.6331 159.683 10.2802C159.683 8.92739 158.605 7.84939 157.359 7.84939H154.082V12.7111H157.359Z" fill="white"/>
<path d="M168.667 7.84939H164.651V6.36804H174.375V7.84939H170.359V19.6895H168.667V7.84939Z" fill="white"/>
<path d="M178.498 6.36804H186.954V7.84939H180.19V12.0793H186.426V13.5571H180.19V18.2081H187.165V19.6895H178.498V6.36804Z" fill="white"/>
<path d="M0.835411 2.32376C0.835411 0.992328 1.85273 0 3.18416 0C4.51559 0 5.56146 0.992328 5.56146 2.32376C5.56146 3.65519 4.54415 4.67251 3.18416 4.67251C1.82417 4.67251 0.835411 3.68018 0.835411 2.32376ZM1.27803 6.3716H5.09028V19.6895H1.27803V6.3716Z" fill="white"/>
<path d="M14.985 9.84474H11.826V16.2163H14.985V19.6895H8.01377V2.45583H11.826V6.3716H14.985V9.84474Z" fill="white"/>
<path d="M26.6039 6.37156H30.4161V19.6895H26.6039V18.226C25.533 19.4003 24.173 20 22.581 20C20.7534 20 19.2114 19.3468 17.9835 18.0153C16.7556 16.6839 16.1559 15.0134 16.1559 13.0287C16.1559 11.0441 16.7556 9.39852 17.9835 8.06709C19.2114 6.73565 20.7534 6.05745 22.581 6.05745C24.173 6.05745 25.533 6.65712 26.6039 7.8315V6.36799V6.37156ZM26.6039 13.0323C26.6039 11.1512 25.2189 9.74119 23.3413 9.74119C21.4638 9.74119 20.1038 11.1512 20.1038 13.0323C20.1038 14.9134 21.4887 16.3234 23.3413 16.3234C25.1939 16.3234 26.6039 14.9134 26.6039 13.0323Z" fill="white"/>
<path d="M40.2286 9.84474H37.0696V16.2163H40.2286V19.6895H33.2573V2.45583H37.0696V6.3716H40.2286V9.84474Z" fill="white"/>
<path d="M42.1098 2.32376C42.1098 0.992328 43.1271 0 44.4585 0C45.7899 0 46.8358 0.992328 46.8358 2.32376C46.8358 3.65519 45.8149 4.67251 44.4585 4.67251C43.1021 4.67251 42.1098 3.68018 42.1098 2.32376ZM42.5524 6.3716H46.3646V19.6895H42.5524V6.3716Z" fill="white"/>
<path d="M59.1079 6.37156H62.9202V19.6895H59.1079V18.226C58.037 19.4003 56.6771 20 55.085 20C53.2575 20 51.7154 19.3468 50.4875 18.0153C49.2596 16.6839 48.6599 15.0134 48.6599 13.0287C48.6599 11.0441 49.2596 9.39852 50.4875 8.06709C51.7154 6.73565 53.2575 6.05745 55.085 6.05745C56.6771 6.05745 58.037 6.65712 59.1079 7.8315V6.36799V6.37156ZM59.1079 13.0323C59.1079 11.1512 57.7229 9.74119 55.8454 9.74119C53.9678 9.74119 52.6078 11.1512 52.6078 13.0323C52.6078 14.9134 53.9928 16.3234 55.8454 16.3234C57.6979 16.3234 59.1079 14.9134 59.1079 13.0323Z" fill="white"/>
<path d="M65.5044 2.32376C65.5044 0.992328 66.5217 0 67.8532 0C69.1846 0 70.2305 0.992328 70.2305 2.32376C70.2305 3.65519 69.2096 4.67251 67.8532 4.67251C66.4967 4.67251 65.5044 3.68018 65.5044 2.32376ZM65.947 6.3716H69.7593V19.6895H65.947V6.3716Z" fill="white"/>
<path d="M82.5026 6.37156H86.3148V19.6895H82.5026V18.226C81.4317 19.4003 80.0717 20 78.4797 20C76.6521 20 75.1101 19.3468 73.8822 18.0153C72.6543 16.6839 72.0546 15.0134 72.0546 13.0287C72.0546 11.0441 72.6543 9.39852 73.8822 8.06709C75.1101 6.73565 76.6521 6.05745 78.4797 6.05745C80.0717 6.05745 81.4317 6.65712 82.5026 7.8315V6.36799V6.37156ZM82.5026 13.0323C82.5026 11.1512 81.1176 9.74119 79.24 9.74119C77.3624 9.74119 76.0025 11.1512 76.0025 13.0323C76.0025 14.9134 77.3874 16.3234 79.24 16.3234C81.0926 16.3234 82.5026 14.9134 82.5026 13.0323Z" fill="white"/>
<path d="M92.0653 2.33804C92.0653 2.67 92.0046 2.97698 91.8868 3.25897C91.7655 3.54097 91.6013 3.79083 91.3943 4.00144C91.1837 4.21561 90.9409 4.3798 90.6625 4.4976C90.3841 4.61539 90.0842 4.67608 89.763 4.67608C89.4417 4.67608 89.1419 4.61539 88.8635 4.4976C88.585 4.3798 88.3423 4.21204 88.1317 4.00144C87.9211 3.79083 87.7569 3.54097 87.6391 3.25897C87.5213 2.97698 87.4606 2.67 87.4606 2.33804C87.4606 2.00607 87.5213 1.70623 87.6391 1.42067C87.7569 1.13511 87.9247 0.885242 88.1317 0.67464C88.3423 0.464038 88.585 0.29627 88.8635 0.178476C89.1419 0.0606819 89.4417 0 89.763 0C90.0842 0 90.3841 0.0606819 90.6625 0.178476C90.9409 0.29984 91.1837 0.464038 91.3943 0.67464C91.6049 0.885242 91.7691 1.13511 91.8868 1.42067C92.0046 1.70623 92.0653 2.00964 92.0653 2.33804ZM88.046 2.33804C88.046 2.59504 88.0889 2.8342 88.1817 3.05194C88.2709 3.26968 88.3959 3.45887 88.5493 3.6195C88.7064 3.78013 88.8849 3.90506 89.0919 3.9943C89.2989 4.08353 89.5238 4.12994 89.7594 4.12994C89.995 4.12994 90.2199 4.08353 90.4269 3.9943C90.6339 3.90506 90.816 3.78013 90.9695 3.6195C91.1265 3.45887 91.2479 3.26968 91.3371 3.05194C91.4264 2.8342 91.4728 2.59861 91.4728 2.33804C91.4728 2.07746 91.4299 1.84901 91.3371 1.6277C91.2479 1.40996 91.123 1.22078 90.9695 1.05658C90.8124 0.89595 90.6304 0.771017 90.4269 0.681779C90.2199 0.592541 89.995 0.546137 89.7594 0.546137C89.5238 0.546137 89.2989 0.588971 89.0919 0.681779C88.8849 0.771017 88.7028 0.89595 88.5493 1.05658C88.3923 1.21721 88.2709 1.40996 88.1817 1.6277C88.0889 1.84901 88.046 2.0846 88.046 2.33804ZM90.7125 1.92397C90.7125 2.05605 90.6839 2.16313 90.6339 2.2488C90.5804 2.33447 90.5233 2.40586 90.459 2.45583C90.3805 2.51294 90.2948 2.55935 90.202 2.59504L90.8588 3.54454H90.2377L89.688 2.74139H89.4667V3.54454H88.9206V1.13154H89.8701C89.9879 1.13154 90.095 1.15296 90.1985 1.19222C90.302 1.23149 90.3912 1.29217 90.4662 1.36356C90.5411 1.43852 90.6018 1.52062 90.6447 1.61699C90.6875 1.71337 90.7125 1.81332 90.7125 1.9204M89.8736 2.22738C89.9664 2.22738 90.045 2.19526 90.1092 2.13457C90.1735 2.07389 90.202 2.00607 90.202 1.93468C90.202 1.86329 90.1699 1.79547 90.1092 1.73122C90.045 1.67054 89.9664 1.63841 89.8736 1.63841H89.4703V2.22381H89.8736V2.22738Z" fill="white"/>
</svg>
